%TF.GenerationSoftware,KiCad,Pcbnew,7.0.1*%
%TF.CreationDate,2024-01-24T12:52:34+01:00*%
%TF.ProjectId,PX-CORE,50582d43-4f52-4452-9e6b-696361645f70,rev?*%
%TF.SameCoordinates,PX675d18cPY8cbe71c*%
%TF.FileFunction,Soldermask,Top*%
%TF.FilePolarity,Negative*%
%FSLAX46Y46*%
G04 Gerber Fmt 4.6, Leading zero omitted, Abs format (unit mm)*
G04 Created by KiCad (PCBNEW 7.0.1) date 2024-01-24 12:52:34*
%MOMM*%
%LPD*%
G01*
G04 APERTURE LIST*
G04 Aperture macros list*
%AMRoundRect*
0 Rectangle with rounded corners*
0 $1 Rounding radius*
0 $2 $3 $4 $5 $6 $7 $8 $9 X,Y pos of 4 corners*
0 Add a 4 corners polygon primitive as box body*
4,1,4,$2,$3,$4,$5,$6,$7,$8,$9,$2,$3,0*
0 Add four circle primitives for the rounded corners*
1,1,$1+$1,$2,$3*
1,1,$1+$1,$4,$5*
1,1,$1+$1,$6,$7*
1,1,$1+$1,$8,$9*
0 Add four rect primitives between the rounded corners*
20,1,$1+$1,$2,$3,$4,$5,0*
20,1,$1+$1,$4,$5,$6,$7,0*
20,1,$1+$1,$6,$7,$8,$9,0*
20,1,$1+$1,$8,$9,$2,$3,0*%
G04 Aperture macros list end*
%ADD10O,3.000000X1.600000*%
%ADD11C,1.700000*%
%ADD12O,1.700000X1.700000*%
%ADD13R,1.700000X1.700000*%
%ADD14RoundRect,0.500000X1.000000X0.500000X-1.000000X0.500000X-1.000000X-0.500000X1.000000X-0.500000X0*%
%ADD15O,1.070000X1.800000*%
%ADD16RoundRect,0.267500X-0.267500X-0.632500X0.267500X-0.632500X0.267500X0.632500X-0.267500X0.632500X0*%
%ADD17C,0.800000*%
%ADD18C,2.000000*%
%ADD19RoundRect,0.950000X-0.950000X-0.950000X0.950000X-0.950000X0.950000X0.950000X-0.950000X0.950000X0*%
%ADD20C,3.800000*%
%ADD21R,1.600000X1.600000*%
%ADD22O,1.600000X1.600000*%
%ADD23O,1.750000X3.000000*%
%ADD24RoundRect,0.500000X-1.000000X-0.500000X1.000000X-0.500000X1.000000X0.500000X-1.000000X0.500000X0*%
G04 APERTURE END LIST*
D10*
%TO.C,ESP32*%
X33325867Y5726728D03*
X33325867Y8266728D03*
X33325867Y10806728D03*
X33325867Y13346728D03*
X33325867Y15886728D03*
X33325867Y18426728D03*
X33325867Y20966728D03*
X33325867Y23506728D03*
X16688867Y5726728D03*
X16688867Y8266728D03*
X16688867Y10806728D03*
X16688867Y13346728D03*
X16688867Y15886728D03*
X16688867Y18426728D03*
X16688867Y20966728D03*
X16688867Y23506728D03*
%TD*%
D11*
%TO.C,J4*%
X32792367Y28332230D03*
D12*
X30252367Y28332230D03*
X27712367Y28332230D03*
X25172367Y28332230D03*
X22632367Y28332230D03*
X20092367Y28332230D03*
D13*
X17552367Y28332230D03*
%TD*%
D14*
%TO.C,M1*%
X1441366Y27567232D03*
X1441366Y30607232D03*
%TD*%
D15*
%TO.C,LED3*%
X42925000Y13500000D03*
X44195000Y13500000D03*
D16*
X45465000Y13500000D03*
D15*
X46735000Y13500000D03*
%TD*%
%TO.C,LED1*%
X36400000Y13525000D03*
X37670000Y13525000D03*
D16*
X38940000Y13525000D03*
D15*
X40210000Y13525000D03*
%TD*%
D17*
%TO.C,REF\u002A\u002A*%
X895807Y19549539D03*
X2194678Y18250668D03*
X895807Y15114917D03*
X2194678Y16413788D03*
%TD*%
D18*
%TO.C,BTN1*%
X38225000Y6850000D03*
X44725000Y6850000D03*
X38225000Y2350000D03*
X44725000Y2350000D03*
%TD*%
D19*
%TO.C,J2*%
X6175000Y21825000D03*
D20*
X11175000Y21825000D03*
%TD*%
D21*
%TO.C,PH1*%
X4975365Y25382229D03*
D22*
X7515365Y25382229D03*
X10055365Y25382229D03*
X12595365Y25382229D03*
X12595365Y33002229D03*
X10055365Y33002229D03*
X7515365Y33002229D03*
X4975365Y33002229D03*
%TD*%
D23*
%TO.C,DC-DC_3.3*%
X4560000Y17630000D03*
X13550000Y17670000D03*
X4560000Y1930000D03*
X13550000Y1960000D03*
%TD*%
D11*
%TO.C,START1*%
X48500000Y4275000D03*
D12*
X48500000Y6815000D03*
D11*
X48500000Y9355000D03*
%TD*%
D13*
%TO.C,J1*%
X1550000Y4600000D03*
D12*
X1550000Y7140000D03*
X1550000Y9680000D03*
%TD*%
D24*
%TO.C,M2*%
X48476364Y30904224D03*
X48476364Y27864224D03*
%TD*%
D17*
%TO.C,REF\u002A\u002A*%
X49082262Y15085887D03*
X47783391Y16384758D03*
X49082262Y19520509D03*
X47783391Y18221638D03*
%TD*%
D15*
%TO.C,LED2*%
X39675000Y19275000D03*
X40945000Y19275000D03*
D16*
X42215000Y19275000D03*
D15*
X43485000Y19275000D03*
%TD*%
D21*
%TO.C,PH2*%
X36922364Y25272229D03*
D22*
X39462364Y25272229D03*
X42002364Y25272229D03*
X44542364Y25272229D03*
X44542364Y32892229D03*
X42002364Y32892229D03*
X39462364Y32892229D03*
X36922364Y32892229D03*
%TD*%
G36*
X49723634Y20462779D02*
G01*
X49752677Y20459250D01*
X49802889Y20447783D01*
X49849668Y20426230D01*
X49852084Y20424797D01*
X49893402Y20394105D01*
X49927528Y20355573D01*
X49929163Y20353289D01*
X49954643Y20308550D01*
X49970377Y20259527D01*
X49976390Y20230895D01*
X49981706Y20179687D01*
X49981588Y19258435D01*
X49981461Y19250516D01*
X49981232Y19243348D01*
X49980226Y19227574D01*
X49979540Y19220407D01*
X49978659Y19212524D01*
X49974074Y19176697D01*
X49972760Y19167733D01*
X49971421Y19159625D01*
X49967826Y19141890D01*
X49965895Y19133873D01*
X49963616Y19125114D01*
X49960678Y19114609D01*
X49958766Y19108112D01*
X49956931Y19102178D01*
X49952551Y19089278D01*
X49950413Y19083504D01*
X49947980Y19077198D01*
X49941432Y19060888D01*
X49938821Y19054631D01*
X49936369Y19048974D01*
X49930627Y19036660D01*
X49927882Y19031169D01*
X49924752Y19025116D01*
X49916455Y19009596D01*
X49913169Y19003646D01*
X49910112Y18998285D01*
X49903089Y18986712D01*
X49899749Y18981531D01*
X49895984Y18975862D01*
X49886059Y18961353D01*
X49882156Y18955810D01*
X49878540Y18950821D01*
X49870268Y18940040D01*
X49866366Y18935232D01*
X49862025Y18930030D01*
X49850612Y18916724D01*
X49846092Y18911598D01*
X49841941Y18907019D01*
X49832563Y18897224D01*
X49828159Y18892868D01*
X49823268Y18888161D01*
X49810483Y18876187D01*
X49805467Y18871615D01*
X49800826Y18867500D01*
X49790417Y18858767D01*
X49785606Y18854949D01*
X49780245Y18850812D01*
X49766170Y18840253D01*
X49760683Y18836252D01*
X49755645Y18832683D01*
X49744338Y18825128D01*
X49739128Y18821849D01*
X49733344Y18818318D01*
X49718214Y18809361D01*
X49712306Y18805971D01*
X49706923Y18802980D01*
X49694905Y18796725D01*
X49689373Y18794034D01*
X49683214Y18791141D01*
X49667197Y18783884D01*
X49660960Y18781160D01*
X49655272Y18778768D01*
X49642632Y18773853D01*
X49636802Y18771767D01*
X49630393Y18769572D01*
X49605790Y18761517D01*
X49595003Y18757756D01*
X49584320Y18753568D01*
X49269637Y18623222D01*
X49234439Y18605865D01*
X49201804Y18584060D01*
X48953822Y18393783D01*
X48924312Y18367902D01*
X48898434Y18338395D01*
X48708153Y18090415D01*
X48686346Y18057778D01*
X48668989Y18022579D01*
X48549368Y17733789D01*
X48536753Y17696628D01*
X48529100Y17658151D01*
X48488296Y17348225D01*
X48485730Y17309070D01*
X48488296Y17269914D01*
X48530605Y16948556D01*
X48536023Y16921315D01*
X48547574Y16887290D01*
X48546719Y16887000D01*
X48559083Y16843441D01*
X48559258Y16842360D01*
X48562835Y16829335D01*
X48655151Y16552392D01*
X48675667Y16504937D01*
X48704032Y16461701D01*
X48893751Y16220706D01*
X48937624Y16175636D01*
X48989935Y16140703D01*
X49205450Y16027465D01*
X49227972Y16014075D01*
X49233391Y16010454D01*
X49240087Y16007153D01*
X49243885Y16005579D01*
X49249067Y16003363D01*
X49253731Y16001306D01*
X49264031Y15996479D01*
X49268681Y15994169D01*
X49273718Y15991595D01*
X49703146Y15765962D01*
X49724471Y15753366D01*
X49743132Y15741052D01*
X49781524Y15709826D01*
X49797384Y15694062D01*
X49814060Y15675751D01*
X49912069Y15556741D01*
X49952694Y15486704D01*
X49968700Y15407336D01*
X49982908Y15009493D01*
X49982979Y15007224D01*
X49983033Y15005193D01*
X49983111Y15000771D01*
X49983129Y14998730D01*
X49983139Y14996534D01*
X49983139Y14370141D01*
X49969640Y14289269D01*
X49930606Y14217165D01*
X49870270Y14161648D01*
X49795174Y14128737D01*
X49713460Y14122001D01*
X49582003Y14132956D01*
X49577815Y14133341D01*
X49574009Y14133723D01*
X49565466Y14134730D01*
X49561633Y14135249D01*
X49557494Y14135844D01*
X49189470Y14191983D01*
X49176853Y14194242D01*
X49165462Y14196585D01*
X49140697Y14203021D01*
X49129615Y14206518D01*
X49117496Y14210688D01*
X48703797Y14365057D01*
X48695288Y14368411D01*
X48687605Y14371604D01*
X48670891Y14379287D01*
X48663436Y14383053D01*
X48655338Y14387332D01*
X48228728Y14622919D01*
X48220668Y14627568D01*
X48213441Y14631919D01*
X48197862Y14642111D01*
X48190956Y14647007D01*
X48183465Y14652531D01*
X47814349Y14935524D01*
X47803109Y14944673D01*
X47793150Y14953273D01*
X47772340Y14973475D01*
X47763451Y14983172D01*
X47753969Y14994140D01*
X47477682Y15333216D01*
X47474924Y15336664D01*
X47472445Y15339819D01*
X47467141Y15346820D01*
X47464781Y15350052D01*
X47462242Y15353594D01*
X47221441Y15695788D01*
X47214657Y15705949D01*
X47208724Y15715326D01*
X47196672Y15736622D01*
X47191678Y15746556D01*
X47186455Y15757613D01*
X47019467Y16134880D01*
X47016337Y16142273D01*
X47013591Y16149060D01*
X47008036Y16164179D01*
X47005734Y16171131D01*
X47003338Y16178778D01*
X46869691Y16630627D01*
X46867069Y16640184D01*
X46864858Y16648924D01*
X46860765Y16668326D01*
X46859257Y16677211D01*
X46857793Y16687011D01*
X46807898Y17073692D01*
X46807004Y17081617D01*
X46806307Y17088833D01*
X46805281Y17104811D01*
X46805049Y17112063D01*
X46804922Y17120026D01*
X46804923Y17567356D01*
X46805273Y17580553D01*
X46805908Y17592516D01*
X46808698Y17618735D01*
X46810593Y17630555D01*
X46813025Y17643521D01*
X46919865Y18140019D01*
X46921818Y18148388D01*
X46923719Y18155944D01*
X46928492Y18172479D01*
X46930918Y18179909D01*
X46933720Y18188015D01*
X47076890Y18580172D01*
X47080844Y18590309D01*
X47084637Y18599439D01*
X47093837Y18619115D01*
X47098402Y18627862D01*
X47103657Y18637413D01*
X47313322Y18999564D01*
X47316056Y19004172D01*
X47318566Y19008300D01*
X47324300Y19017291D01*
X47327008Y19021343D01*
X47330042Y19025779D01*
X47597543Y19407925D01*
X47604836Y19417815D01*
X47611663Y19426610D01*
X47627661Y19445244D01*
X47635348Y19453352D01*
X47644024Y19462062D01*
X47917257Y19723147D01*
X47923901Y19729269D01*
X47930031Y19734715D01*
X47943974Y19746224D01*
X47950521Y19751240D01*
X47957785Y19756599D01*
X48394680Y20066858D01*
X48404965Y20073784D01*
X48414469Y20079845D01*
X48436018Y20092122D01*
X48446065Y20097201D01*
X48457274Y20102521D01*
X48906868Y20302339D01*
X48916000Y20306182D01*
X48924393Y20309519D01*
X48943129Y20316116D01*
X48951747Y20318769D01*
X48961289Y20321499D01*
X49383863Y20433358D01*
X49394287Y20435879D01*
X49403821Y20437968D01*
X49425004Y20441659D01*
X49434693Y20442919D01*
X49445366Y20444073D01*
X49672161Y20463672D01*
X49723634Y20462779D01*
G37*
G36*
X541380Y20486798D02*
G01*
X555043Y20485393D01*
X567393Y20483778D01*
X594363Y20478726D01*
X606464Y20475761D01*
X619705Y20472127D01*
X1049646Y20341277D01*
X1056355Y20339131D01*
X1062423Y20337095D01*
X1075639Y20332241D01*
X1081598Y20329859D01*
X1088084Y20327159D01*
X1511861Y20143731D01*
X1522430Y20138861D01*
X1531929Y20134211D01*
X1552310Y20123025D01*
X1561323Y20117516D01*
X1571115Y20111212D01*
X1956069Y19850438D01*
X1964647Y19844359D01*
X1972315Y19838678D01*
X1988626Y19825494D01*
X1995784Y19819192D01*
X2003527Y19812080D01*
X2301766Y19526273D01*
X2308196Y19519882D01*
X2313925Y19513977D01*
X2326080Y19500498D01*
X2331379Y19494173D01*
X2337061Y19487136D01*
X2599922Y19149166D01*
X2605897Y19141157D01*
X2611175Y19133778D01*
X2622154Y19117047D01*
X2626829Y19109257D01*
X2631810Y19100564D01*
X2892184Y18624265D01*
X2897301Y18614387D01*
X2901747Y18605313D01*
X2910615Y18584966D01*
X2914230Y18575546D01*
X2917982Y18565076D01*
X3085753Y18061774D01*
X3089797Y18048402D01*
X3093122Y18036181D01*
X3098934Y18008847D01*
X3100872Y17996309D01*
X3102617Y17982451D01*
X3152698Y17469125D01*
X3153404Y17460248D01*
X3153902Y17452159D01*
X3154360Y17434283D01*
X3154276Y17426160D01*
X3154024Y17417254D01*
X3135051Y17006209D01*
X3134573Y16998463D01*
X3134027Y16991413D01*
X3132349Y16975999D01*
X3131367Y16969009D01*
X3130167Y16961342D01*
X3067952Y16600509D01*
X3066178Y16591267D01*
X3064407Y16582898D01*
X3059828Y16564679D01*
X3057438Y16556491D01*
X3054635Y16547521D01*
X2949565Y16232303D01*
X2947252Y16225677D01*
X2945055Y16219657D01*
X2939870Y16206605D01*
X2937358Y16200767D01*
X2934478Y16194326D01*
X2769526Y15839049D01*
X2765875Y15831520D01*
X2762433Y15824715D01*
X2754360Y15810007D01*
X2750465Y15803445D01*
X2746070Y15796317D01*
X2546598Y15484638D01*
X2541793Y15477410D01*
X2537309Y15470914D01*
X2526960Y15456985D01*
X2522040Y15450824D01*
X2516522Y15444156D01*
X2213845Y15091036D01*
X2206712Y15083067D01*
X2200071Y15075961D01*
X2184836Y15061000D01*
X2177636Y15054512D01*
X2169529Y15047517D01*
X1882695Y14810578D01*
X1877736Y14806587D01*
X1873159Y14802999D01*
X1862928Y14795393D01*
X1858216Y14792074D01*
X1852964Y14788475D01*
X1629641Y14639567D01*
X1624114Y14635986D01*
X1619057Y14632804D01*
X1607783Y14626117D01*
X1602570Y14623208D01*
X1596773Y14620073D01*
X1338525Y14484799D01*
X1331011Y14481024D01*
X1324089Y14477691D01*
X1308619Y14470879D01*
X1301491Y14468025D01*
X1293628Y14465030D01*
X995667Y14357259D01*
X991760Y14355882D01*
X988171Y14354651D01*
X980462Y14352147D01*
X976918Y14351059D01*
X972946Y14349875D01*
X671210Y14262711D01*
X669585Y14262248D01*
X668047Y14261815D01*
X664347Y14260804D01*
X662728Y14260375D01*
X661095Y14259948D01*
X440493Y14203090D01*
X428407Y14200294D01*
X417400Y14198035D01*
X392940Y14194270D01*
X381746Y14193113D01*
X369384Y14192146D01*
X263764Y14186523D01*
X183724Y14195299D01*
X110670Y14229158D01*
X52241Y14284559D01*
X14545Y14355709D01*
X1526Y14435169D01*
X1523Y14763906D01*
X1533Y14766099D01*
X1551Y14768145D01*
X1630Y14772615D01*
X1684Y14774633D01*
X1754Y14776860D01*
X25454Y15440412D01*
X30210Y15480752D01*
X37357Y15516189D01*
X66055Y15591898D01*
X84187Y15623157D01*
X107365Y15656513D01*
X189818Y15756633D01*
X227953Y15793948D01*
X273163Y15822281D01*
X276983Y15824138D01*
X283100Y15827010D01*
X299102Y15834259D01*
X305304Y15836967D01*
X310993Y15839360D01*
X323645Y15844281D01*
X329466Y15846364D01*
X335895Y15848566D01*
X360491Y15856618D01*
X371301Y15860388D01*
X381943Y15864560D01*
X696655Y15994920D01*
X731848Y16012275D01*
X764483Y16034081D01*
X949295Y16175898D01*
X957854Y16182180D01*
X965766Y16187732D01*
X983679Y16199192D01*
X992033Y16204047D01*
X1001344Y16209196D01*
X1018045Y16217970D01*
X1058823Y16245203D01*
X1093033Y16280347D01*
X1291464Y16532407D01*
X1319832Y16575647D01*
X1340352Y16623113D01*
X1426707Y16882182D01*
X1435248Y16913285D01*
X1440398Y16945103D01*
X1462536Y17151719D01*
X1462699Y17153203D01*
X1462855Y17154581D01*
X1463203Y17157499D01*
X1463377Y17158889D01*
X1463579Y17160464D01*
X1477989Y17269919D01*
X1480555Y17309071D01*
X1477988Y17348221D01*
X1471879Y17394616D01*
X1471564Y17397108D01*
X1471287Y17399389D01*
X1470729Y17404405D01*
X1470499Y17406684D01*
X1470263Y17409146D01*
X1448186Y17652020D01*
X1440626Y17696960D01*
X1426342Y17740242D01*
X1317474Y18001527D01*
X1300454Y18035976D01*
X1279178Y18067961D01*
X1082726Y18325798D01*
X1075931Y18333838D01*
X1071375Y18338237D01*
X1057121Y18353190D01*
X1043168Y18369099D01*
X1032970Y18378044D01*
X984682Y18415096D01*
X981582Y18417513D01*
X978755Y18419754D01*
X972743Y18424675D01*
X970004Y18426989D01*
X967013Y18429557D01*
X784260Y18588979D01*
X741559Y18620060D01*
X694057Y18643175D01*
X390653Y18759020D01*
X378595Y18763989D01*
X367774Y18768784D01*
X344520Y18780582D01*
X334243Y18786492D01*
X323103Y18793293D01*
X199204Y18873464D01*
X172091Y18893751D01*
X149094Y18913534D01*
X104334Y18964124D01*
X87501Y18989359D01*
X70669Y19018742D01*
X32058Y19098233D01*
X20894Y19125110D01*
X12281Y19149834D01*
X-304Y19206586D01*
X-2951Y19232645D01*
X-4195Y19261719D01*
X10813Y20217176D01*
X16754Y20267471D01*
X23564Y20298003D01*
X39553Y20346044D01*
X64930Y20389857D01*
X68035Y20394144D01*
X101772Y20431938D01*
X142461Y20462121D01*
X147008Y20464824D01*
X192942Y20486140D01*
X242238Y20497721D01*
X273261Y20501742D01*
X323891Y20503111D01*
X541380Y20486798D01*
G37*
M02*
