%TF.GenerationSoftware,KiCad,Pcbnew,7.0.1*%
%TF.CreationDate,2024-01-24T12:52:34+01:00*%
%TF.ProjectId,PX-CORE,50582d43-4f52-4452-9e6b-696361645f70,rev?*%
%TF.SameCoordinates,PX675d18cPY8cbe71c*%
%TF.FileFunction,Copper,L1,Top*%
%TF.FilePolarity,Positive*%
%FSLAX46Y46*%
G04 Gerber Fmt 4.6, Leading zero omitted, Abs format (unit mm)*
G04 Created by KiCad (PCBNEW 7.0.1) date 2024-01-24 12:52:34*
%MOMM*%
%LPD*%
G01*
G04 APERTURE LIST*
G04 Aperture macros list*
%AMRoundRect*
0 Rectangle with rounded corners*
0 $1 Rounding radius*
0 $2 $3 $4 $5 $6 $7 $8 $9 X,Y pos of 4 corners*
0 Add a 4 corners polygon primitive as box body*
4,1,4,$2,$3,$4,$5,$6,$7,$8,$9,$2,$3,0*
0 Add four circle primitives for the rounded corners*
1,1,$1+$1,$2,$3*
1,1,$1+$1,$4,$5*
1,1,$1+$1,$6,$7*
1,1,$1+$1,$8,$9*
0 Add four rect primitives between the rounded corners*
20,1,$1+$1,$2,$3,$4,$5,0*
20,1,$1+$1,$4,$5,$6,$7,0*
20,1,$1+$1,$6,$7,$8,$9,0*
20,1,$1+$1,$8,$9,$2,$3,0*%
G04 Aperture macros list end*
%TA.AperFunction,ComponentPad*%
%ADD10O,3.000000X1.600000*%
%TD*%
%TA.AperFunction,ComponentPad*%
%ADD11C,1.700000*%
%TD*%
%TA.AperFunction,ComponentPad*%
%ADD12O,1.700000X1.700000*%
%TD*%
%TA.AperFunction,ComponentPad*%
%ADD13R,1.700000X1.700000*%
%TD*%
%TA.AperFunction,ComponentPad*%
%ADD14RoundRect,0.500000X1.000000X0.500000X-1.000000X0.500000X-1.000000X-0.500000X1.000000X-0.500000X0*%
%TD*%
%TA.AperFunction,ComponentPad*%
%ADD15O,1.070000X1.800000*%
%TD*%
%TA.AperFunction,ComponentPad*%
%ADD16RoundRect,0.267500X-0.267500X-0.632500X0.267500X-0.632500X0.267500X0.632500X-0.267500X0.632500X0*%
%TD*%
%TA.AperFunction,ComponentPad*%
%ADD17C,0.800000*%
%TD*%
%TA.AperFunction,ComponentPad*%
%ADD18C,2.000000*%
%TD*%
%TA.AperFunction,ComponentPad*%
%ADD19RoundRect,0.950000X-0.950000X-0.950000X0.950000X-0.950000X0.950000X0.950000X-0.950000X0.950000X0*%
%TD*%
%TA.AperFunction,ComponentPad*%
%ADD20C,3.800000*%
%TD*%
%TA.AperFunction,ComponentPad*%
%ADD21R,1.600000X1.600000*%
%TD*%
%TA.AperFunction,ComponentPad*%
%ADD22O,1.600000X1.600000*%
%TD*%
%TA.AperFunction,ComponentPad*%
%ADD23O,1.750000X3.000000*%
%TD*%
%TA.AperFunction,ComponentPad*%
%ADD24RoundRect,0.500000X-1.000000X-0.500000X1.000000X-0.500000X1.000000X0.500000X-1.000000X0.500000X0*%
%TD*%
%TA.AperFunction,ViaPad*%
%ADD25C,0.600000*%
%TD*%
%TA.AperFunction,ViaPad*%
%ADD26C,1.000000*%
%TD*%
%TA.AperFunction,Conductor*%
%ADD27C,0.300000*%
%TD*%
%TA.AperFunction,Conductor*%
%ADD28C,1.000000*%
%TD*%
%TA.AperFunction,Conductor*%
%ADD29C,0.250000*%
%TD*%
%TA.AperFunction,Conductor*%
%ADD30C,0.800000*%
%TD*%
%TA.AperFunction,Conductor*%
%ADD31C,0.200000*%
%TD*%
G04 APERTURE END LIST*
D10*
%TO.P,ESP32,1,5*%
%TO.N,/SUCC*%
X33325867Y5726728D03*
%TO.P,ESP32,2,6*%
%TO.N,/BTN*%
X33325867Y8266728D03*
%TO.P,ESP32,3,7*%
%TO.N,/PWM_M1A*%
X33325867Y10806728D03*
%TO.P,ESP32,4,8*%
%TO.N,/PWM_M2B*%
X33325867Y13346728D03*
%TO.P,ESP32,5,9*%
%TO.N,/PIN9*%
X33325867Y15886728D03*
%TO.P,ESP32,6,10*%
%TO.N,/PWM_M1B*%
X33325867Y18426728D03*
%TO.P,ESP32,7,20*%
%TO.N,/LEDS*%
X33325867Y20966728D03*
%TO.P,ESP32,8,21*%
%TO.N,/START*%
X33325867Y23506728D03*
%TO.P,ESP32,9,5V*%
%TO.N,unconnected-(ESP32-5V-Pad9)*%
X16688867Y5726728D03*
%TO.P,ESP32,10,GND*%
%TO.N,GND*%
X16688867Y8266728D03*
%TO.P,ESP32,11,3.3V*%
%TO.N,+3.3V*%
X16688867Y10806728D03*
%TO.P,ESP32,12,4*%
%TO.N,/PIN4*%
X16688867Y13346728D03*
%TO.P,ESP32,13,3*%
%TO.N,/PIN3*%
X16688867Y15886728D03*
%TO.P,ESP32,14,2*%
%TO.N,/PWM_M2A*%
X16688867Y18426728D03*
%TO.P,ESP32,15,1*%
%TO.N,/PIN1*%
X16688867Y20966728D03*
%TO.P,ESP32,16,0*%
%TO.N,/PIN0*%
X16688867Y23506728D03*
%TD*%
D11*
%TO.P,J4,1,Pin_1*%
%TO.N,/PIN9*%
X32792367Y28332230D03*
D12*
%TO.P,J4,2,Pin_2*%
%TO.N,/PIN4*%
X30252367Y28332230D03*
%TO.P,J4,3,Pin_3*%
%TO.N,/PIN3*%
X27712367Y28332230D03*
%TO.P,J4,4,Pin_4*%
%TO.N,/PIN1*%
X25172367Y28332230D03*
%TO.P,J4,5,Pin_5*%
%TO.N,/PIN0*%
X22632367Y28332230D03*
%TO.P,J4,6,Pin_6*%
%TO.N,+3.3V*%
X20092367Y28332230D03*
D13*
%TO.P,J4,7,Pin_7*%
%TO.N,GND*%
X17552367Y28332230D03*
%TD*%
D14*
%TO.P,M1,1,Pin_1*%
%TO.N,Net-(M1-Pin_1)*%
X1441366Y27567232D03*
%TO.P,M1,2,Pin_2*%
%TO.N,Net-(M1-Pin_2)*%
X1441366Y30607232D03*
%TD*%
D15*
%TO.P,LED3,1,DOUT*%
%TO.N,Net-(LED2-DIN)*%
X42925000Y13500000D03*
%TO.P,LED3,2,VDD*%
%TO.N,+3.3V*%
X44195000Y13500000D03*
D16*
%TO.P,LED3,3,GND*%
%TO.N,GND*%
X45465000Y13500000D03*
D15*
%TO.P,LED3,4,DIN*%
%TO.N,unconnected-(LED3-DIN-Pad4)*%
X46735000Y13500000D03*
%TD*%
%TO.P,LED1,1,DOUT*%
%TO.N,/LEDS*%
X36400000Y13525000D03*
%TO.P,LED1,2,VDD*%
%TO.N,+3.3V*%
X37670000Y13525000D03*
D16*
%TO.P,LED1,3,GND*%
%TO.N,GND*%
X38940000Y13525000D03*
D15*
%TO.P,LED1,4,DIN*%
%TO.N,Net-(LED1-DIN)*%
X40210000Y13525000D03*
%TD*%
D17*
%TO.P,REF\u002A\u002A,1*%
%TO.N,/AUX_GND*%
X895807Y19549539D03*
X2194678Y18250668D03*
X895807Y15114917D03*
X2194678Y16413788D03*
%TD*%
D18*
%TO.P,BTN1,1,1*%
%TO.N,/BTN*%
X38225000Y6850000D03*
X44725000Y6850000D03*
%TO.P,BTN1,2,2*%
%TO.N,+3.3V*%
X38225000Y2350000D03*
X44725000Y2350000D03*
%TD*%
D19*
%TO.P,J2,1,Pin_1*%
%TO.N,GND*%
X6175000Y21825000D03*
D20*
%TO.P,J2,2,Pin_2*%
%TO.N,/BATT*%
X11175000Y21825000D03*
%TD*%
D21*
%TO.P,PH1,1,S1*%
%TO.N,/PWM_M1A*%
X4975365Y25382229D03*
D22*
%TO.P,PH1,2,S2*%
%TO.N,/PWM_M1B*%
X7515365Y25382229D03*
%TO.P,PH1,3,GND*%
%TO.N,GND*%
X10055365Y25382229D03*
%TO.P,PH1,4,VCC*%
%TO.N,/BATT*%
X12595365Y25382229D03*
%TO.P,PH1,5,M+*%
%TO.N,Net-(M1-Pin_1)*%
X12595365Y33002229D03*
%TO.P,PH1,6,M+*%
X10055365Y33002229D03*
%TO.P,PH1,7,M-*%
%TO.N,Net-(M1-Pin_2)*%
X7515365Y33002229D03*
%TO.P,PH1,8,M-*%
X4975365Y33002229D03*
%TD*%
D23*
%TO.P,DC-DC_3.3,1,IN+*%
%TO.N,/BATT*%
X4560000Y17630000D03*
%TO.P,DC-DC_3.3,2,IN-*%
%TO.N,GND*%
X13550000Y17670000D03*
%TO.P,DC-DC_3.3,3,OUT+*%
%TO.N,+3.3V*%
X4560000Y1930000D03*
%TO.P,DC-DC_3.3,4,OUT-*%
%TO.N,GND*%
X13550000Y1960000D03*
%TD*%
D11*
%TO.P,START1,1,Pin_1*%
%TO.N,/START*%
X48500000Y4275000D03*
D12*
%TO.P,START1,2,Pin_2*%
%TO.N,GND*%
X48500000Y6815000D03*
D11*
%TO.P,START1,3,Pin_3*%
%TO.N,+3.3V*%
X48500000Y9355000D03*
%TD*%
D13*
%TO.P,J1,1,Pin_1*%
%TO.N,GND*%
X1550000Y4600000D03*
D12*
%TO.P,J1,2,Pin_2*%
%TO.N,/BATT*%
X1550000Y7140000D03*
%TO.P,J1,3,Pin_3*%
%TO.N,/SUCC*%
X1550000Y9680000D03*
%TD*%
D24*
%TO.P,M2,1,Pin_1*%
%TO.N,Net-(M2-Pin_1)*%
X48476364Y30904224D03*
%TO.P,M2,2,Pin_2*%
%TO.N,Net-(M2-Pin_2)*%
X48476364Y27864224D03*
%TD*%
D17*
%TO.P,REF\u002A\u002A,1*%
%TO.N,/AUX_GND*%
X49082262Y15085887D03*
X47783391Y16384758D03*
X49082262Y19520509D03*
X47783391Y18221638D03*
%TD*%
D15*
%TO.P,LED2,1,DOUT*%
%TO.N,Net-(LED1-DIN)*%
X39675000Y19275000D03*
%TO.P,LED2,2,VDD*%
%TO.N,+3.3V*%
X40945000Y19275000D03*
D16*
%TO.P,LED2,3,GND*%
%TO.N,GND*%
X42215000Y19275000D03*
D15*
%TO.P,LED2,4,DIN*%
%TO.N,Net-(LED2-DIN)*%
X43485000Y19275000D03*
%TD*%
D21*
%TO.P,PH2,1,S1*%
%TO.N,/PWM_M2A*%
X36922364Y25272229D03*
D22*
%TO.P,PH2,2,S2*%
%TO.N,/PWM_M2B*%
X39462364Y25272229D03*
%TO.P,PH2,3,GND*%
%TO.N,GND*%
X42002364Y25272229D03*
%TO.P,PH2,4,VCC*%
%TO.N,/BATT*%
X44542364Y25272229D03*
%TO.P,PH2,5,M+*%
%TO.N,Net-(M2-Pin_1)*%
X44542364Y32892229D03*
%TO.P,PH2,6,M+*%
X42002364Y32892229D03*
%TO.P,PH2,7,M-*%
%TO.N,Net-(M2-Pin_2)*%
X39462364Y32892229D03*
%TO.P,PH2,8,M-*%
X36922364Y32892229D03*
%TD*%
D25*
%TO.N,GND*%
X41075000Y23525000D03*
X23825000Y27250000D03*
X4650000Y4600000D03*
X45025000Y9275000D03*
X45550000Y17275000D03*
X43150000Y22475000D03*
X47525000Y22150000D03*
X2800000Y3500000D03*
X30750000Y15175000D03*
X3975000Y5625000D03*
X28450000Y22225000D03*
X40900000Y15600000D03*
X21725000Y5850000D03*
X29750000Y24475000D03*
X20025000Y25275000D03*
X26475000Y27200000D03*
X1800000Y2700000D03*
X24550000Y8050000D03*
X31375000Y22250000D03*
X35350000Y2350000D03*
X40350000Y23975000D03*
X24825000Y24725000D03*
X31025000Y13950000D03*
X47750000Y1850000D03*
X30100000Y10800000D03*
X46250000Y23475000D03*
X36100000Y21650000D03*
X41625000Y1925000D03*
X36200000Y5100000D03*
X2825000Y5275000D03*
X41725000Y10925000D03*
X3400000Y4600000D03*
X27775000Y17775000D03*
X43225000Y24125000D03*
X15375000Y25050000D03*
X36400000Y10200000D03*
X27325000Y24550000D03*
%TO.N,/PWM_M1A*%
X29322366Y19875000D03*
%TO.N,/PWM_M2A*%
X23400000Y23575000D03*
%TO.N,/PWM_M2B*%
X37400000Y20075000D03*
X38425000Y22650000D03*
%TO.N,+3.3V*%
X14549500Y9762500D03*
X34425000Y26150000D03*
X22125000Y25425000D03*
X19050000Y22625000D03*
%TO.N,/BATT*%
X11175000Y18850000D03*
X14106569Y26200000D03*
X9000000Y19650000D03*
X4150000Y10975000D03*
X15025000Y29275000D03*
X11455365Y26965231D03*
X3955000Y9545000D03*
X5375000Y9550000D03*
X12250000Y19450000D03*
X9900000Y18950000D03*
D26*
X14722363Y30232232D03*
D25*
X13200000Y27000000D03*
X14106569Y24700000D03*
X2755000Y8345000D03*
X3040000Y7140000D03*
X4100000Y8200000D03*
%TD*%
D27*
%TO.N,GND*%
X46250000Y23475000D02*
X44150000Y23475000D01*
X47485000Y6815000D02*
X45025000Y9275000D01*
X30750000Y15175000D02*
X30750000Y14225000D01*
X40805135Y24075000D02*
X40775000Y24075000D01*
D28*
X3975000Y5625000D02*
X13550000Y15200000D01*
D27*
X40775000Y24075000D02*
X40775000Y23825000D01*
X21299930Y26549930D02*
X20025000Y25275000D01*
X36400000Y10200000D02*
X36400000Y5300000D01*
X42125000Y22475000D02*
X43150000Y22475000D01*
X36400000Y5300000D02*
X36200000Y5100000D01*
X6175000Y21825000D02*
X6498136Y21825000D01*
X45550000Y20075000D02*
X43150000Y22475000D01*
X23124930Y26549930D02*
X21299930Y26549930D01*
X47750000Y2000000D02*
X47000000Y2750000D01*
X44150000Y23475000D02*
X43150000Y22475000D01*
X41264132Y10925000D02*
X38940000Y13249132D01*
X42002364Y25272229D02*
X40805135Y24075000D01*
X2225000Y5275000D02*
X1550000Y4600000D01*
D28*
X13550000Y15200000D02*
X13550000Y17170000D01*
D27*
X36700000Y1000000D02*
X35350000Y2350000D01*
X35500000Y22250000D02*
X31375000Y22250000D01*
X28450000Y22225000D02*
X28450000Y23175000D01*
X38940000Y13249132D02*
X38940000Y13525000D01*
X45550000Y18375000D02*
X45550000Y20075000D01*
X41075000Y23525000D02*
X41075000Y22975000D01*
D28*
X1550000Y4600000D02*
X2950000Y4600000D01*
D27*
X15375000Y26154863D02*
X17552367Y28332230D01*
X23825000Y27250000D02*
X23124930Y26549930D01*
D28*
X2950000Y4600000D02*
X3975000Y5625000D01*
D27*
X41625000Y1925000D02*
X40700000Y1000000D01*
X24825000Y25550000D02*
X26475000Y27200000D01*
X39300000Y14775000D02*
X39300000Y13885000D01*
X15375000Y25050000D02*
X15375000Y26154863D01*
X43150000Y22475000D02*
X42002364Y23622636D01*
X47000000Y5315000D02*
X48500000Y6815000D01*
X45550000Y18375000D02*
X45550000Y20175000D01*
X21725000Y5850000D02*
X22350000Y5850000D01*
X27775000Y13125000D02*
X27775000Y17775000D01*
X42899593Y24375000D02*
X43050000Y24375000D01*
X41725000Y10925000D02*
X41264132Y10925000D01*
X2000000Y2700000D02*
X2800000Y3500000D01*
X43950000Y23475000D02*
X46250000Y23475000D01*
X43050000Y24375000D02*
X43950000Y23475000D01*
X40700000Y1000000D02*
X36700000Y1000000D01*
X2825000Y5275000D02*
X2225000Y5275000D01*
X1800000Y2700000D02*
X2000000Y2700000D01*
X42002364Y25272229D02*
X42899593Y24375000D01*
X40775000Y23825000D02*
X41075000Y23525000D01*
X42002364Y23622636D02*
X42002364Y25272229D01*
X47750000Y1850000D02*
X47750000Y2000000D01*
D28*
X6498136Y21825000D02*
X10055365Y25382229D01*
D27*
X47000000Y2750000D02*
X47000000Y5315000D01*
X28450000Y23175000D02*
X29750000Y24475000D01*
X40900000Y15600000D02*
X40125000Y15600000D01*
X40125000Y15600000D02*
X39300000Y14775000D01*
X22350000Y5850000D02*
X24550000Y8050000D01*
X30750000Y14225000D02*
X31025000Y13950000D01*
X41075000Y22975000D02*
X41850000Y22200000D01*
X24825000Y24725000D02*
X24825000Y25550000D01*
X41850000Y22200000D02*
X42125000Y22475000D01*
X45550000Y17275000D02*
X45550000Y18375000D01*
X36100000Y21650000D02*
X35500000Y22250000D01*
X45550000Y20175000D02*
X47525000Y22150000D01*
X39300000Y13885000D02*
X38940000Y13525000D01*
X48500000Y6815000D02*
X47485000Y6815000D01*
X30100000Y10800000D02*
X27775000Y13125000D01*
%TO.N,/SUCC*%
X1345487Y2100000D02*
X2372588Y2100000D01*
X347742Y8477742D02*
X347742Y3097745D01*
X4052588Y3780000D02*
X6730000Y3780000D01*
X1550000Y9680000D02*
X347742Y8477742D01*
X26202595Y12150000D02*
X32625867Y5726728D01*
X2372588Y2100000D02*
X4052588Y3780000D01*
X6730000Y3780000D02*
X15100000Y12150000D01*
X347742Y3097745D02*
X1345487Y2100000D01*
X15100000Y12150000D02*
X26202595Y12150000D01*
%TO.N,/PWM_M1A*%
X29322366Y19875000D02*
X29322364Y14110232D01*
X29322364Y14110232D02*
X32625867Y10806730D01*
D29*
%TO.N,/PWM_M2A*%
X17712141Y18750000D02*
X18450000Y18750000D01*
D27*
X17516866Y18426730D02*
X17388868Y18426727D01*
D29*
X23275000Y23575000D02*
X23400000Y23575000D01*
X18450000Y18750000D02*
X23275000Y23575000D01*
X17388868Y18426727D02*
X17806867Y18426730D01*
X17388868Y18426727D02*
X17712141Y18750000D01*
D27*
%TO.N,/PWM_M2B*%
X39462364Y23687364D02*
X39462364Y25272229D01*
X32625867Y13346728D02*
X33821728Y13346728D01*
X35400000Y14925000D02*
X37400000Y16925000D01*
X38425000Y22650000D02*
X39462364Y23687364D01*
X33821728Y13346728D02*
X35400000Y14925000D01*
X37400000Y16925000D02*
X37400000Y20075000D01*
D29*
%TO.N,/PIN3*%
X17388865Y15886727D02*
X27712366Y26210230D01*
X27712366Y26210230D02*
X27712367Y28332225D01*
X17388865Y15886727D02*
X17806869Y15886729D01*
D30*
%TO.N,+3.3V*%
X41825000Y5950000D02*
X41825000Y7675000D01*
X46640000Y9355000D02*
X48500000Y9355000D01*
X41125000Y5250000D02*
X40462500Y4587500D01*
X44195000Y14200132D02*
X44195000Y13500000D01*
X4560000Y1940000D02*
X5050000Y1450000D01*
X41825000Y5250000D02*
X44725000Y2350000D01*
X4560000Y2430000D02*
X4560000Y1940000D01*
X41825000Y8150000D02*
X41825000Y7675000D01*
X4560000Y2430000D02*
X7105000Y2430000D01*
X14549500Y8574500D02*
X14549500Y8807260D01*
X5050000Y1450000D02*
X7425000Y1450000D01*
X7105000Y2430000D02*
X15481728Y10806728D01*
X7425000Y1450000D02*
X14549500Y8574500D01*
X44195000Y11800000D02*
X46640000Y9355000D01*
X44195000Y13500000D02*
X44195000Y11800000D01*
X39895132Y17450132D02*
X39347500Y16902500D01*
X40945000Y17450132D02*
X44195000Y14200132D01*
X37815000Y21610000D02*
X36550000Y22875000D01*
X40462500Y4587500D02*
X41825000Y5950000D01*
X40945000Y18500000D02*
X40945000Y19275000D01*
X36550000Y22875000D02*
X36519593Y22875000D01*
X39347500Y16902500D02*
X37670000Y15225000D01*
X14549500Y8807260D02*
X15692240Y9950000D01*
X41825000Y7675000D02*
X41825000Y5250000D01*
X40310000Y21610000D02*
X37815000Y21610000D01*
X44195000Y10520000D02*
X41825000Y8150000D01*
X40462500Y4587500D02*
X38225000Y2350000D01*
X15481728Y10806728D02*
X17388867Y10806728D01*
X41825000Y5250000D02*
X41125000Y5250000D01*
X36519593Y22875000D02*
X35522364Y23872229D01*
X40945000Y19275000D02*
X40945000Y17450132D01*
X40945000Y17450132D02*
X39895132Y17450132D01*
X37670000Y15225000D02*
X37670000Y13525000D01*
X37670000Y12305000D02*
X37670000Y13525000D01*
X35522364Y25052636D02*
X34425000Y26150000D01*
X15692240Y9950000D02*
X16600000Y9950000D01*
X35522364Y23872229D02*
X35522364Y25052636D01*
X14549500Y8574500D02*
X14549500Y9762500D01*
X41825000Y8150000D02*
X37670000Y12305000D01*
X39347500Y16902500D02*
X40945000Y18500000D01*
X40945000Y20975000D02*
X40310000Y21610000D01*
X40945000Y19275000D02*
X40945000Y20975000D01*
X44195000Y11800000D02*
X44195000Y10520000D01*
X21850000Y25425000D02*
X19050000Y22625000D01*
X22125000Y25425000D02*
X21850000Y25425000D01*
D29*
%TO.N,/PIN4*%
X30252366Y26210233D02*
X30252367Y28332226D01*
X17388866Y13346732D02*
X17806867Y13346729D01*
X17388866Y13346732D02*
X30252366Y26210233D01*
D27*
%TO.N,/PIN9*%
X30522368Y17990232D02*
X30522368Y24182231D01*
X32625865Y15886730D02*
X30522368Y17990232D01*
X32792367Y26452230D02*
X32792367Y28332230D01*
X30522368Y24182231D02*
X32792367Y26452230D01*
%TO.N,/PIN1*%
X25172367Y27147367D02*
X18991728Y20966728D01*
X25172367Y28332230D02*
X25172367Y27147367D01*
X18991728Y20966728D02*
X17388867Y20966728D01*
D29*
X17388868Y20966730D02*
X17806869Y20966734D01*
D27*
%TO.N,/PIN0*%
X20275000Y26999930D02*
X20899930Y26999930D01*
X20899930Y26999930D02*
X22232230Y28332230D01*
X19199930Y26999930D02*
X20275000Y26999930D01*
X17388867Y23506728D02*
X17388867Y25188867D01*
X22232230Y28332230D02*
X22632367Y28332230D01*
X18700000Y26500000D02*
X19199930Y26999930D01*
D29*
X17388867Y23506727D02*
X17806868Y23506729D01*
D27*
X17388867Y25188867D02*
X18700000Y26500000D01*
X18700000Y26500000D02*
X18874930Y26674930D01*
D30*
%TO.N,/BATT*%
X11175000Y20225000D02*
X9900000Y18950000D01*
X9700000Y18950000D02*
X9000000Y19650000D01*
X11175000Y21825000D02*
X11175000Y23875000D01*
D28*
X44542368Y25272229D02*
X42857365Y26957226D01*
D30*
X12595365Y25054635D02*
X13375000Y24275000D01*
X11175000Y16765000D02*
X11175000Y18850000D01*
X12595365Y25382229D02*
X12595365Y26395365D01*
X12595369Y25382231D02*
X14106569Y26893431D01*
X13288798Y25382229D02*
X14106569Y26200000D01*
X11175000Y22825000D02*
X11175000Y21825000D01*
X11455365Y24155365D02*
X11455365Y26965231D01*
X13375000Y24275000D02*
X13375000Y22300000D01*
X11975000Y23625000D02*
X11175000Y22825000D01*
X13225000Y22150000D02*
X14106569Y23031569D01*
X14106569Y23031569D02*
X14106569Y24700000D01*
D28*
X16265138Y30050000D02*
X15459865Y29244728D01*
D30*
X12595365Y25320365D02*
X11975000Y24700000D01*
X11175000Y23875000D02*
X11455365Y24155365D01*
X12595365Y25382229D02*
X13288798Y25382229D01*
X13424340Y25382229D02*
X14106569Y24700000D01*
X12595365Y25382229D02*
X12595365Y25320365D01*
X6480000Y17130000D02*
X4560000Y17130000D01*
X9900000Y18950000D02*
X9700000Y18950000D01*
X12595365Y25382229D02*
X12595365Y25054635D01*
X12595364Y28105230D02*
X14722363Y30232232D01*
X12595365Y25382229D02*
X13424340Y25382229D01*
X11175000Y21825000D02*
X12900000Y21825000D01*
X14106569Y26200000D02*
X14106569Y26893431D01*
X9000000Y19650000D02*
X6480000Y17130000D01*
D28*
X33975000Y30050000D02*
X37067771Y26957229D01*
D30*
X12595365Y26395365D02*
X13200000Y27000000D01*
D28*
X15459865Y29244728D02*
X15459868Y28246731D01*
D30*
X12900000Y21825000D02*
X13225000Y22150000D01*
X11455365Y26965231D02*
X12595364Y28105230D01*
X4555000Y10145000D02*
X11175000Y16765000D01*
X14106569Y24700000D02*
X14106569Y26200000D01*
X4560000Y10150000D02*
X3955000Y9545000D01*
D28*
X16265138Y30050000D02*
X33975000Y30050000D01*
D30*
X11175000Y21825000D02*
X9000000Y19650000D01*
X2755000Y8345000D02*
X3955000Y9545000D01*
X13200000Y27450000D02*
X15025000Y29275000D01*
X11175000Y21825000D02*
X11175000Y18850000D01*
X11175000Y21825000D02*
X11175000Y20225000D01*
X13200000Y27000000D02*
X13200000Y27450000D01*
X4560000Y17130000D02*
X4560000Y10150000D01*
X11975000Y24700000D02*
X11975000Y23625000D01*
X1550000Y7140000D02*
X2755000Y8345000D01*
X12595369Y25382231D02*
X12595364Y28105230D01*
X3955000Y9545000D02*
X4555000Y10145000D01*
X13375000Y22300000D02*
X13225000Y22150000D01*
D28*
X15459868Y28246731D02*
X14106569Y26893431D01*
X42857365Y26957226D02*
X37067771Y26957229D01*
D31*
%TO.N,Net-(M1-Pin_1)*%
X5967230Y27817230D02*
X9190931Y31040931D01*
X2141368Y27876226D02*
X2141370Y27817232D01*
X3247366Y28982230D02*
X2141368Y27876226D01*
X2141370Y27817232D02*
X5967230Y27817230D01*
X6035366Y28982228D02*
X3247366Y28982230D01*
X10634069Y31040931D02*
X12595369Y33002229D01*
X10055367Y33002228D02*
X6035366Y28982228D01*
X9190931Y31040931D02*
X10634069Y31040931D01*
%TO.N,Net-(M1-Pin_2)*%
X4870364Y30357229D02*
X2141368Y30357227D01*
X7515364Y33002226D02*
X4870364Y30357229D01*
X2330366Y30357231D02*
X2141368Y30357227D01*
X4975367Y33002228D02*
X7515364Y33002226D01*
X4975367Y33002228D02*
X2330366Y30357231D01*
%TD*%
%TA.AperFunction,Conductor*%
%TO.N,/PIN4*%
G36*
X18436815Y14561519D02*
G01*
X18603391Y14394943D01*
X18606532Y14389241D01*
X18606139Y14382743D01*
X18132096Y13052160D01*
X18128509Y13047052D01*
X18122806Y13044516D01*
X18116610Y13045272D01*
X17392653Y13344166D01*
X17388845Y13346707D01*
X17386304Y13350515D01*
X17062406Y14134835D01*
X17061677Y14141205D01*
X17064417Y14147004D01*
X17069800Y14150487D01*
X18425127Y14564437D01*
X18431374Y14564598D01*
X18436815Y14561519D01*
G37*
%TD.AperFunction*%
%TD*%
%TA.AperFunction,Conductor*%
%TO.N,+3.3V*%
G36*
X38067421Y14957076D02*
G01*
X38071291Y14949765D01*
X38204105Y13897089D01*
X38203167Y13890825D01*
X38199103Y13885967D01*
X37676606Y13528520D01*
X37670000Y13526477D01*
X37663394Y13528520D01*
X37140896Y13885967D01*
X37136832Y13890825D01*
X37135894Y13897089D01*
X37268709Y14949765D01*
X37272579Y14957076D01*
X37280317Y14960000D01*
X38059683Y14960000D01*
X38067421Y14957076D01*
G37*
%TD.AperFunction*%
%TD*%
%TA.AperFunction,Conductor*%
%TO.N,Net-(M2-Pin_2)*%
G36*
X40403970Y34039190D02*
G01*
X40449995Y33993737D01*
X40466867Y33931290D01*
X40466867Y31930144D01*
X40484619Y31797356D01*
X40493012Y31766525D01*
X40497366Y31733956D01*
X40497366Y31682228D01*
X40497762Y31681545D01*
X40527019Y31657698D01*
X40548411Y31623684D01*
X40553730Y31611058D01*
X40636332Y31505601D01*
X40682940Y31460094D01*
X40790345Y31380034D01*
X44473515Y29331123D01*
X44592319Y29283569D01*
X44652599Y29267931D01*
X44779534Y29251734D01*
X48051850Y29251730D01*
X48092344Y29244931D01*
X48128396Y29225280D01*
X48549285Y28894961D01*
X48584523Y28851063D01*
X48596722Y28796110D01*
X48578416Y27057025D01*
X48561333Y26995510D01*
X48515910Y26950648D01*
X48454188Y26934330D01*
X45326960Y26940252D01*
X45287167Y26940327D01*
X45287162Y26940327D01*
X45157713Y26923724D01*
X45096303Y26907583D01*
X44975425Y26858393D01*
X44871163Y26779889D01*
X44825788Y26735462D01*
X44825068Y26734546D01*
X44823986Y26733698D01*
X44820054Y26729847D01*
X44819630Y26730280D01*
X44778904Y26698323D01*
X44721253Y26687381D01*
X44665027Y26704172D01*
X44342494Y26892749D01*
X44317400Y26912114D01*
X43574911Y27654601D01*
X43572718Y27656850D01*
X43512424Y27720279D01*
X43464008Y27753978D01*
X43456495Y27759642D01*
X43410771Y27796925D01*
X43410769Y27796926D01*
X43410768Y27796927D01*
X43383798Y27811016D01*
X43370379Y27819146D01*
X43345414Y27836521D01*
X43318509Y27848067D01*
X43291210Y27859782D01*
X43282701Y27863823D01*
X43230410Y27891137D01*
X43201168Y27899504D01*
X43186383Y27904768D01*
X43158423Y27916767D01*
X43100643Y27928641D01*
X43091496Y27930886D01*
X43034782Y27947113D01*
X43004437Y27949425D01*
X42988902Y27951604D01*
X42959105Y27957727D01*
X42900116Y27957727D01*
X42890705Y27958085D01*
X42831884Y27962564D01*
X42801702Y27958721D01*
X42786043Y27957728D01*
X37533553Y27957729D01*
X37486100Y27967168D01*
X37445872Y27994048D01*
X35983686Y29456234D01*
X35956806Y29496462D01*
X35947368Y29543910D01*
X35947366Y33358998D01*
X35955801Y33403950D01*
X35979959Y33442787D01*
X36297956Y33789690D01*
X36353020Y33824453D01*
X36642612Y33913214D01*
X36650490Y33915346D01*
X37001798Y33998090D01*
X37009790Y33999696D01*
X37090807Y34013205D01*
X37109622Y34014881D01*
X40341319Y34055280D01*
X40403970Y34039190D01*
G37*
%TD.AperFunction*%
%TD*%
%TA.AperFunction,Conductor*%
%TO.N,/PWM_M2B*%
G36*
X39467556Y25271072D02*
G01*
X40190242Y24970748D01*
X40195132Y24966936D01*
X40197388Y24961161D01*
X40196375Y24955043D01*
X39564756Y23585836D01*
X39559713Y23580454D01*
X39552452Y23579158D01*
X39545859Y23582464D01*
X39346851Y23781472D01*
X39344769Y23784299D01*
X38729225Y24954739D01*
X38727908Y24961001D01*
X38730083Y24967018D01*
X38735096Y24970992D01*
X39458585Y25271076D01*
X39463070Y25271968D01*
X39467556Y25271072D01*
G37*
%TD.AperFunction*%
%TD*%
%TA.AperFunction,Conductor*%
%TO.N,+3.3V*%
G36*
X44201606Y13496481D02*
G01*
X44724103Y13139034D01*
X44728167Y13134176D01*
X44729105Y13127912D01*
X44596291Y12075235D01*
X44592421Y12067924D01*
X44584683Y12065000D01*
X43805317Y12065000D01*
X43797579Y12067924D01*
X43793709Y12075235D01*
X43660894Y13127912D01*
X43661832Y13134176D01*
X43665895Y13139033D01*
X44188394Y13496482D01*
X44195000Y13498524D01*
X44201606Y13496481D01*
G37*
%TD.AperFunction*%
%TD*%
%TA.AperFunction,Conductor*%
%TO.N,/PIN3*%
G36*
X27716856Y28331364D02*
G01*
X28486259Y28011688D01*
X28491186Y28007827D01*
X28493419Y28001979D01*
X28492317Y27995817D01*
X27840552Y26638865D01*
X27836235Y26634028D01*
X27830005Y26632231D01*
X27594727Y26632231D01*
X27588497Y26634028D01*
X27584181Y26638864D01*
X26932416Y27995817D01*
X26931314Y28001979D01*
X26933547Y28007827D01*
X26938472Y28011688D01*
X27707878Y28331365D01*
X27712367Y28332259D01*
X27716856Y28331364D01*
G37*
%TD.AperFunction*%
%TD*%
%TA.AperFunction,Conductor*%
%TO.N,+3.3V*%
G36*
X39362387Y4041040D02*
G01*
X39916039Y3487388D01*
X39919323Y3480940D01*
X39918186Y3473794D01*
X39153789Y1976932D01*
X39147419Y1971276D01*
X39138902Y1971439D01*
X38795847Y2113166D01*
X38228784Y2347438D01*
X38224978Y2349979D01*
X38222437Y2353785D01*
X37846437Y3263906D01*
X37846275Y3272420D01*
X37851930Y3278790D01*
X39348795Y4043188D01*
X39355939Y4044324D01*
X39362387Y4041040D01*
G37*
%TD.AperFunction*%
%TD*%
%TA.AperFunction,Conductor*%
%TO.N,/PIN1*%
G36*
X17706021Y21700821D02*
G01*
X18982015Y21119848D01*
X18987006Y21115531D01*
X18988867Y21109200D01*
X18988867Y20824256D01*
X18987006Y20817925D01*
X18982015Y20813608D01*
X17706023Y20232637D01*
X17699920Y20231653D01*
X17694167Y20233916D01*
X17690372Y20238794D01*
X17389731Y20962242D01*
X17388836Y20966729D01*
X17389730Y20971213D01*
X17690373Y21694666D01*
X17694167Y21699541D01*
X17699920Y21701804D01*
X17706021Y21700821D01*
G37*
%TD.AperFunction*%
%TD*%
%TA.AperFunction,Conductor*%
%TO.N,/PIN3*%
G36*
X18436817Y17101517D02*
G01*
X18603393Y16934941D01*
X18606534Y16929239D01*
X18606141Y16922741D01*
X18132096Y15592160D01*
X18128509Y15587052D01*
X18122806Y15584516D01*
X18116610Y15585272D01*
X17392653Y15884166D01*
X17388845Y15886707D01*
X17386304Y15890515D01*
X17062407Y16674835D01*
X17061678Y16681205D01*
X17064418Y16687004D01*
X17069801Y16690487D01*
X18425129Y17104435D01*
X18431376Y17104596D01*
X18436817Y17101517D01*
G37*
%TD.AperFunction*%
%TD*%
%TA.AperFunction,Conductor*%
%TO.N,/PIN9*%
G36*
X31607369Y17121972D02*
G01*
X32945178Y16690617D01*
X32950471Y16687097D01*
X32953141Y16681329D01*
X32952402Y16675016D01*
X32628429Y15890515D01*
X32625888Y15886707D01*
X32622080Y15884166D01*
X31897945Y15585198D01*
X31891810Y15584433D01*
X31886142Y15586900D01*
X31882522Y15591912D01*
X31391070Y16904987D01*
X31390595Y16911566D01*
X31393754Y16917356D01*
X31595510Y17119111D01*
X31601037Y17122210D01*
X31607369Y17121972D01*
G37*
%TD.AperFunction*%
%TD*%
%TA.AperFunction,Conductor*%
%TO.N,+3.3V*%
G36*
X6302241Y2832776D02*
G01*
X6307866Y2828497D01*
X6310000Y2821760D01*
X6310000Y2036962D01*
X6308355Y2030979D01*
X6303882Y2026679D01*
X5442672Y1559166D01*
X5435414Y1557870D01*
X5428822Y1561171D01*
X4564888Y2424119D01*
X4561620Y2430444D01*
X4562622Y2437490D01*
X4977666Y3295541D01*
X4983768Y3301273D01*
X4992137Y3301460D01*
X6302241Y2832776D01*
G37*
%TD.AperFunction*%
%TD*%
%TA.AperFunction,Conductor*%
%TO.N,+3.3V*%
G36*
X37678362Y13519516D02*
G01*
X38199014Y13164086D01*
X38203113Y13159164D01*
X38204007Y13152821D01*
X38105408Y12439707D01*
X38102091Y12433036D01*
X37552694Y11883639D01*
X37545642Y11880276D01*
X37538045Y11882102D01*
X37533293Y11888302D01*
X37200118Y12915717D01*
X37199725Y12921353D01*
X37202020Y12926516D01*
X37662541Y13517050D01*
X37669962Y13521413D01*
X37678362Y13519516D01*
G37*
%TD.AperFunction*%
%TD*%
%TA.AperFunction,Conductor*%
%TO.N,Net-(M1-Pin_2)*%
G36*
X8435333Y34094366D02*
G01*
X8480743Y34048977D01*
X8497365Y33986961D01*
X8497367Y32533592D01*
X8487928Y32486139D01*
X8461048Y32445911D01*
X5634189Y29619049D01*
X5593961Y29592169D01*
X5546508Y29582730D01*
X3294854Y29582730D01*
X3278669Y29583791D01*
X3247365Y29587913D01*
X3108840Y29569676D01*
X3090603Y29567274D01*
X3064108Y29556300D01*
X2992383Y29526591D01*
X2945727Y29517156D01*
X1532247Y29508095D01*
X1467147Y29526069D01*
X1421122Y29575494D01*
X1407825Y29641707D01*
X1569049Y31714559D01*
X1578953Y31754369D01*
X1601303Y31788766D01*
X3693264Y34068767D01*
X3734695Y34098431D01*
X3784561Y34108926D01*
X8373314Y34110960D01*
X8435333Y34094366D01*
G37*
%TD.AperFunction*%
%TD*%
%TA.AperFunction,Conductor*%
%TO.N,/PWM_M2B*%
G36*
X38749581Y23173947D02*
G01*
X38948946Y22974582D01*
X38952277Y22967804D01*
X38950773Y22960404D01*
X38707298Y22543977D01*
X38700946Y22538798D01*
X38692754Y22539059D01*
X38428815Y22647437D01*
X38424986Y22649987D01*
X38422436Y22653816D01*
X38314058Y22917755D01*
X38313797Y22925947D01*
X38318974Y22932298D01*
X38735407Y23175775D01*
X38742803Y23177278D01*
X38749581Y23173947D01*
G37*
%TD.AperFunction*%
%TD*%
%TA.AperFunction,Conductor*%
%TO.N,+3.3V*%
G36*
X41342421Y20707076D02*
G01*
X41346291Y20699765D01*
X41479105Y19647089D01*
X41478167Y19640825D01*
X41474103Y19635967D01*
X40951605Y19278520D01*
X40944999Y19276477D01*
X40938393Y19278520D01*
X40415896Y19635967D01*
X40411832Y19640825D01*
X40410894Y19647089D01*
X40543709Y20699765D01*
X40547579Y20707076D01*
X40555317Y20710000D01*
X41334683Y20710000D01*
X41342421Y20707076D01*
G37*
%TD.AperFunction*%
%TD*%
%TA.AperFunction,Conductor*%
%TO.N,/PIN1*%
G36*
X25178605Y28327393D02*
G01*
X25765952Y27738662D01*
X25769354Y27730986D01*
X25766738Y27723007D01*
X24922360Y26687085D01*
X24917077Y26683406D01*
X24910647Y26683080D01*
X24905018Y26686204D01*
X24704204Y26887018D01*
X24701216Y26892118D01*
X24389886Y27996952D01*
X24390619Y28005228D01*
X24396662Y28010928D01*
X25165840Y28329938D01*
X25172609Y28330604D01*
X25178605Y28327393D01*
G37*
%TD.AperFunction*%
%TD*%
%TA.AperFunction,Conductor*%
%TO.N,/PWM_M1A*%
G36*
X31607368Y12041972D02*
G01*
X32280339Y11824983D01*
X32945177Y11610617D01*
X32950470Y11607097D01*
X32953140Y11601329D01*
X32952401Y11595016D01*
X32628429Y10810515D01*
X32625888Y10806707D01*
X32622080Y10804166D01*
X31897945Y10505198D01*
X31891810Y10504433D01*
X31886142Y10506900D01*
X31882522Y10511912D01*
X31770762Y10810515D01*
X31391069Y11824986D01*
X31390594Y11831565D01*
X31393753Y11837355D01*
X31595509Y12039111D01*
X31601036Y12042210D01*
X31607368Y12041972D01*
G37*
%TD.AperFunction*%
%TD*%
%TA.AperFunction,Conductor*%
%TO.N,Net-(M2-Pin_1)*%
G36*
X45612270Y34057230D02*
G01*
X45677252Y34038837D01*
X48841329Y32091712D01*
X48883248Y32048931D01*
X48900224Y31991492D01*
X48991738Y29886615D01*
X48976993Y29822365D01*
X48931404Y29774751D01*
X48867855Y29757229D01*
X44779535Y29757234D01*
X44719255Y29772872D01*
X41036085Y31821783D01*
X40989477Y31867290D01*
X40972367Y31930141D01*
X40972367Y33933232D01*
X40988980Y33995231D01*
X41034367Y34040618D01*
X41096366Y34057231D01*
X45612270Y34057230D01*
G37*
%TD.AperFunction*%
%TD*%
%TA.AperFunction,Conductor*%
%TO.N,/PWM_M2B*%
G36*
X34928339Y14664350D02*
G01*
X34933341Y14661389D01*
X35135544Y14459186D01*
X35138718Y14453332D01*
X35138184Y14446695D01*
X34790144Y13546292D01*
X34786271Y13541165D01*
X34780274Y13538857D01*
X32633733Y13346789D01*
X32626624Y13348437D01*
X32621875Y13353977D01*
X32542475Y13546292D01*
X32325030Y14072969D01*
X32324356Y14079639D01*
X32327453Y14085585D01*
X32333303Y14088853D01*
X34922529Y14664537D01*
X34928339Y14664350D01*
G37*
%TD.AperFunction*%
%TD*%
%TA.AperFunction,Conductor*%
%TO.N,/PIN0*%
G36*
X17537670Y25104867D02*
G01*
X17541987Y25099876D01*
X18122958Y23823885D01*
X18123942Y23817782D01*
X18121679Y23812029D01*
X18116800Y23808233D01*
X17396100Y23508734D01*
X17389330Y23508062D01*
X17383332Y23511270D01*
X16596319Y24299267D01*
X16592912Y24306936D01*
X16595515Y24314911D01*
X17235356Y25102407D01*
X17239408Y25105592D01*
X17244436Y25106728D01*
X17531339Y25106728D01*
X17537670Y25104867D01*
G37*
%TD.AperFunction*%
%TD*%
%TA.AperFunction,Conductor*%
%TO.N,/PIN4*%
G36*
X30256856Y28331364D02*
G01*
X31026259Y28011688D01*
X31031186Y28007827D01*
X31033419Y28001979D01*
X31032317Y27995817D01*
X30380552Y26638865D01*
X30376235Y26634028D01*
X30370005Y26632231D01*
X30134727Y26632231D01*
X30128497Y26634028D01*
X30124181Y26638864D01*
X29472416Y27995817D01*
X29471314Y28001979D01*
X29473547Y28007827D01*
X29478472Y28011688D01*
X30247878Y28331365D01*
X30252367Y28332259D01*
X30256856Y28331364D01*
G37*
%TD.AperFunction*%
%TD*%
%TA.AperFunction,Conductor*%
%TO.N,/PWM_M2A*%
G36*
X23197461Y23777602D02*
G01*
X23399029Y23577374D01*
X23401606Y23573517D01*
X23509993Y23309554D01*
X23510720Y23303241D01*
X23508039Y23297479D01*
X23502742Y23293969D01*
X23020854Y23139460D01*
X23014529Y23139230D01*
X23009009Y23142328D01*
X22844413Y23306924D01*
X22841018Y23314334D01*
X22843285Y23322161D01*
X23179817Y23776269D01*
X23185079Y23780246D01*
X23191658Y23780743D01*
X23197461Y23777602D01*
G37*
%TD.AperFunction*%
%TD*%
%TA.AperFunction,Conductor*%
%TO.N,/SUCC*%
G36*
X775948Y10000637D02*
G01*
X1546216Y9682562D01*
X1550021Y9680022D01*
X1552562Y9676215D01*
X1870636Y8905949D01*
X1871399Y8899792D01*
X1868907Y8894111D01*
X1863861Y8890502D01*
X461006Y8374436D01*
X454454Y8373990D01*
X448694Y8377144D01*
X247143Y8578695D01*
X243989Y8584455D01*
X244434Y8591004D01*
X760501Y9993863D01*
X764110Y9998908D01*
X769791Y10001400D01*
X775948Y10000637D01*
G37*
%TD.AperFunction*%
%TD*%
%TA.AperFunction,Conductor*%
%TO.N,+3.3V*%
G36*
X43601205Y4043188D02*
G01*
X43605410Y4041040D01*
X45098068Y3278790D01*
X45103724Y3272420D01*
X45103561Y3263903D01*
X44727562Y2353785D01*
X44725021Y2349979D01*
X44721215Y2347438D01*
X43811097Y1971439D01*
X43802580Y1971276D01*
X43796210Y1976932D01*
X43606058Y2349293D01*
X43031812Y3473795D01*
X43030676Y3480940D01*
X43033958Y3487386D01*
X43587614Y4041042D01*
X43594060Y4044324D01*
X43601205Y4043188D01*
G37*
%TD.AperFunction*%
%TD*%
%TA.AperFunction,Conductor*%
%TO.N,/BATT*%
G36*
X43701627Y26681887D02*
G01*
X44698126Y26099259D01*
X44839711Y26016478D01*
X44844893Y26010115D01*
X44844621Y26001913D01*
X44544926Y25276017D01*
X44542384Y25272209D01*
X44538576Y25269667D01*
X43812680Y24969972D01*
X43804478Y24969700D01*
X43798115Y24974882D01*
X43197636Y26001913D01*
X43132707Y26112965D01*
X43131204Y26120362D01*
X43134534Y26127139D01*
X43687454Y26680060D01*
X43694230Y26683390D01*
X43701627Y26681887D01*
G37*
%TD.AperFunction*%
%TD*%
%TA.AperFunction,Conductor*%
%TO.N,Net-(M1-Pin_1)*%
G36*
X11461550Y34111707D02*
G01*
X12225542Y34096237D01*
X12235300Y34095654D01*
X12592359Y34060142D01*
X12600471Y34059063D01*
X12956491Y33999698D01*
X12964477Y33998093D01*
X13315777Y33915350D01*
X13323682Y33913210D01*
X13412920Y33885859D01*
X13455964Y33862565D01*
X13777750Y33594409D01*
X13810658Y33551747D01*
X13822365Y33499152D01*
X13822365Y30760451D01*
X13815148Y30718764D01*
X13794337Y30681932D01*
X13586873Y30428364D01*
X13347879Y30136261D01*
X13344126Y30130701D01*
X13329037Y30112406D01*
X12015626Y28798993D01*
X12000834Y28786358D01*
X11989489Y28778116D01*
X11944106Y28727713D01*
X11939638Y28723005D01*
X10875629Y27658996D01*
X10860837Y27646362D01*
X10849495Y27638121D01*
X10804116Y27587723D01*
X10799653Y27583019D01*
X10785239Y27568605D01*
X10772423Y27552780D01*
X10768217Y27547855D01*
X10722831Y27497447D01*
X10715823Y27485309D01*
X10704807Y27469281D01*
X10695984Y27458386D01*
X10665183Y27397936D01*
X10662087Y27392235D01*
X10628187Y27333518D01*
X10623853Y27320179D01*
X10616409Y27302209D01*
X10610045Y27289719D01*
X10592491Y27224214D01*
X10590649Y27217997D01*
X10569690Y27153488D01*
X10568225Y27139545D01*
X10564680Y27120417D01*
X10561051Y27106876D01*
X10560332Y27093148D01*
X10538834Y27029610D01*
X10487393Y26986564D01*
X10434849Y26978676D01*
X10434867Y26975951D01*
X8573817Y26963655D01*
X8456213Y26948986D01*
X8400173Y26935179D01*
X8289223Y26893537D01*
X8191018Y26827212D01*
X8147293Y26789515D01*
X8067228Y26702149D01*
X8055538Y26681094D01*
X8019381Y26640514D01*
X7969343Y26619296D01*
X7915037Y26621515D01*
X7742056Y26667865D01*
X7515365Y26687698D01*
X7288675Y26667865D01*
X7068867Y26608968D01*
X6982832Y26568848D01*
X6930427Y26557230D01*
X6150866Y26557230D01*
X6111707Y26563576D01*
X6076556Y26581963D01*
X6017698Y26626024D01*
X6017696Y26626025D01*
X5882848Y26676320D01*
X5823238Y26682729D01*
X5823234Y26682729D01*
X4127487Y26682729D01*
X4124015Y26682355D01*
X4121132Y26682729D01*
X4120847Y26682728D01*
X4120847Y26682765D01*
X4066589Y26689785D01*
X4018798Y26722480D01*
X3998045Y26745431D01*
X3889426Y26836044D01*
X3759956Y26893013D01*
X3693799Y26911618D01*
X3553614Y26930482D01*
X3261789Y26928553D01*
X3206660Y26922095D01*
X3151537Y26915636D01*
X3151534Y26915636D01*
X3151531Y26915635D01*
X3098798Y26903476D01*
X2994021Y26866805D01*
X2899778Y26808153D01*
X2857240Y26774678D01*
X2819278Y26737370D01*
X2810723Y26729708D01*
X2724938Y26659759D01*
X2703989Y26645953D01*
X2637110Y26611018D01*
X2613809Y26601710D01*
X2537395Y26579846D01*
X2514268Y26575549D01*
X2491141Y26573493D01*
X2482454Y26572720D01*
X2471474Y26572233D01*
X1361973Y26572233D01*
X1296366Y26591011D01*
X1250629Y26641657D01*
X1238615Y26708832D01*
X1263962Y26772192D01*
X1265889Y26774678D01*
X2642579Y28551054D01*
X2652894Y28562759D01*
X3111962Y29021824D01*
X3163458Y29052745D01*
X3185825Y29059568D01*
X3207484Y29068540D01*
X3238768Y29076920D01*
X3241786Y29077317D01*
X3261984Y29078307D01*
X3294854Y29077230D01*
X5546508Y29077230D01*
X5645126Y29086943D01*
X5679865Y29093853D01*
X5692580Y29096382D01*
X5787407Y29125148D01*
X5787407Y29125149D01*
X5787410Y29125149D01*
X5874805Y29171864D01*
X5915033Y29198744D01*
X5991632Y29261607D01*
X8818491Y32088469D01*
X8881353Y32165067D01*
X8908233Y32205295D01*
X8954948Y32292690D01*
X8983715Y32387521D01*
X8993154Y32434974D01*
X9002867Y32533593D01*
X9002865Y33986962D01*
X9002865Y33987295D01*
X9019469Y34049279D01*
X9064833Y34094664D01*
X9126806Y34111295D01*
X10112490Y34111731D01*
X11459041Y34111731D01*
X11461550Y34111707D01*
G37*
%TD.AperFunction*%
%TD*%
%TA.AperFunction,Conductor*%
%TO.N,+3.3V*%
G36*
X5280048Y3024764D02*
G01*
X6307098Y1853310D01*
X6310000Y1845597D01*
X6310000Y1060792D01*
X6306900Y1052860D01*
X6299244Y1049130D01*
X5376639Y974471D01*
X5370177Y975816D01*
X5365471Y980445D01*
X4563677Y2421593D01*
X4562391Y2429382D01*
X4566344Y2436212D01*
X5263696Y3025985D01*
X5272121Y3028719D01*
X5280048Y3024764D01*
G37*
%TD.AperFunction*%
%TD*%
%TA.AperFunction,Conductor*%
%TO.N,/PIN9*%
G36*
X32796856Y28331365D02*
G01*
X33566428Y28011618D01*
X33571321Y28007804D01*
X33573576Y28002025D01*
X33572560Y27995905D01*
X32945506Y26639022D01*
X32941188Y26634073D01*
X32934885Y26632230D01*
X32649849Y26632230D01*
X32643546Y26634073D01*
X32639228Y26639022D01*
X32012173Y27995905D01*
X32011157Y28002025D01*
X32013412Y28007804D01*
X32018303Y28011617D01*
X32787878Y28331366D01*
X32792367Y28332260D01*
X32796856Y28331365D01*
G37*
%TD.AperFunction*%
%TD*%
%TA.AperFunction,Conductor*%
%TO.N,+3.3V*%
G36*
X40951606Y19271481D02*
G01*
X41474103Y18914034D01*
X41478167Y18909176D01*
X41479105Y18902912D01*
X41346291Y17850235D01*
X41342421Y17842924D01*
X41334683Y17840000D01*
X40555317Y17840000D01*
X40547579Y17842924D01*
X40543709Y17850235D01*
X40410894Y18902912D01*
X40411832Y18909176D01*
X40415895Y18914033D01*
X40938394Y19271482D01*
X40945000Y19273524D01*
X40951606Y19271481D01*
G37*
%TD.AperFunction*%
%TD*%
%TA.AperFunction,Conductor*%
%TO.N,/SUCC*%
G36*
X31607367Y6961971D02*
G01*
X32945177Y6530617D01*
X32950470Y6527097D01*
X32953140Y6521329D01*
X32952401Y6515016D01*
X32628429Y5730515D01*
X32625888Y5726707D01*
X32622080Y5724166D01*
X31897945Y5425198D01*
X31891810Y5424433D01*
X31886142Y5426900D01*
X31882522Y5431912D01*
X31770762Y5730515D01*
X31391068Y6744985D01*
X31390593Y6751564D01*
X31393752Y6757354D01*
X31595508Y6959110D01*
X31601035Y6962209D01*
X31607367Y6961971D01*
G37*
%TD.AperFunction*%
%TD*%
%TA.AperFunction,Conductor*%
%TO.N,/PWM_M1A*%
G36*
X29326873Y19874116D02*
G01*
X29573027Y19771269D01*
X29590143Y19764117D01*
X29596119Y19758508D01*
X29596950Y19750355D01*
X29474654Y19283735D01*
X29470484Y19277438D01*
X29463336Y19275001D01*
X29181394Y19275001D01*
X29174246Y19277438D01*
X29170077Y19283733D01*
X29047780Y19750355D01*
X29048612Y19758508D01*
X29054587Y19764117D01*
X29317858Y19874116D01*
X29322366Y19875019D01*
X29326873Y19874116D01*
G37*
%TD.AperFunction*%
%TD*%
%TA.AperFunction,Conductor*%
%TO.N,/BATT*%
G36*
X14377951Y30576680D02*
G01*
X14723070Y30232939D01*
X14723103Y30232906D01*
X15066810Y29887821D01*
X15069919Y29882200D01*
X15069593Y29875785D01*
X15065929Y29870509D01*
X14306294Y29248989D01*
X14298302Y29246359D01*
X14290612Y29249771D01*
X13739901Y29800482D01*
X13736489Y29808172D01*
X13739118Y29816163D01*
X14360640Y30575801D01*
X14365915Y30579463D01*
X14372330Y30579789D01*
X14377951Y30576680D01*
G37*
%TD.AperFunction*%
%TD*%
%TA.AperFunction,Conductor*%
%TO.N,/PWM_M2A*%
G36*
X18686960Y19168477D02*
G01*
X18694707Y19165062D01*
X18860830Y18998939D01*
X18864241Y18991284D01*
X18861656Y18983311D01*
X17962717Y17871145D01*
X17957438Y17867441D01*
X17950999Y17867097D01*
X17945355Y17870217D01*
X17391601Y18422589D01*
X17389055Y18426393D01*
X17388164Y18430882D01*
X17388813Y19165062D01*
X17388856Y19214503D01*
X17390516Y19220499D01*
X17395015Y19224796D01*
X17401080Y19226180D01*
X18686960Y19168477D01*
G37*
%TD.AperFunction*%
%TD*%
%TA.AperFunction,Conductor*%
%TO.N,/PIN0*%
G36*
X21856535Y28653603D02*
G01*
X22526078Y28377120D01*
X22625833Y28335927D01*
X22631094Y28331614D01*
X22633067Y28325103D01*
X22632375Y27492064D01*
X22629625Y27484538D01*
X22622678Y27480547D01*
X21382062Y27264988D01*
X21376527Y27265361D01*
X21371786Y27268242D01*
X21170300Y27469728D01*
X21166973Y27476478D01*
X21168443Y27483855D01*
X21841943Y28648646D01*
X21848308Y28653866D01*
X21856535Y28653603D01*
G37*
%TD.AperFunction*%
%TD*%
%TA.AperFunction,Conductor*%
%TO.N,/PWM_M2B*%
G36*
X37404507Y20074117D02*
G01*
X37641497Y19975098D01*
X37667777Y19964117D01*
X37673753Y19958508D01*
X37674584Y19950355D01*
X37552289Y19483734D01*
X37548119Y19477437D01*
X37540971Y19475000D01*
X37259029Y19475000D01*
X37251881Y19477437D01*
X37247711Y19483734D01*
X37125415Y19950355D01*
X37126246Y19958508D01*
X37132221Y19964117D01*
X37395492Y20074117D01*
X37400000Y20075020D01*
X37404507Y20074117D01*
G37*
%TD.AperFunction*%
%TD*%
%TA.AperFunction,Conductor*%
%TO.N,+3.3V*%
G36*
X48173001Y10136760D02*
G01*
X48178697Y10130723D01*
X48499134Y9359489D01*
X48500029Y9355000D01*
X48499134Y9350511D01*
X48178697Y8579278D01*
X48173001Y8573241D01*
X48164734Y8572501D01*
X46808542Y8952606D01*
X46802377Y8956803D01*
X46800000Y8963872D01*
X46800000Y9746128D01*
X46802377Y9753197D01*
X46808542Y9757394D01*
X47022789Y9817443D01*
X48164735Y10137500D01*
X48173001Y10136760D01*
G37*
%TD.AperFunction*%
%TD*%
%TA.AperFunction,Conductor*%
%TO.N,/BATT*%
G36*
X14386628Y26483572D02*
G01*
X14431964Y26438641D01*
X14448943Y26377113D01*
X14462145Y24905180D01*
X14466555Y24413486D01*
X14480506Y24305643D01*
X14482040Y24293783D01*
X14492672Y24251852D01*
X14496489Y24236796D01*
X14539907Y24124182D01*
X14603642Y24032470D01*
X14608783Y24025072D01*
X14647857Y23981144D01*
X14688796Y23944937D01*
X14725381Y23887802D01*
X14726420Y23819962D01*
X14703231Y23733419D01*
X14683398Y23506728D01*
X14703231Y23280037D01*
X14733530Y23166959D01*
X14732697Y23099813D01*
X14696982Y23042946D01*
X14659106Y23008652D01*
X14620304Y22963914D01*
X14552260Y22863134D01*
X14510251Y22749019D01*
X14496627Y22691396D01*
X14490785Y22639268D01*
X14483084Y22570549D01*
X14489114Y21898232D01*
X14490307Y21889012D01*
X14504597Y21778532D01*
X14519043Y21721553D01*
X14562460Y21608939D01*
X14562461Y21608937D01*
X14582597Y21579961D01*
X14604461Y21517938D01*
X14591533Y21453457D01*
X14547451Y21404656D01*
X14484612Y21385260D01*
X14470957Y21384837D01*
X14338665Y21342991D01*
X14277777Y21314026D01*
X14161835Y21237778D01*
X12756197Y20006393D01*
X12675101Y19915943D01*
X12641184Y19867462D01*
X12584013Y19760283D01*
X12554063Y19642569D01*
X12554062Y19642563D01*
X12554062Y19642562D01*
X12546469Y19583889D01*
X12545468Y19462412D01*
X12545468Y19462408D01*
X12545407Y19454936D01*
X12545302Y19454937D01*
X12545301Y19436121D01*
X12540986Y19397825D01*
X12534808Y19370756D01*
X12522081Y19334383D01*
X12510032Y19309364D01*
X12489529Y19276734D01*
X12472217Y19255025D01*
X12444975Y19227783D01*
X12423266Y19210471D01*
X12390636Y19189968D01*
X12365617Y19177919D01*
X12329244Y19165192D01*
X12302175Y19159014D01*
X12221947Y19149974D01*
X12211542Y19149243D01*
X12128714Y19146919D01*
X12061025Y19135418D01*
X11926370Y19092501D01*
X11808857Y19013981D01*
X11757669Y18968237D01*
X11666484Y18860253D01*
X11608763Y18731255D01*
X11589754Y18665276D01*
X11570000Y18525344D01*
X11570000Y16845615D01*
X11571556Y16805991D01*
X11571602Y16805408D01*
X11571613Y16804542D01*
X11571652Y16803555D01*
X11571626Y16803554D01*
X11571811Y16789240D01*
X11570863Y16771118D01*
X11570862Y16771084D01*
X11570342Y16757876D01*
X11570172Y16751410D01*
X11570143Y16749174D01*
X11569634Y16739463D01*
X11569439Y16737341D01*
X11568927Y16730846D01*
X11568055Y16717557D01*
X11567590Y16708688D01*
X11561694Y16676878D01*
X11558962Y16668470D01*
X11554994Y16655690D01*
X11553184Y16649575D01*
X11549583Y16636804D01*
X11544903Y16619339D01*
X11540303Y16605782D01*
X11540328Y16605772D01*
X11539980Y16604830D01*
X11539705Y16604018D01*
X11539484Y16603485D01*
X11525735Y16566213D01*
X11522894Y16557466D01*
X11519523Y16548329D01*
X11503340Y16509258D01*
X11486726Y16447256D01*
X11469500Y16316416D01*
X11469500Y15826046D01*
X11460679Y15780112D01*
X11435469Y15740716D01*
X9512933Y13713693D01*
X5831604Y9832294D01*
X5780378Y9768699D01*
X5757925Y9735685D01*
X5717620Y9664698D01*
X5689266Y9588147D01*
X5678472Y9549726D01*
X5668825Y9500384D01*
X5664171Y9483225D01*
X5647081Y9434383D01*
X5635032Y9409364D01*
X5614529Y9376734D01*
X5597217Y9355025D01*
X5569975Y9327783D01*
X5548266Y9310471D01*
X5515636Y9289968D01*
X5490618Y9277919D01*
X5396117Y9244852D01*
X5390284Y9242972D01*
X5371486Y9237421D01*
X5289307Y9205115D01*
X5214009Y9159006D01*
X5179316Y9133343D01*
X5113168Y9074812D01*
X4557332Y8488768D01*
X4506111Y8425181D01*
X4483658Y8392166D01*
X4443354Y8321184D01*
X4443353Y8321180D01*
X4414997Y8244626D01*
X4404415Y8206961D01*
X4404199Y8206193D01*
X4392609Y8146908D01*
X4387955Y8129747D01*
X4372083Y8084386D01*
X4360034Y8059366D01*
X4339529Y8026733D01*
X4322217Y8005025D01*
X4294975Y7977783D01*
X4273266Y7960471D01*
X4240636Y7939968D01*
X4215617Y7927919D01*
X4141368Y7901939D01*
X4135534Y7900058D01*
X4090408Y7886732D01*
X4008237Y7854427D01*
X3932943Y7808319D01*
X3898265Y7782667D01*
X3832104Y7724126D01*
X3488924Y7362296D01*
X3424156Y7277689D01*
X3397087Y7233316D01*
X3351490Y7137009D01*
X3312080Y7024379D01*
X3300031Y6999361D01*
X3294146Y6989993D01*
X3279530Y6966733D01*
X3262218Y6945026D01*
X3234974Y6917782D01*
X3213264Y6900469D01*
X3180638Y6879969D01*
X3155624Y6867922D01*
X3096585Y6847263D01*
X2988953Y6794548D01*
X2939952Y6762846D01*
X2847766Y6686291D01*
X2594414Y6419168D01*
X2553409Y6390576D01*
X2504445Y6380500D01*
X2060245Y6380500D01*
X1950837Y6368519D01*
X1914317Y6360422D01*
X1903663Y6358544D01*
X1901246Y6358226D01*
X1893308Y6357181D01*
X1707769Y6307467D01*
X1686484Y6303714D01*
X1560807Y6292718D01*
X1539191Y6292718D01*
X1413514Y6303714D01*
X1392230Y6307467D01*
X1285168Y6336153D01*
X1170872Y6353107D01*
X1157004Y6353561D01*
X1118185Y6354832D01*
X1057914Y6372756D01*
X1014185Y6417940D01*
X998242Y6478765D01*
X998242Y7946942D01*
X1008327Y7995925D01*
X1036942Y8036941D01*
X1079431Y8063317D01*
X1100844Y8071194D01*
X1999439Y8401760D01*
X2010150Y8405157D01*
X2013663Y8406097D01*
X2018027Y8408133D01*
X2027619Y8412126D01*
X2038384Y8416085D01*
X2060192Y8427626D01*
X2065645Y8430338D01*
X2227830Y8505965D01*
X2421401Y8641505D01*
X2588495Y8808599D01*
X2724035Y9002170D01*
X2823903Y9216337D01*
X2885063Y9444592D01*
X2886490Y9460912D01*
X2898048Y9503382D01*
X2923710Y9539135D01*
X3425000Y10025000D01*
X3425000Y15868418D01*
X3434582Y15916214D01*
X3587168Y16281492D01*
X3587168Y16281495D01*
X3587172Y16281502D01*
X3609524Y16347457D01*
X3618216Y16380420D01*
X3631294Y16448841D01*
X3727329Y17245912D01*
X3730942Y17310483D01*
X3730685Y17342146D01*
X3730685Y17342155D01*
X3726025Y17406637D01*
X3726024Y17406651D01*
X3630019Y18107464D01*
X3619651Y18161272D01*
X3613152Y18187310D01*
X3597030Y18239649D01*
X3555551Y18352233D01*
X3432646Y18685832D01*
X3425000Y18728700D01*
X3425000Y18845500D01*
X3441613Y18907500D01*
X3487000Y18952887D01*
X3549000Y18969500D01*
X3883016Y18969500D01*
X3883019Y18969500D01*
X3979008Y18978697D01*
X4025242Y18987639D01*
X4117732Y19014894D01*
X4294533Y19085940D01*
X4314623Y19092092D01*
X4438794Y19118854D01*
X4459634Y19121522D01*
X4586507Y19126911D01*
X4607518Y19126019D01*
X4656981Y19119686D01*
X4733489Y19109889D01*
X4754043Y19105459D01*
X4875468Y19068274D01*
X4894975Y19060435D01*
X4941644Y19036904D01*
X5052262Y18996494D01*
X5108087Y18983217D01*
X5225049Y18969500D01*
X7199166Y18969500D01*
X7199167Y18969500D01*
X7296886Y18979035D01*
X7343920Y18988302D01*
X7437941Y19016543D01*
X7524730Y19062424D01*
X7564735Y19088838D01*
X7641030Y19150639D01*
X9189788Y20676953D01*
X9225296Y20723244D01*
X9274653Y20787588D01*
X9308084Y20846526D01*
X9359491Y20976127D01*
X9373538Y21114847D01*
X9372237Y21149576D01*
X9371002Y21182553D01*
X9346614Y21319843D01*
X9339092Y21342990D01*
X9338317Y21345377D01*
X9334442Y21360465D01*
X9333778Y21363946D01*
X9292682Y21579385D01*
X9290734Y21594807D01*
X9276740Y21817229D01*
X9276740Y21832773D01*
X9290734Y22055198D01*
X9292682Y22070616D01*
X9334445Y22289549D01*
X9338311Y22304606D01*
X9407182Y22516568D01*
X9412911Y22531035D01*
X9507794Y22732671D01*
X9515295Y22746316D01*
X9634705Y22934477D01*
X9643848Y22947061D01*
X9785902Y23118777D01*
X9796555Y23130120D01*
X9959020Y23282686D01*
X9970992Y23292589D01*
X10151293Y23423585D01*
X10164423Y23431918D01*
X10359718Y23539282D01*
X10373799Y23545909D01*
X10418506Y23563608D01*
X10516558Y23615524D01*
X10561301Y23645932D01*
X10645657Y23717980D01*
X10663088Y23741197D01*
X10693236Y23769764D01*
X10731124Y23786774D01*
X10975000Y23850000D01*
X11275000Y24575000D01*
X11275000Y24893008D01*
X11281998Y24924530D01*
X11279296Y24925254D01*
X11296394Y24989066D01*
X11341000Y25155537D01*
X11360833Y25382229D01*
X11360678Y25383995D01*
X11354221Y25457794D01*
X11341000Y25608921D01*
X11282104Y25828725D01*
X11282103Y25828726D01*
X11279296Y25839204D01*
X11281998Y25839929D01*
X11275000Y25871450D01*
X11275000Y26376000D01*
X11291613Y26438000D01*
X11337000Y26483387D01*
X11399000Y26500000D01*
X14324949Y26500000D01*
X14386628Y26483572D01*
G37*
%TD.AperFunction*%
%TD*%
%TA.AperFunction,Conductor*%
%TO.N,GND*%
G36*
X10492391Y26454070D02*
G01*
X10538115Y26408647D01*
X10554865Y26346411D01*
X10554865Y24579728D01*
X10545427Y24532278D01*
X10518551Y24492052D01*
X10504879Y24478379D01*
X10492058Y24462549D01*
X10487852Y24457624D01*
X10442466Y24407216D01*
X10435458Y24395078D01*
X10424442Y24379050D01*
X10415619Y24368155D01*
X10384818Y24307705D01*
X10381722Y24302004D01*
X10347822Y24243287D01*
X10343488Y24229948D01*
X10336044Y24211978D01*
X10329679Y24199487D01*
X10312127Y24133985D01*
X10310284Y24127762D01*
X10304702Y24110583D01*
X10277163Y24064018D01*
X10232420Y24033610D01*
X10150892Y24001331D01*
X9886204Y23855817D01*
X9641839Y23678277D01*
X9421650Y23471504D01*
X9229114Y23238767D01*
X9067268Y22983740D01*
X8938658Y22710429D01*
X8845319Y22423164D01*
X8788719Y22126453D01*
X8769753Y21825001D01*
X8788719Y21523548D01*
X8845319Y21226837D01*
X8865856Y21163632D01*
X8868392Y21095927D01*
X8834964Y21036995D01*
X7711643Y19929953D01*
X7295638Y19519976D01*
X7286206Y19510681D01*
X7246201Y19484267D01*
X7199167Y19475000D01*
X5225049Y19475000D01*
X5169224Y19488277D01*
X5074719Y19535926D01*
X4850837Y19604489D01*
X4618589Y19634229D01*
X4618585Y19634229D01*
X4384658Y19624293D01*
X4270688Y19599730D01*
X4155766Y19574962D01*
X4155765Y19574962D01*
X4155762Y19574961D01*
X3929253Y19483942D01*
X3883019Y19475000D01*
X3275000Y19475000D01*
X3242168Y19474113D01*
X3059721Y19469183D01*
X3001728Y19481827D01*
X2956256Y19519976D01*
X2695682Y19876551D01*
X2650684Y19929953D01*
X2626906Y19954506D01*
X2626904Y19954508D01*
X2574978Y20001195D01*
X1962182Y20479945D01*
X1904279Y20519054D01*
X1904274Y20519057D01*
X1874683Y20536192D01*
X1811930Y20566947D01*
X989820Y20901525D01*
X898702Y20928937D01*
X898699Y20928938D01*
X898698Y20928938D01*
X853137Y20938078D01*
X853134Y20938079D01*
X853126Y20938080D01*
X758506Y20947931D01*
X303646Y20952246D01*
X242134Y20969253D01*
X197228Y21014600D01*
X180822Y21076272D01*
X182165Y25949139D01*
X200669Y26014270D01*
X250629Y26059972D01*
X317143Y26072617D01*
X383329Y26066732D01*
X2499402Y26066733D01*
X2618784Y26077346D01*
X2814415Y26133323D01*
X2994773Y26227534D01*
X3152475Y26356123D01*
X3169845Y26377427D01*
X3212383Y26410901D01*
X3265124Y26423063D01*
X3556955Y26424992D01*
X3623102Y26406390D01*
X3669189Y26355422D01*
X3681061Y26287741D01*
X3676627Y26246485D01*
X3674865Y26230099D01*
X3674865Y24534360D01*
X3680883Y24478380D01*
X3681274Y24474746D01*
X3731569Y24339898D01*
X3817819Y24224683D01*
X3933034Y24138433D01*
X4067882Y24088138D01*
X4127492Y24081729D01*
X5823237Y24081730D01*
X5882848Y24088138D01*
X6017696Y24138433D01*
X6132911Y24224683D01*
X6219161Y24339898D01*
X6269456Y24474746D01*
X6273227Y24509824D01*
X6293604Y24565743D01*
X6337693Y24605728D01*
X6395334Y24620562D01*
X6453247Y24606829D01*
X6498090Y24567692D01*
X6515316Y24543091D01*
X6676224Y24382183D01*
X6862629Y24251662D01*
X6862630Y24251662D01*
X6862631Y24251661D01*
X7068869Y24155490D01*
X7288673Y24096594D01*
X7515365Y24076761D01*
X7742057Y24096594D01*
X7961861Y24155490D01*
X8168099Y24251661D01*
X8354504Y24382182D01*
X8515412Y24543090D01*
X8645933Y24729495D01*
X8742104Y24935733D01*
X8801000Y25155537D01*
X8820833Y25382229D01*
X8801000Y25608921D01*
X8742104Y25828725D01*
X8645933Y26034963D01*
X8628422Y26059972D01*
X8515414Y26221366D01*
X8506678Y26230102D01*
X8490292Y26246488D01*
X8460094Y26295693D01*
X8455450Y26353241D01*
X8477367Y26406654D01*
X8521096Y26444354D01*
X8577151Y26458165D01*
X10430046Y26470408D01*
X10492391Y26454070D01*
G37*
%TD.AperFunction*%
%TD*%
%TA.AperFunction,Conductor*%
%TO.N,/AUX_GND*%
G36*
X753710Y20442453D02*
G01*
X799271Y20433313D01*
X1621376Y20098738D01*
X1650973Y20081600D01*
X2263769Y19602850D01*
X2287545Y19578298D01*
X2837125Y18826240D01*
X2853362Y18795946D01*
X3122698Y18064894D01*
X3129197Y18038856D01*
X3225202Y17338043D01*
X3225459Y17306380D01*
X3129424Y16509309D01*
X3120732Y16476346D01*
X2803372Y15716614D01*
X2787982Y15689781D01*
X2287757Y15026015D01*
X2263607Y15001804D01*
X1630236Y14521982D01*
X1602424Y14506101D01*
X856580Y14200109D01*
X816628Y14191034D01*
X314756Y14162193D01*
X249795Y14176309D01*
X201460Y14221947D01*
X183642Y14285988D01*
X183643Y14331656D01*
X183642Y14331657D01*
X183641Y15345381D01*
X183824Y15352108D01*
X185493Y15382664D01*
X186959Y15396054D01*
X190495Y15417479D01*
X193418Y15430664D01*
X199259Y15451545D01*
X203601Y15464335D01*
X211677Y15484450D01*
X217386Y15496696D01*
X227618Y15515836D01*
X234621Y15527376D01*
X246866Y15545279D01*
X255098Y15556008D01*
X269211Y15572459D01*
X278549Y15582211D01*
X294380Y15597039D01*
X304737Y15605730D01*
X322068Y15618731D01*
X333313Y15626245D01*
X337470Y15628707D01*
X351963Y15637285D01*
X363938Y15643518D01*
X383725Y15652482D01*
X396291Y15657368D01*
X410890Y15662147D01*
X426554Y15666020D01*
X427224Y15666298D01*
X427232Y15666299D01*
X436663Y15670207D01*
X445511Y15673482D01*
X455229Y15676663D01*
X455234Y15676667D01*
X455921Y15676891D01*
X470333Y15684153D01*
X747315Y15798884D01*
X758224Y15800947D01*
X775151Y15808714D01*
X775154Y15808713D01*
X811262Y15825280D01*
X815469Y15827114D01*
X815893Y15827290D01*
X830744Y15833440D01*
X830745Y15833442D01*
X834258Y15834896D01*
X837276Y15837213D01*
X837282Y15837215D01*
X850429Y15847305D01*
X854114Y15850023D01*
X861555Y15855302D01*
X886492Y15872995D01*
X886492Y15872996D01*
X901680Y15883771D01*
X908923Y15892190D01*
X1112138Y16048127D01*
X1122137Y16052941D01*
X1167037Y16090143D01*
X1170642Y16093020D01*
X1183782Y16103102D01*
X1183785Y16103107D01*
X1186798Y16105418D01*
X1189109Y16108431D01*
X1189115Y16108435D01*
X1199213Y16121598D01*
X1202027Y16125125D01*
X1227392Y16155738D01*
X1227392Y16155741D01*
X1239276Y16170083D01*
X1244089Y16180079D01*
X1400024Y16383295D01*
X1408438Y16390534D01*
X1419214Y16405723D01*
X1419217Y16405724D01*
X1442207Y16438129D01*
X1444918Y16441800D01*
X1454999Y16454936D01*
X1455000Y16454940D01*
X1457314Y16457954D01*
X1458769Y16461469D01*
X1458772Y16461472D01*
X1465105Y16476764D01*
X1466934Y16480955D01*
X1483501Y16517065D01*
X1483500Y16517067D01*
X1491268Y16533996D01*
X1493332Y16544907D01*
X1541086Y16660189D01*
X1591361Y16781563D01*
X1597617Y16790737D01*
X1617892Y16845383D01*
X1619588Y16849706D01*
X1625917Y16864983D01*
X1625917Y16864986D01*
X1627374Y16868502D01*
X1630025Y16888648D01*
X1630709Y16893194D01*
X1637368Y16932372D01*
X1637367Y16932375D01*
X1640487Y16950732D01*
X1639657Y16961811D01*
X1673090Y17215764D01*
X1676756Y17226243D01*
X1678494Y17244784D01*
X1678496Y17244786D01*
X1682203Y17284333D01*
X1682722Y17288931D01*
X1684877Y17305295D01*
X1684876Y17305299D01*
X1685373Y17309069D01*
X1684876Y17312839D01*
X1684877Y17312842D01*
X1682720Y17329221D01*
X1682201Y17333828D01*
X1676758Y17391890D01*
X1673089Y17402375D01*
X1639654Y17656341D01*
X1640484Y17667407D01*
X1637364Y17685768D01*
X1637365Y17685769D01*
X1630712Y17724924D01*
X1630024Y17729484D01*
X1627868Y17745868D01*
X1627866Y17745872D01*
X1627370Y17749644D01*
X1619592Y17768423D01*
X1617897Y17772741D01*
X1597612Y17827412D01*
X1591358Y17836585D01*
X1493334Y18073236D01*
X1491271Y18084144D01*
X1483504Y18101075D01*
X1466934Y18137194D01*
X1465103Y18141391D01*
X1458776Y18156667D01*
X1458774Y18156669D01*
X1457318Y18160186D01*
X1444949Y18176305D01*
X1442209Y18180016D01*
X1419221Y18212415D01*
X1419220Y18212416D01*
X1408453Y18227591D01*
X1400040Y18234832D01*
X1305761Y18357698D01*
X1244090Y18438070D01*
X1239277Y18448066D01*
X1202064Y18492981D01*
X1199174Y18496605D01*
X1197817Y18498373D01*
X1189119Y18509709D01*
X1189116Y18509712D01*
X1186802Y18512727D01*
X1183785Y18515042D01*
X1183783Y18515045D01*
X1170651Y18525121D01*
X1167043Y18528000D01*
X1122152Y18565194D01*
X1112148Y18570013D01*
X908918Y18725957D01*
X901674Y18734375D01*
X854109Y18768124D01*
X850381Y18770874D01*
X834254Y18783248D01*
X815464Y18791031D01*
X811215Y18792885D01*
X758236Y18817189D01*
X747323Y18819255D01*
X606122Y18877741D01*
X470333Y18933986D01*
X455910Y18941252D01*
X445521Y18944653D01*
X436655Y18947935D01*
X426550Y18952120D01*
X410874Y18955995D01*
X396312Y18960763D01*
X383720Y18965660D01*
X363953Y18974617D01*
X351970Y18980855D01*
X343293Y18985991D01*
X333307Y18991902D01*
X322069Y18999411D01*
X304747Y19012404D01*
X294382Y19021101D01*
X278552Y19035929D01*
X269220Y19045677D01*
X255086Y19062153D01*
X246868Y19072862D01*
X234624Y19090759D01*
X227614Y19102311D01*
X217395Y19121431D01*
X211687Y19133674D01*
X203606Y19153803D01*
X199263Y19166598D01*
X193419Y19187491D01*
X190495Y19200674D01*
X186961Y19222076D01*
X185491Y19235492D01*
X183805Y19266390D01*
X183622Y19272822D01*
X181218Y20322423D01*
X197932Y20384880D01*
X243816Y20430434D01*
X306390Y20446697D01*
X753710Y20442453D01*
G37*
%TD.AperFunction*%
%TD*%
%TA.AperFunction,Conductor*%
%TO.N,GND*%
G36*
X35445738Y13880528D02*
G01*
X35495917Y13834804D01*
X35514500Y13769511D01*
X35514500Y13113589D01*
X35517128Y13088589D01*
X35529079Y12974879D01*
X35586598Y12797851D01*
X35679668Y12636649D01*
X35804219Y12498321D01*
X35954811Y12388910D01*
X36124860Y12313199D01*
X36306928Y12274500D01*
X36306930Y12274500D01*
X36493070Y12274500D01*
X36493072Y12274500D01*
X36675139Y12313199D01*
X36675140Y12313200D01*
X36675142Y12313200D01*
X36747623Y12345471D01*
X36804183Y12356040D01*
X36859428Y12339938D01*
X36901456Y12300634D01*
X36921217Y12246590D01*
X36923097Y12230510D01*
X36923464Y12226919D01*
X36930110Y12150959D01*
X36934329Y12131929D01*
X36934758Y12130749D01*
X36934759Y12130745D01*
X36960413Y12060258D01*
X36961582Y12056893D01*
X36985580Y11984476D01*
X36994075Y11966928D01*
X37035979Y11903216D01*
X37037889Y11900218D01*
X37060411Y11863706D01*
X37077952Y11835268D01*
X37090253Y11820170D01*
X37091168Y11819307D01*
X37091170Y11819304D01*
X37123191Y11789094D01*
X37145709Y11767849D01*
X37148296Y11765336D01*
X41038181Y7875452D01*
X41065061Y7835224D01*
X41074500Y7787771D01*
X41074500Y6312230D01*
X41065061Y6264777D01*
X41038181Y6224549D01*
X40657486Y5843856D01*
X40640167Y5829746D01*
X40587848Y5774292D01*
X40585336Y5771706D01*
X39900909Y5087277D01*
X39900905Y5087273D01*
X39172990Y4359359D01*
X39141704Y4336606D01*
X37690248Y3595396D01*
X37669382Y3582160D01*
X37655369Y3574491D01*
X37547173Y3524037D01*
X37353598Y3388495D01*
X37186505Y3221402D01*
X37050965Y3027830D01*
X36951097Y2813664D01*
X36889936Y2585408D01*
X36869340Y2350001D01*
X36889936Y2114593D01*
X36921552Y1996600D01*
X36951097Y1886337D01*
X37050965Y1672170D01*
X37186505Y1478599D01*
X37353599Y1311505D01*
X37547170Y1175965D01*
X37761337Y1076097D01*
X37989592Y1014937D01*
X38225000Y994341D01*
X38460408Y1014937D01*
X38688663Y1076097D01*
X38902830Y1175965D01*
X39096401Y1311505D01*
X39263495Y1478599D01*
X39399035Y1672170D01*
X39449493Y1780380D01*
X39457163Y1794391D01*
X39462552Y1802889D01*
X39470396Y1815252D01*
X40211604Y3266707D01*
X40234351Y3297985D01*
X41024091Y4087723D01*
X41082671Y4146303D01*
X41082673Y4146307D01*
X41387322Y4450955D01*
X41442905Y4483046D01*
X41507093Y4483046D01*
X41562680Y4450952D01*
X42715641Y3297992D01*
X42738394Y3266706D01*
X43453922Y1865541D01*
X43479605Y1815249D01*
X43492839Y1794386D01*
X43500509Y1780372D01*
X43550965Y1672170D01*
X43686505Y1478599D01*
X43853599Y1311505D01*
X44047170Y1175965D01*
X44261337Y1076097D01*
X44489592Y1014937D01*
X44725000Y994341D01*
X44960408Y1014937D01*
X45188663Y1076097D01*
X45402830Y1175965D01*
X45596401Y1311505D01*
X45763495Y1478599D01*
X45899035Y1672170D01*
X45998903Y1886337D01*
X46060063Y2114592D01*
X46080659Y2350000D01*
X46071097Y2459286D01*
X46060063Y2585408D01*
X46034428Y2681081D01*
X45998903Y2813663D01*
X45899035Y3027829D01*
X45763495Y3221401D01*
X45596401Y3388495D01*
X45402830Y3524035D01*
X45294628Y3574491D01*
X45280614Y3582161D01*
X45277418Y3584189D01*
X45259748Y3595397D01*
X43808295Y4336606D01*
X43777009Y4359359D01*
X42611819Y5524549D01*
X42584939Y5564777D01*
X42575500Y5612230D01*
X42575500Y5860657D01*
X42577770Y5882879D01*
X42577733Y5884141D01*
X42577734Y5884144D01*
X42575552Y5959131D01*
X42575500Y5962737D01*
X42575500Y6850000D01*
X43369340Y6850000D01*
X43389936Y6614593D01*
X43409575Y6541300D01*
X43451097Y6386337D01*
X43550965Y6172170D01*
X43686505Y5978599D01*
X43853599Y5811505D01*
X44047170Y5675965D01*
X44261337Y5576097D01*
X44489592Y5514937D01*
X44725000Y5494341D01*
X44960408Y5514937D01*
X45188663Y5576097D01*
X45402830Y5675965D01*
X45596401Y5811505D01*
X45763495Y5978599D01*
X45899035Y6172170D01*
X45998903Y6386337D01*
X46060063Y6614592D01*
X46080659Y6850000D01*
X46060063Y7085408D01*
X45998903Y7313663D01*
X45899035Y7527829D01*
X45763495Y7721401D01*
X45596401Y7888495D01*
X45402830Y8024035D01*
X45188663Y8123903D01*
X45116738Y8143175D01*
X44960407Y8185064D01*
X44725000Y8205660D01*
X44489592Y8185064D01*
X44261336Y8123903D01*
X44047170Y8024035D01*
X43853598Y7888495D01*
X43686505Y7721402D01*
X43550965Y7527830D01*
X43451097Y7313664D01*
X43389936Y7085408D01*
X43369340Y6850000D01*
X42575500Y6850000D01*
X42575500Y7787770D01*
X42584939Y7835223D01*
X42611819Y7875451D01*
X42942028Y8205660D01*
X44680638Y9944273D01*
X44694256Y9956043D01*
X44713530Y9970390D01*
X44740477Y10002506D01*
X44796463Y10040507D01*
X44864063Y10043460D01*
X44923149Y10010483D01*
X46064267Y8869366D01*
X46076048Y8855734D01*
X46090390Y8836470D01*
X46128355Y8804614D01*
X46136317Y8797316D01*
X46140224Y8793409D01*
X46164542Y8774181D01*
X46167298Y8771937D01*
X46224786Y8723698D01*
X46224788Y8723697D01*
X46225757Y8722884D01*
X46242177Y8712424D01*
X46243321Y8711891D01*
X46243323Y8711889D01*
X46311357Y8680165D01*
X46314456Y8678665D01*
X46381567Y8644960D01*
X46382704Y8644389D01*
X46401084Y8638002D01*
X46402321Y8637747D01*
X46402327Y8637744D01*
X46475862Y8622561D01*
X46479209Y8621819D01*
X46552279Y8604500D01*
X46552281Y8604500D01*
X46553505Y8604210D01*
X46572876Y8602231D01*
X46574140Y8602268D01*
X46574144Y8602267D01*
X46649110Y8604448D01*
X46652716Y8604500D01*
X46716237Y8604500D01*
X46749701Y8599899D01*
X48064838Y8231301D01*
X48119854Y8198777D01*
X48151366Y8143175D01*
X48151002Y8079266D01*
X48118860Y8024026D01*
X48079444Y8001326D01*
X48080675Y7998688D01*
X47872615Y7901668D01*
X47693442Y7776210D01*
X47538790Y7621558D01*
X47413332Y7442385D01*
X47320897Y7244160D01*
X47286289Y7115001D01*
X47286289Y7115000D01*
X48676000Y7115000D01*
X48738000Y7098387D01*
X48783387Y7053000D01*
X48800000Y6991000D01*
X48800000Y6639000D01*
X48783387Y6577000D01*
X48738000Y6531613D01*
X48676000Y6515000D01*
X47286289Y6515000D01*
X47320897Y6385841D01*
X47413332Y6187615D01*
X47538790Y6008443D01*
X47693442Y5853791D01*
X47872614Y5728333D01*
X48080675Y5631312D01*
X48080223Y5630343D01*
X48123594Y5605923D01*
X48156104Y5553599D01*
X48159424Y5492087D01*
X48132733Y5436568D01*
X48082619Y5400744D01*
X47962600Y5354249D01*
X47773437Y5237125D01*
X47609019Y5087238D01*
X47474941Y4909689D01*
X47375769Y4710527D01*
X47314885Y4496538D01*
X47294357Y4275001D01*
X47314885Y4053463D01*
X47375769Y3839474D01*
X47474941Y3640312D01*
X47609019Y3462763D01*
X47773437Y3312876D01*
X47962595Y3195755D01*
X47962597Y3195755D01*
X47962599Y3195753D01*
X48170060Y3115382D01*
X48388757Y3074500D01*
X48611241Y3074500D01*
X48611243Y3074500D01*
X48829940Y3115382D01*
X49037401Y3195753D01*
X49226562Y3312876D01*
X49378923Y3451772D01*
X49390980Y3462763D01*
X49410386Y3488460D01*
X49525058Y3640311D01*
X49547640Y3685663D01*
X49591424Y3734593D01*
X49654057Y3754306D01*
X49717975Y3739273D01*
X49765255Y3693710D01*
X49782640Y3630391D01*
X49782640Y3319699D01*
X49782375Y3311589D01*
X49758795Y2951819D01*
X49756677Y2935738D01*
X49688421Y2592593D01*
X49684224Y2576927D01*
X49571762Y2245614D01*
X49565554Y2230626D01*
X49410798Y1916821D01*
X49402689Y1902776D01*
X49208309Y1611861D01*
X49198433Y1598991D01*
X48967747Y1335949D01*
X48956280Y1324482D01*
X48693215Y1093776D01*
X48680345Y1083901D01*
X48389431Y889520D01*
X48375385Y881410D01*
X48061585Y726660D01*
X48046600Y720453D01*
X47715289Y607988D01*
X47699622Y603790D01*
X47356471Y535531D01*
X47340388Y533413D01*
X46980617Y509836D01*
X46972508Y509571D01*
X38111375Y509569D01*
X38107278Y509637D01*
X37741227Y521738D01*
X37733050Y522279D01*
X37373924Y558001D01*
X37365803Y559081D01*
X37009825Y618439D01*
X37001791Y620053D01*
X36650488Y702798D01*
X36642580Y704939D01*
X36297537Y810693D01*
X36289785Y813352D01*
X35952482Y941668D01*
X35944926Y944832D01*
X35616812Y1095147D01*
X35609479Y1098804D01*
X35292017Y1270456D01*
X35284942Y1274589D01*
X34979504Y1466838D01*
X34972715Y1471432D01*
X34680661Y1683430D01*
X34674195Y1688457D01*
X34396752Y1919290D01*
X34390630Y1924736D01*
X33862799Y2426458D01*
X33852940Y2437439D01*
X33851615Y2438542D01*
X33851613Y2438544D01*
X33842478Y2446144D01*
X33836375Y2451574D01*
X33826524Y2460939D01*
X33814458Y2469458D01*
X33560110Y2681081D01*
X33549538Y2691397D01*
X33538541Y2699380D01*
X33532080Y2704403D01*
X33522961Y2711990D01*
X33522959Y2711991D01*
X33521636Y2713092D01*
X33509032Y2720797D01*
X33241262Y2915159D01*
X33230037Y2924750D01*
X33228577Y2925669D01*
X33218524Y2931997D01*
X33211766Y2936569D01*
X33202151Y2943548D01*
X33202149Y2943549D01*
X33200759Y2944558D01*
X33187679Y2951412D01*
X32907656Y3127666D01*
X32895813Y3136500D01*
X32883868Y3142959D01*
X32876793Y3147092D01*
X32865300Y3154326D01*
X32851798Y3160300D01*
X32560737Y3317680D01*
X32548350Y3325705D01*
X32535995Y3331366D01*
X32528673Y3335018D01*
X32516719Y3341481D01*
X32502849Y3346551D01*
X32202023Y3484369D01*
X32189124Y3491562D01*
X32176430Y3496392D01*
X32168890Y3499549D01*
X32156537Y3505208D01*
X32142365Y3509350D01*
X31833097Y3626995D01*
X31819752Y3633321D01*
X31806764Y3637302D01*
X31799028Y3639955D01*
X31786326Y3644786D01*
X31771909Y3647985D01*
X31455554Y3744949D01*
X31441821Y3750379D01*
X31428591Y3753496D01*
X31420700Y3755632D01*
X31407705Y3759614D01*
X31393108Y3761853D01*
X31071037Y3837714D01*
X31056973Y3842226D01*
X31043584Y3844458D01*
X31035551Y3846072D01*
X31022333Y3849186D01*
X31007615Y3850457D01*
X30681236Y3904879D01*
X30666906Y3908452D01*
X30653392Y3909796D01*
X30645282Y3910874D01*
X30631875Y3913109D01*
X30617110Y3913405D01*
X30287859Y3946150D01*
X30273321Y3948769D01*
X30259737Y3949218D01*
X30251564Y3949759D01*
X30238055Y3951103D01*
X30223313Y3950423D01*
X29898000Y3961180D01*
X29889202Y3962318D01*
X29882848Y3962318D01*
X29865612Y3962318D01*
X29861515Y3962386D01*
X29860021Y3962436D01*
X29837951Y3963166D01*
X29829120Y3962318D01*
X20137151Y3962318D01*
X20128332Y3963163D01*
X20104733Y3962384D01*
X20100652Y3962317D01*
X20077083Y3962316D01*
X20068295Y3961180D01*
X19742983Y3950426D01*
X19728229Y3951107D01*
X19714700Y3949762D01*
X19706544Y3949222D01*
X19692972Y3948773D01*
X19678432Y3946154D01*
X19349171Y3913407D01*
X19334397Y3913111D01*
X19321002Y3910877D01*
X19312877Y3909797D01*
X19299387Y3908456D01*
X19285054Y3904883D01*
X18958668Y3850453D01*
X18943960Y3849184D01*
X18932700Y3846532D01*
X18930728Y3846068D01*
X18922715Y3844458D01*
X18909306Y3842221D01*
X18895244Y3837710D01*
X18573176Y3761852D01*
X18558580Y3759613D01*
X18545592Y3755633D01*
X18537702Y3753497D01*
X18524467Y3750379D01*
X18510731Y3744948D01*
X18194375Y3647986D01*
X18179950Y3644786D01*
X18167267Y3639961D01*
X18159521Y3637304D01*
X18146540Y3633325D01*
X18133188Y3626997D01*
X17823936Y3509352D01*
X17809759Y3505209D01*
X17797403Y3499548D01*
X17789858Y3496389D01*
X17777155Y3491556D01*
X17764267Y3484369D01*
X17463440Y3346551D01*
X17449572Y3341482D01*
X17437608Y3335014D01*
X17430296Y3331368D01*
X17417948Y3325710D01*
X17405557Y3317685D01*
X17114483Y3160300D01*
X17100977Y3154324D01*
X17089486Y3147091D01*
X17082421Y3142964D01*
X17070475Y3136505D01*
X17058635Y3127674D01*
X16778599Y2951406D01*
X16765530Y2944558D01*
X16754523Y2936569D01*
X16747754Y2931990D01*
X16736251Y2924749D01*
X16725028Y2915162D01*
X16457240Y2720793D01*
X16444640Y2713090D01*
X16434202Y2704406D01*
X16427749Y2699388D01*
X16416752Y2691405D01*
X16406178Y2681089D01*
X16151813Y2469451D01*
X16139762Y2460942D01*
X16129922Y2451588D01*
X16123806Y2446148D01*
X16113353Y2437452D01*
X16103480Y2426455D01*
X15575638Y1924722D01*
X15569517Y1919277D01*
X15411295Y1787634D01*
X15292094Y1688458D01*
X15285635Y1683435D01*
X15046347Y1509749D01*
X15037993Y5076975D01*
X15066814Y5030427D01*
X15210461Y4872855D01*
X15380614Y4744360D01*
X15570694Y4649714D01*
X15571478Y4649323D01*
X15694999Y4614178D01*
X15776556Y4590972D01*
X15935672Y4576228D01*
X15935673Y4576228D01*
X17442061Y4576228D01*
X17442062Y4576228D01*
X17601177Y4590972D01*
X17601177Y4590973D01*
X17806256Y4649323D01*
X17901297Y4696648D01*
X17997119Y4744360D01*
X18065097Y4795695D01*
X18167274Y4872856D01*
X18310919Y5030426D01*
X18423165Y5211709D01*
X18500188Y5410530D01*
X18539367Y5620118D01*
X18539367Y5833338D01*
X18500188Y6042926D01*
X18423165Y6241747D01*
X18310919Y6423030D01*
X18167274Y6580600D01*
X18167273Y6580601D01*
X18167272Y6580602D01*
X17997119Y6709097D01*
X17806257Y6804133D01*
X17638973Y6851731D01*
X17584420Y6884130D01*
X17553035Y6939274D01*
X17553035Y7002723D01*
X17584421Y7057865D01*
X17638975Y7090264D01*
X17824218Y7142969D01*
X18023289Y7242094D01*
X18200766Y7376119D01*
X18350588Y7540466D01*
X18467664Y7729550D01*
X18548002Y7936926D01*
X18553573Y7966728D01*
X16512867Y7966728D01*
X16450867Y7983341D01*
X16405480Y8028728D01*
X16388867Y8090728D01*
X16388867Y8442728D01*
X16405480Y8504728D01*
X16450867Y8550115D01*
X16512867Y8566728D01*
X18553573Y8566728D01*
X18548002Y8596531D01*
X18467664Y8803907D01*
X18350588Y8992991D01*
X18200766Y9157338D01*
X18023289Y9291363D01*
X17824219Y9390487D01*
X17638974Y9443193D01*
X17584421Y9475592D01*
X17553035Y9530735D01*
X17553035Y9594184D01*
X17584420Y9649327D01*
X17638973Y9681726D01*
X17654328Y9686096D01*
X17806256Y9729323D01*
X17901297Y9776648D01*
X17997119Y9824360D01*
X17997122Y9824362D01*
X18167274Y9952856D01*
X18310919Y10110426D01*
X18423165Y10291709D01*
X18500188Y10490530D01*
X18539367Y10700118D01*
X18539367Y10913338D01*
X18500188Y11122926D01*
X18423165Y11321747D01*
X18337423Y11460225D01*
X18318884Y11522636D01*
X18334522Y11585839D01*
X18380026Y11632407D01*
X18442851Y11649500D01*
X25943919Y11649500D01*
X25991372Y11640061D01*
X26031600Y11613181D01*
X31059267Y6585515D01*
X31087718Y6541300D01*
X31549576Y5307302D01*
X31549577Y5307299D01*
X31549578Y5307298D01*
X31563909Y5280548D01*
X31570228Y5266794D01*
X31591566Y5211714D01*
X31703814Y5030427D01*
X31847461Y4872855D01*
X32017614Y4744360D01*
X32207694Y4649714D01*
X32208478Y4649323D01*
X32331999Y4614178D01*
X32413556Y4590972D01*
X32572672Y4576228D01*
X32572673Y4576228D01*
X34079061Y4576228D01*
X34079062Y4576228D01*
X34238177Y4590972D01*
X34238177Y4590973D01*
X34443256Y4649323D01*
X34538297Y4696648D01*
X34634119Y4744360D01*
X34702097Y4795695D01*
X34804274Y4872856D01*
X34947919Y5030426D01*
X35060165Y5211709D01*
X35137188Y5410530D01*
X35176367Y5620118D01*
X35176367Y5833338D01*
X35137188Y6042926D01*
X35060165Y6241747D01*
X34947919Y6423030D01*
X34804274Y6580600D01*
X34804273Y6580601D01*
X34804272Y6580602D01*
X34634119Y6709097D01*
X34443257Y6804133D01*
X34282056Y6850000D01*
X36869340Y6850000D01*
X36889936Y6614593D01*
X36909575Y6541300D01*
X36951097Y6386337D01*
X37050965Y6172170D01*
X37186505Y5978599D01*
X37353599Y5811505D01*
X37547170Y5675965D01*
X37761337Y5576097D01*
X37989592Y5514937D01*
X38225000Y5494341D01*
X38460408Y5514937D01*
X38688663Y5576097D01*
X38902830Y5675965D01*
X39096401Y5811505D01*
X39263495Y5978599D01*
X39399035Y6172170D01*
X39498903Y6386337D01*
X39560063Y6614592D01*
X39580659Y6850000D01*
X39560063Y7085408D01*
X39498903Y7313663D01*
X39399035Y7527829D01*
X39263495Y7721401D01*
X39096401Y7888495D01*
X38902830Y8024035D01*
X38688663Y8123903D01*
X38616738Y8143175D01*
X38460407Y8185064D01*
X38225000Y8205660D01*
X37989592Y8185064D01*
X37761336Y8123903D01*
X37547170Y8024035D01*
X37353598Y7888495D01*
X37186505Y7721402D01*
X37050965Y7527830D01*
X36951097Y7313664D01*
X36889936Y7085408D01*
X36869340Y6850000D01*
X34282056Y6850000D01*
X34238177Y6862485D01*
X34121917Y6873257D01*
X34064865Y6893361D01*
X34024113Y6938064D01*
X34009358Y6996728D01*
X34024113Y7055392D01*
X34064865Y7100095D01*
X34121917Y7120199D01*
X34238177Y7130972D01*
X34280341Y7142969D01*
X34443256Y7189323D01*
X34553385Y7244160D01*
X34634119Y7284360D01*
X34672922Y7313663D01*
X34804274Y7412856D01*
X34947919Y7570426D01*
X35060165Y7751709D01*
X35137188Y7950530D01*
X35176367Y8160118D01*
X35176367Y8373338D01*
X35137188Y8582926D01*
X35060165Y8781747D01*
X34947919Y8963030D01*
X34804274Y9120600D01*
X34804273Y9120601D01*
X34804272Y9120602D01*
X34634119Y9249097D01*
X34443257Y9344133D01*
X34238177Y9402485D01*
X34121917Y9413257D01*
X34064865Y9433361D01*
X34024113Y9478064D01*
X34009358Y9536728D01*
X34024113Y9595392D01*
X34064865Y9640095D01*
X34121917Y9660199D01*
X34238177Y9670972D01*
X34238177Y9670973D01*
X34443256Y9729323D01*
X34538297Y9776648D01*
X34634119Y9824360D01*
X34634122Y9824362D01*
X34804274Y9952856D01*
X34947919Y10110426D01*
X35060165Y10291709D01*
X35137188Y10490530D01*
X35176367Y10700118D01*
X35176367Y10913338D01*
X35137188Y11122926D01*
X35060165Y11321747D01*
X34947919Y11503030D01*
X34804274Y11660600D01*
X34804273Y11660601D01*
X34804272Y11660602D01*
X34634119Y11789097D01*
X34443257Y11884133D01*
X34238177Y11942485D01*
X34121917Y11953257D01*
X34064865Y11973361D01*
X34024113Y12018064D01*
X34009358Y12076728D01*
X34024113Y12135392D01*
X34064865Y12180095D01*
X34121917Y12200199D01*
X34238177Y12210972D01*
X34239983Y12211486D01*
X34443256Y12269323D01*
X34581565Y12338192D01*
X34634119Y12364360D01*
X34637554Y12366954D01*
X34804274Y12492856D01*
X34947919Y12650426D01*
X35060165Y12831709D01*
X35137188Y13030530D01*
X35176367Y13240118D01*
X35176367Y13453338D01*
X35169469Y13490237D01*
X35175697Y13557730D01*
X35274840Y13814218D01*
X35315714Y13868420D01*
X35379003Y13892977D01*
X35445738Y13880528D01*
G37*
%TD.AperFunction*%
%TA.AperFunction,Conductor*%
G36*
X31609233Y28044411D02*
G01*
X31641632Y27989858D01*
X31668137Y27896706D01*
X31668138Y27896702D01*
X31676871Y27879163D01*
X31679218Y27874450D01*
X31686723Y27855680D01*
X31689466Y27846773D01*
X31776521Y27658396D01*
X32218816Y26701312D01*
X32230209Y26652616D01*
X32221441Y26603380D01*
X32193935Y26561613D01*
X30215937Y24583616D01*
X30195304Y24566987D01*
X30191240Y24564376D01*
X30158719Y24526845D01*
X30152698Y24520377D01*
X30143145Y24510823D01*
X30135045Y24500004D01*
X30129500Y24493124D01*
X30096992Y24455607D01*
X30094986Y24451214D01*
X30081466Y24428429D01*
X30078571Y24424563D01*
X30061219Y24378040D01*
X30057834Y24369866D01*
X30037202Y24324686D01*
X30036515Y24319908D01*
X30029964Y24294241D01*
X30028277Y24289718D01*
X30024733Y24240178D01*
X30023788Y24231385D01*
X30021868Y24218027D01*
X30021868Y24204539D01*
X30021552Y24195692D01*
X30018008Y24146158D01*
X30019034Y24141445D01*
X30021868Y24115087D01*
X30021868Y20399872D01*
X30009025Y20344916D01*
X29973156Y20301345D01*
X29921692Y20278182D01*
X29865293Y20280227D01*
X29815642Y20307056D01*
X29694607Y20414282D01*
X29694606Y20414283D01*
X29602351Y20462703D01*
X29554730Y20487697D01*
X29401351Y20525500D01*
X29243381Y20525500D01*
X29090001Y20487697D01*
X28950127Y20414284D01*
X28831881Y20309529D01*
X28742146Y20179524D01*
X28686129Y20031819D01*
X28667087Y19875001D01*
X28686129Y19718180D01*
X28696213Y19691591D01*
X28702549Y19668214D01*
X28703893Y19660231D01*
X28817813Y19225568D01*
X28821864Y19194131D01*
X28821864Y14177375D01*
X28819030Y14151017D01*
X28818004Y14146306D01*
X28821548Y14096771D01*
X28821864Y14087924D01*
X28821864Y14074429D01*
X28823783Y14061079D01*
X28824729Y14052285D01*
X28828273Y14002749D01*
X28829958Y13998231D01*
X28836511Y13972556D01*
X28837199Y13967775D01*
X28851522Y13936411D01*
X28857821Y13922620D01*
X28861209Y13914442D01*
X28862339Y13911411D01*
X28878568Y13867901D01*
X28881459Y13864038D01*
X28894984Y13841245D01*
X28896986Y13836860D01*
X28896987Y13836859D01*
X28929511Y13799325D01*
X28935053Y13792446D01*
X28943143Y13781639D01*
X28952685Y13772097D01*
X28958718Y13765617D01*
X28991234Y13728090D01*
X28995291Y13725483D01*
X29015935Y13708847D01*
X31059269Y11665513D01*
X31087720Y11621298D01*
X31549576Y10387302D01*
X31563909Y10360547D01*
X31570232Y10346786D01*
X31591569Y10291709D01*
X31703814Y10110427D01*
X31847461Y9952855D01*
X32017614Y9824360D01*
X32207694Y9729714D01*
X32208478Y9729323D01*
X32331999Y9694178D01*
X32413556Y9670972D01*
X32529816Y9660199D01*
X32586868Y9640095D01*
X32627620Y9595392D01*
X32642375Y9536728D01*
X32627620Y9478064D01*
X32586868Y9433361D01*
X32529816Y9413257D01*
X32413556Y9402485D01*
X32208476Y9344133D01*
X32017614Y9249097D01*
X31847461Y9120602D01*
X31703814Y8963030D01*
X31591568Y8781746D01*
X31514546Y8582927D01*
X31507038Y8542764D01*
X31475367Y8373338D01*
X31475367Y8160118D01*
X31499928Y8028728D01*
X31514546Y7950529D01*
X31558108Y7838082D01*
X31564575Y7771630D01*
X31535646Y7711458D01*
X31479707Y7675009D01*
X31412977Y7672850D01*
X31354800Y7705608D01*
X29184711Y9875697D01*
X26603980Y12456429D01*
X26587344Y12477073D01*
X26584737Y12481130D01*
X26547210Y12513646D01*
X26540730Y12519679D01*
X26531188Y12529221D01*
X26520381Y12537311D01*
X26513502Y12542853D01*
X26475968Y12575377D01*
X26475967Y12575378D01*
X26471582Y12577380D01*
X26448789Y12590905D01*
X26444926Y12593796D01*
X26444924Y12593797D01*
X26398385Y12611155D01*
X26390217Y12614539D01*
X26367599Y12624868D01*
X26345053Y12635165D01*
X26344198Y12635288D01*
X26340271Y12635853D01*
X26314596Y12642406D01*
X26310078Y12644091D01*
X26260542Y12647635D01*
X26251748Y12648581D01*
X26238398Y12650500D01*
X26238394Y12650500D01*
X26224903Y12650500D01*
X26216056Y12650816D01*
X26166521Y12654360D01*
X26161809Y12653334D01*
X26135451Y12650500D01*
X18533588Y12650500D01*
X18470765Y12667592D01*
X18425262Y12714156D01*
X18409621Y12777356D01*
X18422211Y12819755D01*
X18419014Y12820993D01*
X18446103Y12890922D01*
X18451577Y12903073D01*
X18466978Y12932853D01*
X18911165Y14179637D01*
X18940289Y14225698D01*
X30543020Y25828430D01*
X30563658Y25845060D01*
X30566955Y25847178D01*
X30566958Y25847181D01*
X30597706Y25882667D01*
X30603742Y25889150D01*
X30612641Y25898049D01*
X30612641Y25898050D01*
X30612645Y25898053D01*
X30620201Y25908149D01*
X30625753Y25915037D01*
X30627402Y25916940D01*
X30656496Y25950515D01*
X30658122Y25954077D01*
X30671653Y25976879D01*
X30673995Y25980007D01*
X30690409Y26024018D01*
X30693791Y26032179D01*
X30713296Y26074889D01*
X30713295Y26074889D01*
X30713297Y26074891D01*
X30713852Y26078756D01*
X30720410Y26104453D01*
X30721778Y26108118D01*
X30725128Y26154964D01*
X30726075Y26163769D01*
X30726237Y26164891D01*
X30727866Y26176222D01*
X30727866Y26188807D01*
X30728182Y26197654D01*
X30729058Y26209899D01*
X30731533Y26244504D01*
X30730699Y26248334D01*
X30727866Y26274692D01*
X30727866Y26512639D01*
X30740091Y26566326D01*
X30855258Y26806100D01*
X31352769Y27841899D01*
X31356303Y27852842D01*
X31363299Y27870001D01*
X31376596Y27896702D01*
X31403102Y27989862D01*
X31435498Y28044410D01*
X31490641Y28075796D01*
X31554090Y28075796D01*
X31609233Y28044411D01*
G37*
%TD.AperFunction*%
%TA.AperFunction,Conductor*%
G36*
X40630223Y16690193D02*
G01*
X40670451Y16663313D01*
X42503333Y14830431D01*
X42531988Y14785669D01*
X42539270Y14733021D01*
X42523842Y14682161D01*
X42488538Y14642432D01*
X42329220Y14526680D01*
X42204668Y14388352D01*
X42111598Y14227150D01*
X42054079Y14050122D01*
X42049100Y14002749D01*
X42040254Y13918579D01*
X42039500Y13911408D01*
X42039500Y13088592D01*
X42054079Y12949879D01*
X42111598Y12772851D01*
X42204668Y12611649D01*
X42329219Y12473321D01*
X42479811Y12363910D01*
X42649860Y12288199D01*
X42831928Y12249500D01*
X42831930Y12249500D01*
X43018070Y12249500D01*
X43018072Y12249500D01*
X43200139Y12288199D01*
X43200140Y12288200D01*
X43200142Y12288200D01*
X43244881Y12308120D01*
X43301161Y12318702D01*
X43356195Y12302866D01*
X43398245Y12263989D01*
X43418341Y12210363D01*
X43428237Y12131929D01*
X43437275Y12060296D01*
X43441006Y12030730D01*
X43441623Y12027916D01*
X43444500Y12001360D01*
X43444500Y11863706D01*
X43443191Y11845736D01*
X43439711Y11821977D01*
X43444028Y11772631D01*
X43444500Y11761824D01*
X43444500Y10882230D01*
X43435061Y10834777D01*
X43408181Y10794549D01*
X41912681Y9299049D01*
X41857094Y9266955D01*
X41792906Y9266955D01*
X41737319Y9299049D01*
X39023048Y12013320D01*
X38992798Y12062683D01*
X38988256Y12120399D01*
X39010411Y12173886D01*
X39054434Y12211486D01*
X39110729Y12225001D01*
X39261459Y12225001D01*
X39328702Y12231111D01*
X39483463Y12279337D01*
X39622179Y12363192D01*
X39623650Y12364662D01*
X39664881Y12391954D01*
X39713498Y12400965D01*
X39761771Y12390264D01*
X39764809Y12388912D01*
X39764811Y12388910D01*
X39934858Y12313200D01*
X39934861Y12313200D01*
X39934862Y12313199D01*
X40116928Y12274500D01*
X40116930Y12274500D01*
X40303070Y12274500D01*
X40303072Y12274500D01*
X40485139Y12313199D01*
X40485140Y12313200D01*
X40485142Y12313200D01*
X40655189Y12388910D01*
X40805779Y12498320D01*
X40881951Y12582917D01*
X40930331Y12636649D01*
X41023401Y12797851D01*
X41053641Y12890922D01*
X41080921Y12974880D01*
X41095500Y13113589D01*
X41095500Y13936411D01*
X41080921Y14075120D01*
X41047696Y14177375D01*
X41023401Y14252150D01*
X40930331Y14413352D01*
X40805780Y14551680D01*
X40655188Y14661091D01*
X40485139Y14736802D01*
X40303072Y14775500D01*
X40303070Y14775500D01*
X40116930Y14775500D01*
X40116928Y14775500D01*
X39934859Y14736802D01*
X39761770Y14659737D01*
X39713499Y14649036D01*
X39664884Y14658046D01*
X39623654Y14685336D01*
X39622184Y14686806D01*
X39483463Y14770665D01*
X39328705Y14818889D01*
X39261456Y14825000D01*
X39240000Y14825000D01*
X39240000Y13349000D01*
X39223387Y13287000D01*
X39178000Y13241613D01*
X39116000Y13225000D01*
X38764000Y13225000D01*
X38702000Y13241613D01*
X38656613Y13287000D01*
X38640000Y13349000D01*
X38640000Y14824999D01*
X38630727Y14824999D01*
X38574432Y14838514D01*
X38530409Y14876114D01*
X38508254Y14929601D01*
X38512796Y14987317D01*
X38543046Y15036680D01*
X39166832Y15660466D01*
X39805946Y16299580D01*
X39805951Y16299584D01*
X39816154Y16309788D01*
X39816156Y16309788D01*
X40169680Y16663313D01*
X40209909Y16690193D01*
X40257362Y16699632D01*
X40582770Y16699632D01*
X40630223Y16690193D01*
G37*
%TD.AperFunction*%
%TA.AperFunction,Conductor*%
G36*
X49658234Y26426548D02*
G01*
X49720136Y26409854D01*
X49765428Y26364471D01*
X49781996Y26302532D01*
X49781306Y20945048D01*
X49762838Y20879957D01*
X49712950Y20834250D01*
X49646494Y20821536D01*
X49639989Y20822106D01*
X49634441Y20822591D01*
X49634440Y20822591D01*
X49145171Y20799310D01*
X49085040Y20791266D01*
X49043871Y20782128D01*
X48985983Y20763976D01*
X48240699Y20458221D01*
X48199359Y20438043D01*
X48171556Y20422167D01*
X48133149Y20396806D01*
X47499785Y19916985D01*
X47462767Y19884680D01*
X47438622Y19860476D01*
X47406414Y19823379D01*
X46906173Y19159591D01*
X46881711Y19122522D01*
X46866322Y19095691D01*
X46846667Y19055844D01*
X46529304Y18296093D01*
X46513580Y18249694D01*
X46504895Y18216757D01*
X46496574Y18173218D01*
X46495699Y18168640D01*
X46417304Y17517972D01*
X46399663Y17371556D01*
X46397123Y17326168D01*
X46397378Y17294507D01*
X46400655Y17249136D01*
X46421350Y17098066D01*
X46491903Y16583030D01*
X46496660Y16548309D01*
X46503947Y16510488D01*
X46510444Y16484454D01*
X46521788Y16447628D01*
X46791124Y15716584D01*
X46811378Y15671532D01*
X46827609Y15641250D01*
X46853913Y15599438D01*
X47403494Y14847374D01*
X47435144Y14809814D01*
X47458916Y14785265D01*
X47469777Y14775500D01*
X47495436Y14752429D01*
X48108230Y14273679D01*
X48148957Y14246172D01*
X48178555Y14229034D01*
X48222684Y14207407D01*
X49044218Y13873064D01*
X49109952Y13853457D01*
X49156694Y13844310D01*
X49224967Y13837693D01*
X49224971Y13837693D01*
X49658639Y13837693D01*
X49720639Y13821080D01*
X49766026Y13775693D01*
X49782639Y13713693D01*
X49782639Y9999612D01*
X49765254Y9936294D01*
X49717974Y9890730D01*
X49654057Y9875697D01*
X49591424Y9895410D01*
X49547639Y9944340D01*
X49525058Y9989689D01*
X49433881Y10110427D01*
X49390980Y10167238D01*
X49226562Y10317125D01*
X49037404Y10434246D01*
X48919787Y10479811D01*
X48829940Y10514618D01*
X48611243Y10555500D01*
X48388757Y10555500D01*
X48170060Y10514618D01*
X48170058Y10514618D01*
X48170056Y10514617D01*
X48101443Y10488037D01*
X48079179Y10481728D01*
X48068799Y10479811D01*
X46973084Y10172711D01*
X46908213Y10172153D01*
X46851939Y10204429D01*
X45068049Y11988319D01*
X45037799Y12037682D01*
X45033257Y12095398D01*
X45055412Y12148885D01*
X45099435Y12186485D01*
X45155730Y12200000D01*
X45165000Y12200000D01*
X45165000Y14799999D01*
X45143541Y14799999D01*
X45076297Y14793890D01*
X44921537Y14745665D01*
X44873531Y14716644D01*
X44823043Y14699517D01*
X44770030Y14705172D01*
X44724292Y14732565D01*
X44719293Y14737281D01*
X44716703Y14739797D01*
X44656500Y14800000D01*
X45765000Y14800000D01*
X45765000Y12200001D01*
X45786459Y12200001D01*
X45853702Y12206111D01*
X46008463Y12254337D01*
X46147179Y12338192D01*
X46148650Y12339662D01*
X46189881Y12366954D01*
X46238498Y12375965D01*
X46286771Y12365264D01*
X46289809Y12363912D01*
X46289811Y12363910D01*
X46459858Y12288200D01*
X46459861Y12288200D01*
X46459862Y12288199D01*
X46641928Y12249500D01*
X46641930Y12249500D01*
X46828070Y12249500D01*
X46828072Y12249500D01*
X47010139Y12288199D01*
X47010140Y12288200D01*
X47010142Y12288200D01*
X47180189Y12363910D01*
X47330779Y12473320D01*
X47381113Y12529221D01*
X47455331Y12611649D01*
X47548401Y12772851D01*
X47567525Y12831709D01*
X47605921Y12949880D01*
X47620500Y13088589D01*
X47620500Y13911411D01*
X47605921Y14050120D01*
X47568905Y14164045D01*
X47548401Y14227150D01*
X47455331Y14388352D01*
X47330780Y14526680D01*
X47180188Y14636091D01*
X47010139Y14711802D01*
X46828072Y14750500D01*
X46828070Y14750500D01*
X46641930Y14750500D01*
X46641928Y14750500D01*
X46459859Y14711802D01*
X46286770Y14634737D01*
X46238499Y14624036D01*
X46189884Y14633046D01*
X46148654Y14660336D01*
X46147184Y14661806D01*
X46008463Y14745665D01*
X45853705Y14793889D01*
X45786456Y14800000D01*
X45765000Y14800000D01*
X44656500Y14800000D01*
X41736537Y17719963D01*
X41706906Y17767470D01*
X41701194Y17823168D01*
X41707325Y17871756D01*
X41730703Y17930034D01*
X41779635Y17969387D01*
X41841571Y17979723D01*
X41893544Y17975000D01*
X41915000Y17975000D01*
X41915000Y20574999D01*
X41893551Y20574999D01*
X41841567Y20570277D01*
X41813271Y20575000D01*
X42515000Y20575000D01*
X42515000Y17975001D01*
X42536459Y17975001D01*
X42603702Y17981111D01*
X42758463Y18029337D01*
X42897179Y18113192D01*
X42898650Y18114662D01*
X42939881Y18141954D01*
X42988498Y18150965D01*
X43036771Y18140264D01*
X43039809Y18138912D01*
X43039811Y18138910D01*
X43209858Y18063200D01*
X43209861Y18063200D01*
X43209862Y18063199D01*
X43391928Y18024500D01*
X43391930Y18024500D01*
X43578070Y18024500D01*
X43578072Y18024500D01*
X43760139Y18063199D01*
X43760140Y18063200D01*
X43760142Y18063200D01*
X43930189Y18138910D01*
X44080779Y18248320D01*
X44081309Y18248908D01*
X44205331Y18386649D01*
X44298401Y18547851D01*
X44310073Y18583773D01*
X44355921Y18724880D01*
X44370500Y18863589D01*
X44370500Y19686411D01*
X44355921Y19825120D01*
X44304181Y19984360D01*
X44298401Y20002150D01*
X44205331Y20163352D01*
X44080780Y20301680D01*
X43930188Y20411091D01*
X43760139Y20486802D01*
X43578072Y20525500D01*
X43578070Y20525500D01*
X43391930Y20525500D01*
X43391928Y20525500D01*
X43209859Y20486802D01*
X43036770Y20409737D01*
X42988499Y20399036D01*
X42939884Y20408046D01*
X42898654Y20435336D01*
X42897184Y20436806D01*
X42758463Y20520665D01*
X42603705Y20568889D01*
X42536456Y20575000D01*
X42515000Y20575000D01*
X41813271Y20575000D01*
X41779631Y20580615D01*
X41730702Y20619969D01*
X41707324Y20678247D01*
X41702162Y20719162D01*
X41698995Y20744265D01*
X41698376Y20747085D01*
X41695500Y20773639D01*
X41695500Y20911294D01*
X41696809Y20929264D01*
X41697566Y20934431D01*
X41700289Y20953023D01*
X41695972Y21002369D01*
X41695500Y21013176D01*
X41695500Y21018711D01*
X41691903Y21049479D01*
X41691536Y21053071D01*
X41688177Y21091470D01*
X41684999Y21127797D01*
X41684998Y21127799D01*
X41684889Y21129051D01*
X41680672Y21148070D01*
X41654592Y21219726D01*
X41653408Y21223132D01*
X41633594Y21282926D01*
X41629814Y21294334D01*
X41629812Y21294337D01*
X41629415Y21295536D01*
X41620929Y21313064D01*
X41620237Y21314116D01*
X41620237Y21314117D01*
X41579001Y21376812D01*
X41577086Y21379819D01*
X41537047Y21444733D01*
X41524748Y21459831D01*
X41469275Y21512167D01*
X41466688Y21514680D01*
X40885728Y22095640D01*
X40873946Y22109273D01*
X40859609Y22128531D01*
X40821666Y22160369D01*
X40813691Y22167677D01*
X40809782Y22171586D01*
X40809781Y22171587D01*
X40809777Y22171591D01*
X40785423Y22190848D01*
X40782647Y22193110D01*
X40724251Y22242110D01*
X40707821Y22252578D01*
X40638691Y22284814D01*
X40635447Y22286385D01*
X40567306Y22320606D01*
X40548903Y22327003D01*
X40474211Y22342426D01*
X40470692Y22343206D01*
X40396490Y22360792D01*
X40377121Y22362771D01*
X40300869Y22360552D01*
X40297263Y22360500D01*
X39227967Y22360500D01*
X39165820Y22377198D01*
X39120411Y22422794D01*
X39103968Y22485009D01*
X39120921Y22547087D01*
X39136411Y22573581D01*
X39240993Y22752454D01*
X39260352Y22777540D01*
X39768792Y23285981D01*
X39789428Y23302611D01*
X39793492Y23305221D01*
X39826025Y23342769D01*
X39832029Y23349217D01*
X39841584Y23358771D01*
X39849665Y23369568D01*
X39855214Y23376455D01*
X39887741Y23413991D01*
X39889739Y23418369D01*
X39903271Y23441174D01*
X39903284Y23441192D01*
X39906160Y23445033D01*
X39923517Y23491573D01*
X39926898Y23499734D01*
X39947529Y23544907D01*
X39948215Y23549683D01*
X39954769Y23575363D01*
X39956455Y23579881D01*
X39956455Y23579885D01*
X39962687Y23596590D01*
X39963466Y23596300D01*
X39966467Y23607967D01*
X40519184Y24806131D01*
X40522108Y24815649D01*
X40529639Y24834497D01*
X40530827Y24836882D01*
X40539769Y24854840D01*
X40587366Y25022125D01*
X40619764Y25076676D01*
X40674907Y25108061D01*
X40738356Y25108061D01*
X40793498Y25076676D01*
X40825897Y25022122D01*
X40878602Y24836882D01*
X40977729Y24637807D01*
X41111754Y24460330D01*
X41276101Y24310508D01*
X41465185Y24193432D01*
X41672561Y24113094D01*
X41702364Y24107523D01*
X41702364Y25448229D01*
X41718977Y25510229D01*
X41764364Y25555616D01*
X41826364Y25572229D01*
X42178364Y25572229D01*
X42240364Y25555616D01*
X42285751Y25510229D01*
X42302364Y25448229D01*
X42302364Y24107523D01*
X42332166Y24113094D01*
X42539542Y24193432D01*
X42728626Y24310508D01*
X42892973Y24460330D01*
X43026998Y24637807D01*
X43126122Y24836877D01*
X43158140Y24949407D01*
X43186194Y24999474D01*
X43233786Y25031547D01*
X43290723Y25038756D01*
X43344807Y25019556D01*
X43384453Y24978060D01*
X43491222Y24795447D01*
X43496595Y24787899D01*
X43506573Y24771266D01*
X43559998Y24663974D01*
X43620290Y24584135D01*
X43683823Y24500004D01*
X43688492Y24493822D01*
X43846062Y24350177D01*
X44027345Y24237931D01*
X44226166Y24160908D01*
X44435754Y24121729D01*
X44648972Y24121729D01*
X44648974Y24121729D01*
X44858562Y24160908D01*
X45057383Y24237931D01*
X45238666Y24350177D01*
X45396236Y24493822D01*
X45524730Y24663974D01*
X45524730Y24663976D01*
X45524732Y24663977D01*
X45581551Y24778087D01*
X45619769Y24854840D01*
X45678120Y25059919D01*
X45697793Y25272229D01*
X45678120Y25484539D01*
X45670810Y25510229D01*
X45650724Y25580825D01*
X45619769Y25689618D01*
X45598373Y25732588D01*
X45524732Y25880482D01*
X45396237Y26050635D01*
X45350907Y26091959D01*
X45238666Y26194281D01*
X45238664Y26194283D01*
X45238661Y26194285D01*
X45220705Y26205403D01*
X45177078Y26251536D01*
X45162006Y26313215D01*
X45179440Y26374269D01*
X45224809Y26418689D01*
X45286211Y26434828D01*
X49658234Y26426548D01*
G37*
%TD.AperFunction*%
%TA.AperFunction,Conductor*%
G36*
X30022584Y17844390D02*
G01*
X30063046Y17789528D01*
X30078571Y17747902D01*
X30078572Y17747901D01*
X30081463Y17744038D01*
X30094988Y17721245D01*
X30096990Y17716860D01*
X30096991Y17716859D01*
X30129515Y17679325D01*
X30135057Y17672446D01*
X30143147Y17661639D01*
X30152690Y17652096D01*
X30158722Y17645617D01*
X30191239Y17608089D01*
X30195295Y17605483D01*
X30215938Y17588848D01*
X31059271Y16745513D01*
X31087722Y16701298D01*
X31549576Y15467302D01*
X31563909Y15440547D01*
X31570232Y15426786D01*
X31591569Y15371709D01*
X31703814Y15190427D01*
X31847461Y15032855D01*
X32017614Y14904360D01*
X32197804Y14814638D01*
X32208478Y14809323D01*
X32331999Y14774178D01*
X32413556Y14750972D01*
X32515584Y14741518D01*
X32580021Y14716121D01*
X32620785Y14660126D01*
X32625158Y14591003D01*
X32591776Y14530317D01*
X32531053Y14497002D01*
X32510717Y14492481D01*
X32495250Y14490055D01*
X32413556Y14482485D01*
X32208476Y14424133D01*
X32017614Y14329097D01*
X31847461Y14200602D01*
X31703814Y14043030D01*
X31591568Y13861746D01*
X31514546Y13662927D01*
X31514546Y13662926D01*
X31475367Y13453338D01*
X31475367Y13240118D01*
X31514546Y13030530D01*
X31552383Y12932860D01*
X31558107Y12918086D01*
X31564574Y12851635D01*
X31535645Y12791462D01*
X31479707Y12755013D01*
X31412976Y12752854D01*
X31354799Y12785612D01*
X29859183Y14281228D01*
X29832303Y14321456D01*
X29822864Y14368909D01*
X29822864Y16759674D01*
X29822864Y17746197D01*
X29841602Y17811737D01*
X29892153Y17857471D01*
X29959238Y17869575D01*
X30022584Y17844390D01*
G37*
%TD.AperFunction*%
%TA.AperFunction,Conductor*%
G36*
X29069233Y28044411D02*
G01*
X29101632Y27989858D01*
X29128137Y27896703D01*
X29141433Y27870000D01*
X29148429Y27852842D01*
X29151963Y27841900D01*
X29764641Y26566326D01*
X29776866Y26512639D01*
X29776866Y26458555D01*
X29767427Y26411102D01*
X29740547Y26370874D01*
X18637579Y15267906D01*
X18579403Y15235148D01*
X18512673Y15237306D01*
X18456735Y15273754D01*
X18427805Y15333926D01*
X18434269Y15400376D01*
X18446109Y15430938D01*
X18451577Y15443071D01*
X18466978Y15472852D01*
X18503023Y15574024D01*
X18653700Y15996958D01*
X18911167Y16719635D01*
X18940291Y16765697D01*
X28003020Y25828427D01*
X28023658Y25845057D01*
X28026955Y25847175D01*
X28026958Y25847178D01*
X28057706Y25882664D01*
X28063742Y25889147D01*
X28072641Y25898046D01*
X28072641Y25898047D01*
X28072645Y25898050D01*
X28080201Y25908146D01*
X28085753Y25915034D01*
X28087637Y25917208D01*
X28116496Y25950512D01*
X28118123Y25954077D01*
X28131647Y25976869D01*
X28133995Y25980004D01*
X28150408Y26024014D01*
X28153796Y26032190D01*
X28156449Y26037999D01*
X28173297Y26074888D01*
X28173853Y26078761D01*
X28180410Y26104450D01*
X28181778Y26108116D01*
X28185128Y26154964D01*
X28186075Y26163766D01*
X28186076Y26163769D01*
X28187866Y26176219D01*
X28187866Y26188807D01*
X28188182Y26197651D01*
X28189131Y26210917D01*
X28191533Y26244501D01*
X28190699Y26248331D01*
X28187866Y26274689D01*
X28187866Y26512639D01*
X28200091Y26566326D01*
X28315258Y26806100D01*
X28812769Y27841899D01*
X28816303Y27852842D01*
X28823299Y27870001D01*
X28836596Y27896702D01*
X28863102Y27989862D01*
X28895498Y28044410D01*
X28950641Y28075796D01*
X29014090Y28075796D01*
X29069233Y28044411D01*
G37*
%TD.AperFunction*%
%TA.AperFunction,Conductor*%
G36*
X35220917Y23091122D02*
G01*
X35273289Y23059936D01*
X35943862Y22389363D01*
X35955644Y22375730D01*
X35967207Y22360199D01*
X35969983Y22356470D01*
X35977000Y22350582D01*
X36007930Y22324628D01*
X36015904Y22317320D01*
X36019814Y22313410D01*
X36044130Y22294184D01*
X36046929Y22291904D01*
X36054471Y22285576D01*
X36093796Y22252578D01*
X36105340Y22242892D01*
X36124186Y22230885D01*
X36131393Y22225187D01*
X36154916Y22208716D01*
X37239267Y21124366D01*
X37251048Y21110734D01*
X37265390Y21091470D01*
X37303355Y21059614D01*
X37311317Y21052316D01*
X37315224Y21048409D01*
X37339542Y21029181D01*
X37342298Y21026937D01*
X37399786Y20978698D01*
X37399788Y20978697D01*
X37400757Y20977884D01*
X37417175Y20967425D01*
X37418321Y20966891D01*
X37418323Y20966889D01*
X37429059Y20961883D01*
X37479455Y20918841D01*
X37500485Y20855990D01*
X37486141Y20791286D01*
X37440520Y20743211D01*
X37376655Y20725500D01*
X37321015Y20725500D01*
X37167635Y20687697D01*
X37027761Y20614284D01*
X36909515Y20509529D01*
X36819780Y20379524D01*
X36763763Y20231819D01*
X36744721Y20075000D01*
X36763763Y19918182D01*
X36773850Y19891584D01*
X36780184Y19868216D01*
X36781529Y19860230D01*
X36895449Y19425569D01*
X36899500Y19394132D01*
X36899500Y17183676D01*
X36890061Y17136223D01*
X36863181Y17095995D01*
X35374233Y15607049D01*
X35320486Y15575464D01*
X35258161Y15574024D01*
X35203013Y15603094D01*
X35168980Y15655325D01*
X35164664Y15717514D01*
X35176367Y15780118D01*
X35176367Y15993338D01*
X35137188Y16202926D01*
X35060165Y16401747D01*
X34947919Y16583030D01*
X34804274Y16740600D01*
X34804273Y16740601D01*
X34804272Y16740602D01*
X34634119Y16869097D01*
X34443257Y16964133D01*
X34238177Y17022485D01*
X34121916Y17033258D01*
X34064864Y17053363D01*
X34024112Y17098066D01*
X34009358Y17156730D01*
X34024113Y17215394D01*
X34064866Y17260096D01*
X34121914Y17280199D01*
X34238177Y17290972D01*
X34443256Y17349323D01*
X34592601Y17423687D01*
X34634119Y17444360D01*
X34634122Y17444362D01*
X34804274Y17572856D01*
X34947919Y17730426D01*
X35060165Y17911709D01*
X35137188Y18110530D01*
X35176367Y18320118D01*
X35176367Y18533338D01*
X35137188Y18742926D01*
X35060165Y18941747D01*
X34947919Y19123030D01*
X34804274Y19280600D01*
X34804273Y19280601D01*
X34804272Y19280602D01*
X34634119Y19409097D01*
X34443257Y19504133D01*
X34238177Y19562485D01*
X34121917Y19573257D01*
X34064865Y19593361D01*
X34024113Y19638064D01*
X34009358Y19696728D01*
X34024113Y19755392D01*
X34064865Y19800095D01*
X34121917Y19820199D01*
X34238177Y19830972D01*
X34238177Y19830973D01*
X34443256Y19889323D01*
X34538297Y19936648D01*
X34634119Y19984360D01*
X34634122Y19984362D01*
X34804274Y20112856D01*
X34947919Y20270426D01*
X35060165Y20451709D01*
X35137188Y20650530D01*
X35176367Y20860118D01*
X35176367Y21073338D01*
X35137188Y21282926D01*
X35060165Y21481747D01*
X34947919Y21663030D01*
X34804274Y21820600D01*
X34804273Y21820601D01*
X34804272Y21820602D01*
X34634119Y21949097D01*
X34443257Y22044133D01*
X34238177Y22102485D01*
X34121917Y22113257D01*
X34064865Y22133361D01*
X34024113Y22178064D01*
X34009358Y22236728D01*
X34024113Y22295392D01*
X34064865Y22340095D01*
X34121917Y22360199D01*
X34238177Y22370972D01*
X34254899Y22375730D01*
X34443256Y22429323D01*
X34538297Y22476648D01*
X34634119Y22524360D01*
X34640164Y22528925D01*
X34804274Y22652856D01*
X34947919Y22810426D01*
X35060165Y22991709D01*
X35069981Y23017049D01*
X35105294Y23066731D01*
X35160013Y23093585D01*
X35220917Y23091122D01*
G37*
%TD.AperFunction*%
%TA.AperFunction,Conductor*%
G36*
X34139057Y28662543D02*
G01*
X34190606Y28631605D01*
X36187802Y26634410D01*
X36218052Y26585047D01*
X36222594Y26527331D01*
X36200439Y26473844D01*
X36156416Y26436244D01*
X36100121Y26422729D01*
X36089101Y26422729D01*
X36020973Y26412803D01*
X35915879Y26361427D01*
X35833166Y26278714D01*
X35781790Y26173620D01*
X35776849Y26139707D01*
X35749180Y26077934D01*
X35693193Y26039894D01*
X35625572Y26036922D01*
X35566464Y26069904D01*
X34924780Y26711588D01*
X34924779Y26711589D01*
X34924777Y26711591D01*
X34821677Y26793111D01*
X34793822Y26806100D01*
X34662671Y26867258D01*
X34490859Y26902734D01*
X34490856Y26902734D01*
X34359330Y26898907D01*
X34315487Y26897631D01*
X34146022Y26852223D01*
X33991600Y26768960D01*
X33860540Y26652326D01*
X33759912Y26508614D01*
X33695138Y26345568D01*
X33688834Y26302532D01*
X33671360Y26183231D01*
X33669711Y26171976D01*
X33685000Y25997204D01*
X33740186Y25830666D01*
X33832288Y25681343D01*
X34735545Y24778087D01*
X34762425Y24737859D01*
X34771864Y24690406D01*
X34771864Y24620774D01*
X34756193Y24560435D01*
X34713142Y24515347D01*
X34653591Y24496906D01*
X34592593Y24509773D01*
X34443253Y24584135D01*
X34238177Y24642485D01*
X34079062Y24657228D01*
X34079061Y24657228D01*
X32572673Y24657228D01*
X32572672Y24657228D01*
X32413556Y24642485D01*
X32208476Y24584133D01*
X32017614Y24489097D01*
X31847461Y24360602D01*
X31703814Y24203030D01*
X31591568Y24021746D01*
X31514546Y23822927D01*
X31501486Y23753064D01*
X31475367Y23613338D01*
X31475367Y23400118D01*
X31507646Y23227441D01*
X31514546Y23190530D01*
X31562505Y23066731D01*
X31591569Y22991709D01*
X31614364Y22954894D01*
X31690455Y22832002D01*
X31703815Y22810426D01*
X31841193Y22659730D01*
X31847461Y22652855D01*
X32017614Y22524360D01*
X32207694Y22429714D01*
X32208478Y22429323D01*
X32331999Y22394178D01*
X32413556Y22370972D01*
X32529816Y22360199D01*
X32586868Y22340095D01*
X32627620Y22295392D01*
X32642375Y22236728D01*
X32627620Y22178064D01*
X32586868Y22133361D01*
X32529816Y22113257D01*
X32413556Y22102485D01*
X32208476Y22044133D01*
X32017614Y21949097D01*
X31847461Y21820602D01*
X31703814Y21663030D01*
X31591568Y21481746D01*
X31514546Y21282927D01*
X31503049Y21221424D01*
X31475367Y21073338D01*
X31475367Y20860118D01*
X31507598Y20687697D01*
X31514546Y20650530D01*
X31591568Y20451711D01*
X31703814Y20270427D01*
X31847461Y20112855D01*
X32017614Y19984360D01*
X32168770Y19909095D01*
X32208478Y19889323D01*
X32282713Y19868201D01*
X32413556Y19830972D01*
X32529816Y19820199D01*
X32586868Y19800095D01*
X32627620Y19755392D01*
X32642375Y19696728D01*
X32627620Y19638064D01*
X32586868Y19593361D01*
X32529816Y19573257D01*
X32413556Y19562485D01*
X32208476Y19504133D01*
X32017614Y19409097D01*
X31847461Y19280602D01*
X31703814Y19123030D01*
X31591568Y18941746D01*
X31514546Y18742927D01*
X31506685Y18700874D01*
X31475367Y18533338D01*
X31475367Y18320118D01*
X31514546Y18110530D01*
X31524204Y18085600D01*
X31558105Y17998089D01*
X31564572Y17931637D01*
X31535643Y17871465D01*
X31479704Y17835016D01*
X31412973Y17832857D01*
X31354799Y17865613D01*
X31059184Y18161230D01*
X31032307Y18201455D01*
X31022868Y18248908D01*
X31022868Y23923555D01*
X31032307Y23971008D01*
X31059187Y24011236D01*
X31398128Y24350177D01*
X33098795Y26050847D01*
X33119431Y26067477D01*
X33123495Y26070087D01*
X33156028Y26107635D01*
X33162032Y26114083D01*
X33171587Y26123637D01*
X33179668Y26134434D01*
X33185217Y26141321D01*
X33217744Y26178857D01*
X33219742Y26183235D01*
X33233274Y26206040D01*
X33233287Y26206058D01*
X33236163Y26209899D01*
X33253520Y26256439D01*
X33256901Y26264600D01*
X33277532Y26309773D01*
X33278218Y26314549D01*
X33284772Y26340229D01*
X33286458Y26344747D01*
X33290000Y26394290D01*
X33290943Y26403055D01*
X33292867Y26416431D01*
X33292867Y26429931D01*
X33293183Y26438777D01*
X33294923Y26463111D01*
X33296725Y26488303D01*
X33296202Y26490704D01*
X33294109Y26530591D01*
X33304805Y26569073D01*
X33895267Y27846773D01*
X33898004Y27855664D01*
X33905515Y27874450D01*
X33916596Y27896702D01*
X33977482Y28110694D01*
X33998010Y28332230D01*
X33979454Y28532484D01*
X33988584Y28591906D01*
X34024593Y28640049D01*
X34079015Y28665597D01*
X34139057Y28662543D01*
G37*
%TD.AperFunction*%
%TA.AperFunction,Conductor*%
G36*
X23989234Y28044410D02*
G01*
X24021633Y27989856D01*
X24050464Y27888524D01*
X24052801Y27882469D01*
X24252831Y27172612D01*
X24285219Y27057677D01*
X24285846Y26992723D01*
X24253548Y26936364D01*
X23011205Y25694021D01*
X22959951Y25663173D01*
X22900218Y25659912D01*
X22845910Y25684996D01*
X22809665Y25732588D01*
X22805311Y25742681D01*
X22779377Y25802804D01*
X22674610Y25943530D01*
X22666286Y25950515D01*
X22540216Y26056301D01*
X22383429Y26135042D01*
X22212723Y26175500D01*
X22212721Y26175500D01*
X21913706Y26175500D01*
X21895736Y26176809D01*
X21881746Y26178858D01*
X21871977Y26180289D01*
X21871976Y26180289D01*
X21822631Y26175972D01*
X21811824Y26175500D01*
X21806291Y26175500D01*
X21775501Y26171902D01*
X21771917Y26171536D01*
X21695961Y26164891D01*
X21676921Y26160670D01*
X21605232Y26134579D01*
X21601831Y26133397D01*
X21529479Y26109421D01*
X21511925Y26100923D01*
X21448228Y26059030D01*
X21445190Y26057095D01*
X21380281Y26017057D01*
X21365164Y26004744D01*
X21312848Y25949292D01*
X21310336Y25946706D01*
X18751048Y23387417D01*
X18701685Y23357167D01*
X18643969Y23352625D01*
X18590482Y23374780D01*
X18552882Y23418803D01*
X18539367Y23475098D01*
X18539367Y23613336D01*
X18539367Y23613338D01*
X18500188Y23822926D01*
X18461526Y23922722D01*
X18458461Y23931627D01*
X18446501Y23971195D01*
X18175231Y24566987D01*
X17991724Y24970022D01*
X17980611Y25018547D01*
X17989478Y25067534D01*
X18016894Y25109082D01*
X19079221Y26171407D01*
X19370925Y26463112D01*
X19411153Y26489991D01*
X19458606Y26499430D01*
X20239201Y26499430D01*
X20310799Y26499430D01*
X20832786Y26499430D01*
X20859144Y26496596D01*
X20863856Y26495571D01*
X20863856Y26495572D01*
X20863857Y26495571D01*
X20913391Y26499115D01*
X20922238Y26499430D01*
X20935727Y26499430D01*
X20935729Y26499430D01*
X20949089Y26501352D01*
X20957881Y26502297D01*
X21007413Y26505839D01*
X21011931Y26507525D01*
X21037611Y26514079D01*
X21042387Y26514765D01*
X21087567Y26535400D01*
X21095721Y26538777D01*
X21142261Y26556134D01*
X21146119Y26559023D01*
X21168927Y26572555D01*
X21173303Y26574553D01*
X21210836Y26607077D01*
X21217712Y26612617D01*
X21228523Y26620709D01*
X21238085Y26630272D01*
X21244533Y26636276D01*
X21282073Y26668802D01*
X21284681Y26672861D01*
X21301312Y26693500D01*
X21511530Y26903718D01*
X21542089Y26926095D01*
X21577979Y26938204D01*
X22681264Y27129901D01*
X22702486Y27131730D01*
X22743608Y27131730D01*
X22743610Y27131730D01*
X22962307Y27172612D01*
X23169768Y27252983D01*
X23358929Y27370106D01*
X23419482Y27425307D01*
X23523347Y27519993D01*
X23523350Y27519997D01*
X23657425Y27697541D01*
X23756596Y27896702D01*
X23756595Y27896702D01*
X23756597Y27896704D01*
X23783101Y27989856D01*
X23815500Y28044410D01*
X23870642Y28075795D01*
X23934091Y28075795D01*
X23989234Y28044410D01*
G37*
%TD.AperFunction*%
%TA.AperFunction,Conductor*%
G36*
X26529234Y28044410D02*
G01*
X26561633Y27989856D01*
X26588137Y27896704D01*
X26601433Y27870000D01*
X26608429Y27852842D01*
X26611963Y27841900D01*
X27224641Y26566326D01*
X27236866Y26512639D01*
X27236866Y26458552D01*
X27227427Y26411099D01*
X27200547Y26370871D01*
X24261080Y23431405D01*
X24208856Y23400263D01*
X24148106Y23397693D01*
X24093438Y23424312D01*
X24057996Y23473719D01*
X24050303Y23534031D01*
X24055278Y23575000D01*
X24036237Y23731818D01*
X23980220Y23879523D01*
X23890483Y24009530D01*
X23772240Y24114283D01*
X23758053Y24121729D01*
X23632364Y24187697D01*
X23478985Y24225500D01*
X23321015Y24225500D01*
X23321014Y24225500D01*
X23271555Y24213310D01*
X23207861Y24214465D01*
X23153146Y24247092D01*
X23121851Y24302580D01*
X23122237Y24366283D01*
X23154198Y24421386D01*
X25160246Y26427434D01*
X25163568Y26430633D01*
X25197918Y26462478D01*
X25205516Y26471801D01*
X25213943Y26481131D01*
X25478797Y26745985D01*
X25499436Y26762616D01*
X25503495Y26765224D01*
X25536021Y26802764D01*
X25542025Y26809212D01*
X25551587Y26818773D01*
X25559681Y26829587D01*
X25565218Y26836459D01*
X25597744Y26873994D01*
X25599743Y26878373D01*
X25613273Y26901178D01*
X25616162Y26905035D01*
X25633518Y26951572D01*
X25636901Y26959736D01*
X25664940Y27021130D01*
X25666661Y27020344D01*
X25683003Y27057604D01*
X25683063Y27057677D01*
X26042296Y27498400D01*
X26042303Y27498412D01*
X26044121Y27500641D01*
X26056693Y27513928D01*
X26063348Y27519994D01*
X26197425Y27697541D01*
X26296596Y27896702D01*
X26296595Y27896702D01*
X26296597Y27896704D01*
X26323101Y27989856D01*
X26355500Y28044410D01*
X26410642Y28075795D01*
X26474091Y28075795D01*
X26529234Y28044410D01*
G37*
%TD.AperFunction*%
%TA.AperFunction,Conductor*%
G36*
X17790367Y28615617D02*
G01*
X17835754Y28570230D01*
X17852367Y28508230D01*
X17852367Y27082231D01*
X18275054Y27082231D01*
X18331349Y27068716D01*
X18375372Y27031116D01*
X18397527Y26977629D01*
X18392985Y26919913D01*
X18362735Y26870550D01*
X18353965Y26861780D01*
X17082436Y25590252D01*
X17061803Y25573623D01*
X17057739Y25571012D01*
X17025218Y25533481D01*
X17019197Y25527013D01*
X17009644Y25517459D01*
X17001544Y25506640D01*
X16995999Y25499760D01*
X16963491Y25462243D01*
X16961485Y25457850D01*
X16947965Y25435065D01*
X16945070Y25431199D01*
X16927718Y25384676D01*
X16924333Y25376502D01*
X16903701Y25331322D01*
X16903014Y25326544D01*
X16896463Y25300877D01*
X16894776Y25296353D01*
X16893693Y25281218D01*
X16885306Y25244435D01*
X16866247Y25211876D01*
X16452815Y24703035D01*
X16409869Y24669264D01*
X16356577Y24657228D01*
X15935672Y24657228D01*
X15776556Y24642485D01*
X15571476Y24584133D01*
X15380614Y24489097D01*
X15210460Y24360601D01*
X15187666Y24335597D01*
X15138887Y24302779D01*
X15080474Y24296117D01*
X15025558Y24317109D01*
X14986484Y24361037D01*
X14972035Y24418023D01*
X14953496Y26485098D01*
X14962718Y26533144D01*
X14989806Y26573881D01*
X16033265Y27617341D01*
X16040645Y27624145D01*
X16080970Y27658396D01*
X16080970Y27658398D01*
X16091250Y27667128D01*
X16091882Y27666384D01*
X16127517Y27694715D01*
X16187756Y27705265D01*
X16245711Y27685740D01*
X16287286Y27640889D01*
X16302367Y27581622D01*
X16302367Y27450753D01*
X16317203Y27357081D01*
X16374725Y27244185D01*
X16464320Y27154590D01*
X16577220Y27097065D01*
X16670883Y27082230D01*
X17252367Y27082230D01*
X17252367Y28508230D01*
X17268980Y28570230D01*
X17314367Y28615617D01*
X17376367Y28632230D01*
X17728367Y28632230D01*
X17790367Y28615617D01*
G37*
%TD.AperFunction*%
%TD*%
%TA.AperFunction,Conductor*%
%TO.N,/AUX_GND*%
G36*
X49715798Y20452930D02*
G01*
X49763624Y20407319D01*
X49781228Y20343618D01*
X49781088Y19256078D01*
X49780085Y19240353D01*
X49774848Y19199433D01*
X49771267Y19181771D01*
X49767025Y19166606D01*
X49762684Y19153816D01*
X49754605Y19133690D01*
X49748886Y19121425D01*
X49738665Y19102305D01*
X49731652Y19090749D01*
X49719418Y19072866D01*
X49711194Y19062148D01*
X49697077Y19045690D01*
X49687723Y19035919D01*
X49671903Y19021102D01*
X49661547Y19012412D01*
X49644213Y18999409D01*
X49632973Y18991898D01*
X49614321Y18980856D01*
X49602321Y18974610D01*
X49582576Y18965665D01*
X49569994Y18960772D01*
X49555402Y18955994D01*
X49539732Y18952119D01*
X49529621Y18947931D01*
X49520765Y18944653D01*
X49510364Y18941248D01*
X49495949Y18933984D01*
X49218967Y18819254D01*
X49208064Y18817191D01*
X49155065Y18792879D01*
X49150822Y18791028D01*
X49132033Y18783245D01*
X49115882Y18770854D01*
X49112163Y18768110D01*
X49064616Y18734373D01*
X49057378Y18725963D01*
X48854129Y18570010D01*
X48844124Y18565191D01*
X48799228Y18527994D01*
X48795610Y18525109D01*
X48779484Y18512735D01*
X48767104Y18496601D01*
X48764216Y18492979D01*
X48727021Y18448088D01*
X48722204Y18438087D01*
X48566247Y18234837D01*
X48557834Y18227595D01*
X48524100Y18180051D01*
X48521349Y18176324D01*
X48508968Y18160188D01*
X48501185Y18141400D01*
X48499335Y18137159D01*
X48475022Y18084158D01*
X48472958Y18073254D01*
X48374921Y17836571D01*
X48368671Y17827402D01*
X48348393Y17772752D01*
X48346701Y17768439D01*
X48338915Y17749642D01*
X48336261Y17729488D01*
X48335570Y17724910D01*
X48325803Y17667420D01*
X48326632Y17656351D01*
X48293192Y17402357D01*
X48289525Y17391877D01*
X48284083Y17333837D01*
X48283565Y17329233D01*
X48280910Y17309067D01*
X48283564Y17288910D01*
X48284083Y17284302D01*
X48289525Y17226255D01*
X48293193Y17215773D01*
X48326632Y16961790D01*
X48325803Y16950721D01*
X48335569Y16893240D01*
X48336259Y16888662D01*
X48338914Y16868503D01*
X48340370Y16864987D01*
X48340371Y16864983D01*
X48346704Y16849694D01*
X48348396Y16845382D01*
X48368677Y16790724D01*
X48374926Y16781560D01*
X48472958Y16544890D01*
X48475022Y16533983D01*
X48499330Y16480995D01*
X48501182Y16476750D01*
X48508967Y16457957D01*
X48521340Y16441833D01*
X48524095Y16438100D01*
X48557842Y16390537D01*
X48566254Y16383299D01*
X48722205Y16180060D01*
X48727019Y16170065D01*
X48764225Y16125159D01*
X48767117Y16121532D01*
X48779484Y16105414D01*
X48782502Y16103098D01*
X48782505Y16103095D01*
X48795637Y16093019D01*
X48799231Y16090152D01*
X48844147Y16052937D01*
X48854141Y16048125D01*
X49057370Y15892178D01*
X49064616Y15883758D01*
X49086443Y15868273D01*
X49112195Y15850002D01*
X49115910Y15847259D01*
X49132022Y15834894D01*
X49135541Y15833437D01*
X49135542Y15833436D01*
X49150816Y15827110D01*
X49155052Y15825261D01*
X49208057Y15800945D01*
X49218968Y15798882D01*
X49495954Y15684154D01*
X49510367Y15676890D01*
X49520765Y15673486D01*
X49529639Y15670201D01*
X49539741Y15666017D01*
X49555407Y15662145D01*
X49560536Y15660466D01*
X49569986Y15657372D01*
X49582571Y15652479D01*
X49602322Y15643530D01*
X49614319Y15637284D01*
X49632977Y15626238D01*
X49644183Y15618751D01*
X49661551Y15605725D01*
X49671910Y15597033D01*
X49687731Y15582213D01*
X49697070Y15572457D01*
X49711190Y15555999D01*
X49719411Y15545286D01*
X49731664Y15527375D01*
X49738672Y15515826D01*
X49748890Y15496708D01*
X49754602Y15484457D01*
X49762679Y15464339D01*
X49767024Y15451541D01*
X49772863Y15430665D01*
X49775791Y15417457D01*
X49779320Y15396076D01*
X49780789Y15382656D01*
X49782043Y15359709D01*
X49782456Y15352148D01*
X49782640Y15345388D01*
X49782639Y14331662D01*
X49782639Y14317193D01*
X49766026Y14255193D01*
X49720639Y14209806D01*
X49658639Y14193193D01*
X49224967Y14193193D01*
X49178225Y14202340D01*
X48356691Y14536683D01*
X48327093Y14553821D01*
X47714299Y15032571D01*
X47690522Y15057124D01*
X47140944Y15809184D01*
X47124707Y15839478D01*
X46921682Y16390537D01*
X46855367Y16570531D01*
X46848869Y16596568D01*
X46822272Y16790724D01*
X46752867Y17297381D01*
X46752611Y17329040D01*
X46848646Y18126115D01*
X46857334Y18159065D01*
X47174696Y18918813D01*
X47190084Y18945641D01*
X47690314Y19609414D01*
X47714455Y19633615D01*
X48347832Y20113447D01*
X48375637Y20129324D01*
X49120912Y20435076D01*
X49162071Y20444212D01*
X49651338Y20467493D01*
X49715798Y20452930D01*
G37*
%TD.AperFunction*%
%TD*%
%TA.AperFunction,Conductor*%
%TO.N,GND*%
G36*
X14981097Y7584914D02*
G01*
X15018732Y7540996D01*
X15032353Y7484784D01*
X15034278Y6662978D01*
X15024895Y6615371D01*
X14997962Y6575009D01*
X14988818Y6565866D01*
X14858299Y6379463D01*
X14762128Y6173226D01*
X14703231Y5953418D01*
X14683398Y5726728D01*
X14703231Y5500039D01*
X14762128Y5280231D01*
X14858299Y5073993D01*
X14988820Y4887588D01*
X15038552Y4837856D01*
X15046346Y1509747D01*
X14993569Y1471438D01*
X14986783Y1466847D01*
X14681347Y1274597D01*
X14674271Y1270463D01*
X14356798Y1098803D01*
X14349467Y1095147D01*
X14021377Y944837D01*
X14013817Y941671D01*
X13676502Y813357D01*
X13668753Y810699D01*
X13323696Y704936D01*
X13315786Y702795D01*
X12964496Y620054D01*
X12956463Y618440D01*
X12600473Y559080D01*
X12592352Y558000D01*
X12233236Y522277D01*
X12225058Y521736D01*
X11859020Y509638D01*
X11854924Y509570D01*
X8049353Y509570D01*
X7991904Y523681D01*
X7947530Y562802D01*
X7926331Y618029D01*
X7933130Y676793D01*
X7966379Y725719D01*
X8007639Y762869D01*
X8012521Y767039D01*
X8028380Y779881D01*
X8042801Y794304D01*
X8047472Y798736D01*
X8097888Y844129D01*
X8106129Y855474D01*
X8118760Y870263D01*
X14820677Y7572179D01*
X14869980Y7602407D01*
X14927636Y7606985D01*
X14981097Y7584914D01*
G37*
%TD.AperFunction*%
%TA.AperFunction,Conductor*%
G36*
X14622867Y20879330D02*
G01*
X14676244Y20838125D01*
X14700165Y20775079D01*
X14703231Y20740039D01*
X14762128Y20520231D01*
X14858299Y20313994D01*
X14980458Y20139531D01*
X14997100Y20105834D01*
X15002883Y20068698D01*
X15004618Y19327817D01*
X14998923Y19290378D01*
X14982193Y19256404D01*
X14858299Y19079464D01*
X14762128Y18873226D01*
X14703231Y18653418D01*
X14683398Y18426728D01*
X14703231Y18200039D01*
X14762128Y17980231D01*
X14858299Y17773993D01*
X14986426Y17591007D01*
X15003068Y17557310D01*
X15008851Y17520175D01*
X15010547Y16796285D01*
X15004852Y16758845D01*
X14988122Y16724871D01*
X14858299Y16539464D01*
X14762128Y16333226D01*
X14703231Y16113418D01*
X14683398Y15886728D01*
X14703231Y15660039D01*
X14762128Y15440231D01*
X14858299Y15233993D01*
X14992395Y15042483D01*
X15009037Y15008786D01*
X15014820Y14971650D01*
X15016475Y14264750D01*
X15010780Y14227311D01*
X14994050Y14193337D01*
X14858299Y13999464D01*
X14762128Y13793226D01*
X14703231Y13573418D01*
X14683398Y13346728D01*
X14703231Y13120039D01*
X14703232Y13120036D01*
X14762128Y12900232D01*
X14785631Y12849830D01*
X14797063Y12790649D01*
X14779239Y12733069D01*
X14736371Y12690695D01*
X14698135Y12668081D01*
X14698133Y12668080D01*
X14698134Y12668080D01*
X14683125Y12653072D01*
X14668336Y12640442D01*
X14651164Y12627966D01*
X14622057Y12592782D01*
X14614196Y12584144D01*
X6496873Y4466819D01*
X6456645Y4439939D01*
X6409192Y4430500D01*
X4138093Y4430500D01*
X4116882Y4432842D01*
X4044312Y4430561D01*
X4040417Y4430500D01*
X4011662Y4430500D01*
X4007289Y4429948D01*
X3995657Y4429033D01*
X3950016Y4427599D01*
X3929631Y4421676D01*
X3910582Y4417731D01*
X3889531Y4415072D01*
X3847077Y4398264D01*
X3836031Y4394482D01*
X3792187Y4381744D01*
X3773918Y4370939D01*
X3756450Y4362382D01*
X3745051Y4357868D01*
X3736714Y4354567D01*
X3699779Y4327734D01*
X3690023Y4321325D01*
X3650723Y4298082D01*
X3635713Y4283072D01*
X3620924Y4270442D01*
X3603752Y4257966D01*
X3574645Y4222782D01*
X3566784Y4214144D01*
X2139461Y2786819D01*
X2099233Y2759939D01*
X2051780Y2750500D01*
X1666295Y2750500D01*
X1618842Y2759939D01*
X1578614Y2786819D01*
X1034561Y3330872D01*
X1007681Y3371100D01*
X998242Y3418553D01*
X998242Y5728102D01*
X1011030Y5782946D01*
X1046756Y5826478D01*
X1098051Y5849719D01*
X1154335Y5847877D01*
X1234199Y5826478D01*
X1314592Y5804937D01*
X1550000Y5784341D01*
X1785408Y5804937D01*
X2013663Y5866097D01*
X2013662Y5866097D01*
X2024143Y5868905D01*
X2024625Y5867103D01*
X2060246Y5875000D01*
X2774999Y5875000D01*
X2775000Y5875000D01*
X3214537Y6338425D01*
X3263541Y6370129D01*
X3389522Y6414211D01*
X3542262Y6510184D01*
X3669816Y6637738D01*
X3765789Y6790478D01*
X3825368Y6960745D01*
X3825368Y6960749D01*
X3828626Y6970058D01*
X3855694Y7014429D01*
X4198881Y7376267D01*
X4233569Y7401927D01*
X4274954Y7414148D01*
X4279255Y7414632D01*
X4449522Y7474211D01*
X4602262Y7570184D01*
X4729816Y7697738D01*
X4825789Y7850478D01*
X4885368Y8020745D01*
X4890857Y8069466D01*
X4901654Y8107895D01*
X4924102Y8140902D01*
X5479939Y8726948D01*
X5514631Y8752611D01*
X5548347Y8762566D01*
X5554249Y8764632D01*
X5554255Y8764632D01*
X5724522Y8824211D01*
X5877262Y8920184D01*
X6004816Y9047738D01*
X6100789Y9200478D01*
X6160368Y9370745D01*
X6165128Y9412992D01*
X6175924Y9451418D01*
X6198372Y9484426D01*
X11975000Y15575000D01*
X11975000Y16316415D01*
X11991614Y16378417D01*
X12002178Y16396715D01*
X12002179Y16396716D01*
X12006509Y16410047D01*
X12013956Y16428026D01*
X12020320Y16440512D01*
X12037875Y16506030D01*
X12039707Y16512218D01*
X12060674Y16576744D01*
X12062140Y16590695D01*
X12065683Y16609810D01*
X12069313Y16623355D01*
X12072862Y16691097D01*
X12073371Y16697552D01*
X12075500Y16717804D01*
X12075500Y16738175D01*
X12075670Y16744664D01*
X12076413Y16758845D01*
X12079219Y16812388D01*
X12077026Y16826229D01*
X12075500Y16845626D01*
X12075500Y18525340D01*
X12094506Y18591312D01*
X12145698Y18637060D01*
X12213384Y18648560D01*
X12249999Y18644435D01*
X12249999Y18644436D01*
X12250000Y18644435D01*
X12429255Y18664632D01*
X12599522Y18724211D01*
X12752262Y18820184D01*
X12879816Y18947738D01*
X12975789Y19100478D01*
X13035368Y19270745D01*
X13055565Y19450000D01*
X13047789Y19519012D01*
X13055382Y19577685D01*
X13089297Y19626162D01*
X14494932Y20857545D01*
X14555819Y20886510D01*
X14622867Y20879330D01*
G37*
%TD.AperFunction*%
%TD*%
M02*
