%TF.GenerationSoftware,KiCad,Pcbnew,7.0.1*%
%TF.CreationDate,2024-01-24T12:52:34+01:00*%
%TF.ProjectId,PX-CORE,50582d43-4f52-4452-9e6b-696361645f70,rev?*%
%TF.SameCoordinates,PX675d18cPY8cbe71c*%
%TF.FileFunction,Profile,NP*%
%FSLAX46Y46*%
G04 Gerber Fmt 4.6, Leading zero omitted, Abs format (unit mm)*
G04 Created by KiCad (PCBNEW 7.0.1) date 2024-01-24 12:52:34*
%MOMM*%
%LPD*%
G01*
G04 APERTURE LIST*
%TA.AperFunction,Profile*%
%ADD10C,0.100000*%
%TD*%
G04 APERTURE END LIST*
D10*
X49934066Y15575600D02*
X49955345Y15522600D01*
X32218Y15575600D02*
X10939Y15522600D01*
X19343411Y30906800D02*
X19723885Y30868959D01*
X49104461Y1187751D02*
X49363202Y1482783D01*
X31737759Y31169395D02*
X31372192Y31057344D01*
X12242400Y34296436D02*
X11462365Y34312231D01*
X36594094Y510093D02*
X36966262Y422434D01*
X15706014Y32846120D02*
X15412091Y33090666D01*
X49750353Y18828386D02*
X49796037Y18862656D01*
X35187216Y33518944D02*
X35523551Y33700805D01*
X1043804Y18369730D02*
X733143Y18608109D01*
X16863626Y31850127D02*
X17187217Y31646446D01*
X17871164Y3312800D02*
X18228528Y3448747D01*
X1483141Y33907148D02*
X1835094Y34080710D01*
X13000022Y34195706D02*
X12622880Y34258594D01*
X40152365Y34312231D02*
X38802365Y34292231D01*
X18594093Y3560791D02*
X18966264Y3648450D01*
X46983144Y34309071D02*
X47374724Y34283406D01*
X13372191Y34108049D02*
X13000022Y34195706D01*
X17187215Y2971692D02*
X17523551Y3153550D01*
X32095126Y31305335D02*
X31737759Y31169395D01*
X49233146Y18608107D02*
X49594915Y18757956D01*
X48131191Y537430D02*
X48483143Y710994D01*
X10112365Y34312231D02*
X2983141Y34309070D01*
X265078Y15818845D02*
X215933Y15789756D01*
X32218Y19042543D02*
X10942Y19095541D01*
X861820Y33430390D02*
X1156857Y33689126D01*
X13372194Y510093D02*
X13000025Y422434D01*
X18228525Y31169390D02*
X18594094Y31057347D01*
X34863625Y33315269D02*
X35187216Y33518944D01*
X32779069Y2971691D02*
X32442737Y3153550D01*
X49874901Y15673100D02*
X49907145Y15625967D01*
X128567Y15716445D02*
X91383Y15673102D01*
X10939Y15522600D02*
X-4443Y15467603D01*
X49981586Y19235395D02*
X49983143Y31309068D01*
X385064Y32809071D02*
X603082Y33135355D01*
X-19820Y20557410D02*
X-16857Y31309070D01*
X12622880Y34258594D02*
X12242400Y34296436D01*
X37343405Y359547D02*
X37723883Y321701D01*
X-13745Y19206879D02*
X-16857Y19263910D01*
X34554194Y33090669D02*
X34863625Y33315269D01*
X385065Y1809069D02*
X603084Y1482788D01*
X1282183Y18059069D02*
X1043804Y18369730D01*
X17187217Y31646446D02*
X17523548Y31464588D01*
X16260276Y2298868D02*
X15706011Y1772018D01*
X48684105Y18059072D02*
X48922481Y18369733D01*
X1282180Y16559072D02*
X1432035Y16920843D01*
X49983139Y14309071D02*
X49983142Y15354232D01*
X32442737Y3153550D02*
X32095125Y3312802D01*
X-16861Y3309070D02*
X8807Y2917491D01*
X37723882Y34296436D02*
X38802365Y34292231D01*
X35871158Y33860052D02*
X36228528Y33996001D01*
X2983144Y309068D02*
X11860263Y309070D01*
X49754781Y32457117D02*
X49880920Y32085526D01*
X34863624Y1302865D02*
X35187211Y1099193D01*
X49907145Y15625967D02*
X49934066Y15575600D01*
X1835094Y34080710D02*
X2206684Y34206847D01*
X35871158Y758086D02*
X36228527Y622138D01*
X49594915Y15860182D02*
X49233139Y16010030D01*
X85366Y2532612D02*
X211504Y2161018D01*
X47759600Y34206848D02*
X48131192Y34080707D01*
X2591565Y334735D02*
X2983144Y309068D01*
X32442740Y31464591D02*
X32095126Y31305335D01*
X34260270Y32846121D02*
X34554194Y33090669D01*
X18228528Y3448747D02*
X18594093Y3560791D01*
X49594915Y15860182D02*
X49649189Y15842413D01*
X14779069Y33518946D02*
X14442738Y33700802D01*
X49957476Y2917490D02*
X49983142Y3309071D01*
X49701208Y15818847D02*
X49750349Y15789752D01*
X30242403Y30868954D02*
X29860260Y30856321D01*
X8807Y2917491D02*
X85366Y2532612D01*
X15412093Y1527473D02*
X15102661Y1302871D01*
X49874903Y18945042D02*
X49907143Y18992173D01*
X215933Y15789756D02*
X170250Y15755486D01*
X34260270Y32846121D02*
X33706013Y32319271D01*
X1483141Y710992D02*
X1835095Y537430D01*
X1835095Y537430D02*
X2206684Y411291D01*
X-4443Y15467603D02*
X-13743Y15411256D01*
X15102663Y33315268D02*
X14779069Y33518946D01*
X30242402Y3749181D02*
X29860258Y3761818D01*
X48922481Y18369733D02*
X49233146Y18608107D01*
X170250Y15755486D02*
X128567Y15716445D01*
X19343409Y3711344D02*
X19723885Y3749185D01*
X49980027Y15411256D02*
X49983142Y15354232D01*
X38106024Y309067D02*
X46983142Y309071D01*
X48534254Y17697299D02*
X48684105Y18059072D01*
X59139Y18992173D02*
X32218Y19042543D01*
X16863630Y2768014D02*
X17187215Y2971692D01*
X-16861Y3309070D02*
X-16857Y14309066D01*
X30622877Y3711341D02*
X30242402Y3749181D01*
X49955344Y19095538D02*
X49970727Y19150535D01*
X49233139Y16010030D02*
X48922485Y16248409D01*
X32779070Y31646447D02*
X32442740Y31464591D01*
X47374721Y334732D02*
X47759602Y411292D01*
X215931Y18828388D02*
X170250Y18862654D01*
X211504Y2161018D02*
X385065Y1809069D01*
X48922485Y16248409D02*
X48684104Y16559071D01*
X31737756Y3448745D02*
X31372191Y3560793D01*
X26080181Y30867414D02*
X29860260Y30856321D01*
X11462365Y34312231D02*
X10112365Y34312231D01*
X13000025Y422434D02*
X12622878Y359546D01*
X16554193Y32074726D02*
X16863626Y31850127D01*
X48483143Y710994D02*
X48809427Y929010D01*
X36966262Y422434D02*
X37343405Y359547D01*
X49363202Y1482783D02*
X49581217Y1809068D01*
X49837716Y15716445D02*
X49874901Y15673100D01*
X37723883Y321701D02*
X38106024Y309067D01*
X17523551Y3153550D02*
X17871164Y3312800D01*
X49363202Y33135356D02*
X49581219Y32809070D01*
X31000023Y30969684D02*
X30622876Y30906799D01*
X16260273Y32319272D02*
X15706014Y32846120D01*
X2591563Y34283405D02*
X2983141Y34309070D01*
X14442737Y917336D02*
X14095128Y758083D01*
X19723885Y30868959D02*
X20106028Y30856319D01*
X15102661Y1302871D02*
X14779073Y1099197D01*
X1432035Y16920843D02*
X1483144Y17309068D01*
X33412088Y32074725D02*
X33102659Y31850121D01*
X128570Y18901696D02*
X91385Y18945039D01*
X13737761Y622142D02*
X13372194Y510093D01*
X49594915Y18757956D02*
X49649191Y18775726D01*
X47374724Y34283406D02*
X47759600Y34206848D01*
X49907143Y18992173D02*
X49934066Y19042537D01*
X31372192Y31057344D02*
X31000023Y30969684D01*
X49649189Y15842413D02*
X49701208Y15818847D01*
X30622876Y30906799D02*
X30242403Y30868954D01*
X33102659Y31850121D02*
X32779070Y31646447D01*
X34260272Y1772020D02*
X34554195Y1527475D01*
X2206684Y34206847D02*
X2591563Y34283405D01*
X49754784Y2161019D02*
X49880920Y2532614D01*
X32095125Y3312802D02*
X31737756Y3448745D01*
X49581217Y1809068D02*
X49754784Y2161019D01*
X-13743Y15411256D02*
X-16859Y15354230D01*
X603084Y1482788D02*
X861824Y1187749D01*
X47759602Y411292D02*
X48131191Y537430D01*
X36594093Y34108048D02*
X36966260Y34195704D01*
X49970728Y15467600D02*
X49980027Y15411256D01*
X16260276Y2298868D02*
X16554195Y2543417D01*
X49970727Y19150535D02*
X49981586Y19235395D01*
X35187211Y1099193D02*
X35523548Y917334D01*
X34554195Y1527475D02*
X34863624Y1302865D01*
X48684104Y16559071D02*
X48534254Y16920841D01*
X-19820Y20557410D02*
X-16857Y19263910D01*
X-16857Y31309070D02*
X8808Y31700644D01*
X18594094Y31057347D02*
X18966262Y30969689D01*
X2206684Y411291D02*
X2591565Y334735D01*
X49701211Y18799294D02*
X49750353Y18828386D01*
X46983144Y34309071D02*
X40152365Y34312231D01*
X15706011Y1772018D02*
X15412093Y1527473D01*
X49983142Y3309071D02*
X49983139Y14309071D01*
X49104463Y33430387D02*
X49363202Y33135356D01*
X48483141Y17309069D02*
X48534254Y17697299D01*
X26080181Y30867414D02*
X24338406Y30873376D01*
X85367Y32085526D02*
X211507Y32457122D01*
X49750349Y15789752D02*
X49796036Y15755486D01*
X16260273Y32319272D02*
X16554193Y32074726D01*
X49837718Y18901693D02*
X49874903Y18945042D01*
X48131192Y34080707D02*
X48483143Y33907149D01*
X48483143Y33907149D02*
X48809423Y33689128D01*
X170250Y18862654D02*
X128570Y18901696D01*
X371370Y18757957D02*
X317098Y18775724D01*
X49880920Y2532614D02*
X49957476Y2917490D01*
X14442738Y33700802D02*
X14095129Y33860056D01*
X17523548Y31464588D02*
X17871159Y31305341D01*
X18966264Y3648450D02*
X19343409Y3711344D01*
X-16859Y15354230D02*
X-16857Y14309066D01*
X12622878Y359546D02*
X12242404Y321699D01*
X49796036Y15755486D02*
X49837716Y15716445D01*
X211507Y32457122D02*
X385064Y32809071D01*
X265079Y18799295D02*
X215931Y18828388D01*
X17871159Y31305341D02*
X18228525Y31169390D01*
X33102655Y2768017D02*
X32779069Y2971691D01*
X16554195Y2543417D02*
X16863630Y2768014D01*
X35523551Y33700805D02*
X35871158Y33860052D01*
X19723885Y3749185D02*
X20106026Y3761816D01*
X371374Y15860181D02*
X317096Y15842410D01*
X1156858Y929009D02*
X1483141Y710992D01*
X31000023Y3648453D02*
X30622877Y3711341D01*
X13737757Y33996004D02*
X13372191Y34108049D01*
X861824Y1187749D02*
X1156858Y929009D01*
X49957477Y31700648D02*
X49983143Y31309068D01*
X603082Y33135355D02*
X861820Y33430390D01*
X317098Y18775724D02*
X265079Y18799295D01*
X49649191Y18775726D02*
X49701211Y18799294D01*
X1432032Y17697301D02*
X1282183Y18059069D01*
X33706013Y32319271D02*
X33412088Y32074725D01*
X14095128Y758083D02*
X13737761Y622142D01*
X91385Y18945039D02*
X59139Y18992173D01*
X35523548Y917334D02*
X35871158Y758086D01*
X37343406Y34258592D02*
X37723882Y34296436D01*
X18966262Y30969689D02*
X19343411Y30906800D01*
X48534254Y16920841D02*
X48483141Y17309069D01*
X59139Y15625963D02*
X32218Y15575600D01*
X371374Y15860181D02*
X733145Y16010033D01*
X733143Y18608109D02*
X371370Y18757957D01*
X49955345Y15522600D02*
X49970728Y15467600D01*
X34260272Y1772020D02*
X33706010Y2298865D01*
X33412089Y2543414D02*
X33102655Y2768017D01*
X48809427Y929010D02*
X49104461Y1187751D01*
X317096Y15842410D02*
X265078Y15818845D01*
X8808Y31700644D02*
X85367Y32085526D01*
X46983142Y309071D02*
X47374721Y334732D01*
X31372191Y3560793D02*
X31000023Y3648453D01*
X14779073Y1099197D02*
X14442737Y917336D01*
X91383Y15673102D02*
X59139Y15625963D01*
X1483144Y17309068D02*
X1432032Y17697301D01*
X48809423Y33689128D02*
X49104463Y33430387D01*
X36228528Y33996001D02*
X36594093Y34108048D01*
X1043801Y16248415D02*
X1282180Y16559072D01*
X49581219Y32809070D02*
X49754781Y32457117D01*
X20106028Y30856319D02*
X24338406Y30873376D01*
X49796037Y18862656D02*
X49837718Y18901693D01*
X14095129Y33860056D02*
X13737757Y33996004D01*
X10942Y19095541D02*
X-4440Y19150539D01*
X1156857Y33689126D02*
X1483141Y33907148D01*
X49934066Y19042537D02*
X49955344Y19095538D01*
X33706010Y2298865D02*
X33412089Y2543414D01*
X-4440Y19150539D02*
X-13745Y19206879D01*
X36966260Y34195704D02*
X37343406Y34258592D01*
X49880920Y32085526D02*
X49957477Y31700648D01*
X36228527Y622138D02*
X36594094Y510093D01*
X29860258Y3761818D02*
X20106026Y3761816D01*
X12242404Y321699D02*
X11860263Y309070D01*
X733145Y16010033D02*
X1043801Y16248415D01*
X15412091Y33090666D02*
X15102663Y33315268D01*
M02*
