M48
; DRILL file {KiCad 7.0.1} date Wed Jan 24 12:52:47 2024
; FORMAT={-:-/ absolute / inch / decimal}
; #@! TF.CreationDate,2024-01-24T12:52:47+01:00
; #@! TF.GenerationSoftware,Kicad,Pcbnew,7.0.1
; #@! TF.FileFunction,Plated,1,2,PTH
FMAT,2
INCH
; #@! TA.AperFunction,Plated,PTH,ViaDrill
T1C0.0118
; #@! TA.AperFunction,Plated,PTH,ComponentDrill
T2C0.0197
; #@! TA.AperFunction,Plated,PTH,ViaDrill
T3C0.0236
; #@! TA.AperFunction,Plated,PTH,ComponentDrill
T4C0.0315
; #@! TA.AperFunction,Plated,PTH,ComponentDrill
T5C0.0354
; #@! TA.AperFunction,Plated,PTH,ComponentDrill
T6C0.0394
; #@! TA.AperFunction,Plated,PTH,ComponentDrill
T7C0.0433
; #@! TA.AperFunction,Plated,PTH,ComponentDrill
T8C0.0984
%
G90
G05
T1
X0.0709Y0.1063
X0.1085Y0.3285
X0.1102Y0.1378
X0.1112Y0.2077
X0.1197Y0.2811
X0.1339Y0.1811
X0.1557Y0.3758
X0.1565Y0.2215
X0.1614Y0.3228
X0.1634Y0.4321
X0.1831Y0.1811
X0.2116Y0.376
X0.3543Y0.7736
X0.3898Y0.7461
X0.44Y0.7421
X0.451Y1.0616
X0.4823Y0.7657
X0.5197Y1.063
X0.5554Y1.0315
X0.5554Y0.9724
X0.5728Y0.3844
X0.5915Y1.1526
X0.6053Y0.9862
X0.75Y0.8907
X0.7884Y0.9951
X0.8553Y0.2303
X0.8711Y1.001
X0.9213Y0.9281
X0.938Y1.0728
X0.9665Y0.3169
X0.9774Y0.9734
X1.0423Y1.0709
X1.0758Y0.9665
X1.0935Y0.6998
X1.1201Y0.875
X1.1544Y0.7825
X1.1713Y0.9636
X1.185Y0.4252
X1.2106Y0.5974
X1.2215Y0.5492
X1.2352Y0.876
X1.3553Y1.0295
X1.3917Y0.0925
X1.4213Y0.8524
X1.4252Y0.2008
X1.4331Y0.4016
X1.4724Y0.7904
X1.5128Y0.8917
X1.5886Y0.9439
X1.6102Y0.6142
X1.6171Y0.9262
X1.6388Y0.0758
X1.6427Y0.4301
X1.6988Y0.8848
X1.7018Y0.9498
X1.7726Y0.3652
X1.7933Y0.6801
X1.8209Y0.9242
X1.8711Y0.872
X1.8799Y0.0728
T2
X0.0353Y0.7697
X0.0353Y0.5951
X0.0864Y0.7185
X0.0864Y0.6462
X1.8812Y0.7174
X1.8812Y0.6451
X1.9324Y0.7685
X1.9324Y0.5939
T3
X0.5796Y1.1902
T4
X0.0843Y1.1952
X0.0843Y1.0952
X0.1959Y1.2993
X0.1959Y0.9993
X0.2959Y1.2993
X0.2959Y0.9993
X0.3959Y1.2993
X0.3959Y0.9993
X0.4959Y1.2993
X0.4959Y0.9993
X0.6846Y0.9255
X0.6846Y0.8255
X0.6846Y0.7255
X0.6846Y0.6255
X0.6846Y0.5255
X0.6846Y0.4255
X0.6846Y0.3255
X0.6846Y0.2255
X1.2845Y0.9255
X1.2845Y0.8255
X1.2845Y0.7255
X1.2845Y0.6255
X1.2845Y0.5255
X1.2845Y0.4255
X1.2845Y0.3255
X1.2845Y0.2255
X1.4536Y1.295
X1.4536Y0.995
X1.5536Y1.295
X1.5536Y0.995
X1.6536Y1.295
X1.6536Y0.995
X1.7536Y1.295
X1.7536Y0.995
X1.881Y1.2069
X1.881Y1.1069
T5
X1.4331Y0.5325
X1.4831Y0.5325
X1.5331Y0.5325
X1.562Y0.7589
X1.5831Y0.5325
X1.612Y0.7589
X1.662Y0.7589
X1.69Y0.5315
X1.712Y0.7589
X1.74Y0.5315
X1.79Y0.5315
X1.84Y0.5315
T6
X0.061Y0.3811
X0.061Y0.2811
X0.061Y0.1811
X0.1795Y0.6744
X0.1795Y0.0957
X0.5335Y0.676
X0.5335Y0.0969
X0.691Y1.1154
X0.791Y1.1154
X0.891Y1.1154
X0.991Y1.1154
X1.091Y1.1154
X1.191Y1.1154
X1.291Y1.1154
X1.9094Y0.3683
X1.9094Y0.2683
X1.9094Y0.1683
T7
X1.5049Y0.2697
X1.5049Y0.0925
X1.7608Y0.2697
X1.7608Y0.0925
T8
X0.2431Y0.8593
X0.44Y0.8593
T0
M30
