%TF.GenerationSoftware,KiCad,Pcbnew,7.0.1*%
%TF.CreationDate,2024-01-24T12:52:34+01:00*%
%TF.ProjectId,PX-CORE,50582d43-4f52-4452-9e6b-696361645f70,rev?*%
%TF.SameCoordinates,PX675d18cPY8cbe71c*%
%TF.FileFunction,Legend,Bot*%
%TF.FilePolarity,Positive*%
%FSLAX46Y46*%
G04 Gerber Fmt 4.6, Leading zero omitted, Abs format (unit mm)*
G04 Created by KiCad (PCBNEW 7.0.1) date 2024-01-24 12:52:34*
%MOMM*%
%LPD*%
G01*
G04 APERTURE LIST*
G04 Aperture macros list*
%AMRoundRect*
0 Rectangle with rounded corners*
0 $1 Rounding radius*
0 $2 $3 $4 $5 $6 $7 $8 $9 X,Y pos of 4 corners*
0 Add a 4 corners polygon primitive as box body*
4,1,4,$2,$3,$4,$5,$6,$7,$8,$9,$2,$3,0*
0 Add four circle primitives for the rounded corners*
1,1,$1+$1,$2,$3*
1,1,$1+$1,$4,$5*
1,1,$1+$1,$6,$7*
1,1,$1+$1,$8,$9*
0 Add four rect primitives between the rounded corners*
20,1,$1+$1,$2,$3,$4,$5,0*
20,1,$1+$1,$4,$5,$6,$7,0*
20,1,$1+$1,$6,$7,$8,$9,0*
20,1,$1+$1,$8,$9,$2,$3,0*%
G04 Aperture macros list end*
%ADD10C,0.200000*%
%ADD11C,0.150000*%
%ADD12O,3.000000X1.600000*%
%ADD13C,1.700000*%
%ADD14O,1.700000X1.700000*%
%ADD15R,1.700000X1.700000*%
%ADD16RoundRect,0.500000X1.000000X0.500000X-1.000000X0.500000X-1.000000X-0.500000X1.000000X-0.500000X0*%
%ADD17O,1.070000X1.800000*%
%ADD18RoundRect,0.267500X-0.267500X-0.632500X0.267500X-0.632500X0.267500X0.632500X-0.267500X0.632500X0*%
%ADD19C,0.800000*%
%ADD20C,2.000000*%
%ADD21RoundRect,0.950000X-0.950000X-0.950000X0.950000X-0.950000X0.950000X0.950000X-0.950000X0.950000X0*%
%ADD22C,3.800000*%
%ADD23R,1.600000X1.600000*%
%ADD24O,1.600000X1.600000*%
%ADD25O,1.750000X3.000000*%
%ADD26RoundRect,0.500000X-1.000000X-0.500000X1.000000X-0.500000X1.000000X0.500000X-1.000000X0.500000X0*%
G04 APERTURE END LIST*
D10*
X40927666Y20465477D02*
X40927666Y21075000D01*
X40622904Y20770239D02*
X41232428Y20770239D01*
X41422904Y21379762D02*
X41422904Y21875000D01*
X41422904Y21875000D02*
X41118142Y21608334D01*
X41118142Y21608334D02*
X41118142Y21722619D01*
X41118142Y21722619D02*
X41080047Y21798810D01*
X41080047Y21798810D02*
X41041952Y21836905D01*
X41041952Y21836905D02*
X40965761Y21875000D01*
X40965761Y21875000D02*
X40775285Y21875000D01*
X40775285Y21875000D02*
X40699095Y21836905D01*
X40699095Y21836905D02*
X40661000Y21798810D01*
X40661000Y21798810D02*
X40622904Y21722619D01*
X40622904Y21722619D02*
X40622904Y21494048D01*
X40622904Y21494048D02*
X40661000Y21417857D01*
X40661000Y21417857D02*
X40699095Y21379762D01*
X40699095Y22217858D02*
X40661000Y22255953D01*
X40661000Y22255953D02*
X40622904Y22217858D01*
X40622904Y22217858D02*
X40661000Y22179762D01*
X40661000Y22179762D02*
X40699095Y22217858D01*
X40699095Y22217858D02*
X40622904Y22217858D01*
X41422904Y22522619D02*
X41422904Y23017857D01*
X41422904Y23017857D02*
X41118142Y22751191D01*
X41118142Y22751191D02*
X41118142Y22865476D01*
X41118142Y22865476D02*
X41080047Y22941667D01*
X41080047Y22941667D02*
X41041952Y22979762D01*
X41041952Y22979762D02*
X40965761Y23017857D01*
X40965761Y23017857D02*
X40775285Y23017857D01*
X40775285Y23017857D02*
X40699095Y22979762D01*
X40699095Y22979762D02*
X40661000Y22941667D01*
X40661000Y22941667D02*
X40622904Y22865476D01*
X40622904Y22865476D02*
X40622904Y22636905D01*
X40622904Y22636905D02*
X40661000Y22560714D01*
X40661000Y22560714D02*
X40699095Y22522619D01*
X37627666Y14715477D02*
X37627666Y15325000D01*
X37322904Y15020239D02*
X37932428Y15020239D01*
X38122904Y15629762D02*
X38122904Y16125000D01*
X38122904Y16125000D02*
X37818142Y15858334D01*
X37818142Y15858334D02*
X37818142Y15972619D01*
X37818142Y15972619D02*
X37780047Y16048810D01*
X37780047Y16048810D02*
X37741952Y16086905D01*
X37741952Y16086905D02*
X37665761Y16125000D01*
X37665761Y16125000D02*
X37475285Y16125000D01*
X37475285Y16125000D02*
X37399095Y16086905D01*
X37399095Y16086905D02*
X37361000Y16048810D01*
X37361000Y16048810D02*
X37322904Y15972619D01*
X37322904Y15972619D02*
X37322904Y15744048D01*
X37322904Y15744048D02*
X37361000Y15667857D01*
X37361000Y15667857D02*
X37399095Y15629762D01*
X37399095Y16467858D02*
X37361000Y16505953D01*
X37361000Y16505953D02*
X37322904Y16467858D01*
X37322904Y16467858D02*
X37361000Y16429762D01*
X37361000Y16429762D02*
X37399095Y16467858D01*
X37399095Y16467858D02*
X37322904Y16467858D01*
X38122904Y16772619D02*
X38122904Y17267857D01*
X38122904Y17267857D02*
X37818142Y17001191D01*
X37818142Y17001191D02*
X37818142Y17115476D01*
X37818142Y17115476D02*
X37780047Y17191667D01*
X37780047Y17191667D02*
X37741952Y17229762D01*
X37741952Y17229762D02*
X37665761Y17267857D01*
X37665761Y17267857D02*
X37475285Y17267857D01*
X37475285Y17267857D02*
X37399095Y17229762D01*
X37399095Y17229762D02*
X37361000Y17191667D01*
X37361000Y17191667D02*
X37322904Y17115476D01*
X37322904Y17115476D02*
X37322904Y16886905D01*
X37322904Y16886905D02*
X37361000Y16810714D01*
X37361000Y16810714D02*
X37399095Y16772619D01*
X44177666Y14715477D02*
X44177666Y15325000D01*
X43872904Y15020239D02*
X44482428Y15020239D01*
X44672904Y15629762D02*
X44672904Y16125000D01*
X44672904Y16125000D02*
X44368142Y15858334D01*
X44368142Y15858334D02*
X44368142Y15972619D01*
X44368142Y15972619D02*
X44330047Y16048810D01*
X44330047Y16048810D02*
X44291952Y16086905D01*
X44291952Y16086905D02*
X44215761Y16125000D01*
X44215761Y16125000D02*
X44025285Y16125000D01*
X44025285Y16125000D02*
X43949095Y16086905D01*
X43949095Y16086905D02*
X43911000Y16048810D01*
X43911000Y16048810D02*
X43872904Y15972619D01*
X43872904Y15972619D02*
X43872904Y15744048D01*
X43872904Y15744048D02*
X43911000Y15667857D01*
X43911000Y15667857D02*
X43949095Y15629762D01*
X43949095Y16467858D02*
X43911000Y16505953D01*
X43911000Y16505953D02*
X43872904Y16467858D01*
X43872904Y16467858D02*
X43911000Y16429762D01*
X43911000Y16429762D02*
X43949095Y16467858D01*
X43949095Y16467858D02*
X43872904Y16467858D01*
X44672904Y16772619D02*
X44672904Y17267857D01*
X44672904Y17267857D02*
X44368142Y17001191D01*
X44368142Y17001191D02*
X44368142Y17115476D01*
X44368142Y17115476D02*
X44330047Y17191667D01*
X44330047Y17191667D02*
X44291952Y17229762D01*
X44291952Y17229762D02*
X44215761Y17267857D01*
X44215761Y17267857D02*
X44025285Y17267857D01*
X44025285Y17267857D02*
X43949095Y17229762D01*
X43949095Y17229762D02*
X43911000Y17191667D01*
X43911000Y17191667D02*
X43872904Y17115476D01*
X43872904Y17115476D02*
X43872904Y16886905D01*
X43872904Y16886905D02*
X43911000Y16810714D01*
X43911000Y16810714D02*
X43949095Y16772619D01*
X42584809Y20934524D02*
X42622904Y20858334D01*
X42622904Y20858334D02*
X42622904Y20744048D01*
X42622904Y20744048D02*
X42584809Y20629762D01*
X42584809Y20629762D02*
X42508619Y20553572D01*
X42508619Y20553572D02*
X42432428Y20515477D01*
X42432428Y20515477D02*
X42280047Y20477381D01*
X42280047Y20477381D02*
X42165761Y20477381D01*
X42165761Y20477381D02*
X42013380Y20515477D01*
X42013380Y20515477D02*
X41937190Y20553572D01*
X41937190Y20553572D02*
X41861000Y20629762D01*
X41861000Y20629762D02*
X41822904Y20744048D01*
X41822904Y20744048D02*
X41822904Y20820239D01*
X41822904Y20820239D02*
X41861000Y20934524D01*
X41861000Y20934524D02*
X41899095Y20972620D01*
X41899095Y20972620D02*
X42165761Y20972620D01*
X42165761Y20972620D02*
X42165761Y20820239D01*
X41822904Y21315477D02*
X42622904Y21315477D01*
X42622904Y21315477D02*
X41822904Y21772620D01*
X41822904Y21772620D02*
X42622904Y21772620D01*
X41822904Y22153572D02*
X42622904Y22153572D01*
X42622904Y22153572D02*
X42622904Y22344048D01*
X42622904Y22344048D02*
X42584809Y22458334D01*
X42584809Y22458334D02*
X42508619Y22534524D01*
X42508619Y22534524D02*
X42432428Y22572619D01*
X42432428Y22572619D02*
X42280047Y22610715D01*
X42280047Y22610715D02*
X42165761Y22610715D01*
X42165761Y22610715D02*
X42013380Y22572619D01*
X42013380Y22572619D02*
X41937190Y22534524D01*
X41937190Y22534524D02*
X41861000Y22458334D01*
X41861000Y22458334D02*
X41822904Y22344048D01*
X41822904Y22344048D02*
X41822904Y22153572D01*
X39309809Y15209524D02*
X39347904Y15133334D01*
X39347904Y15133334D02*
X39347904Y15019048D01*
X39347904Y15019048D02*
X39309809Y14904762D01*
X39309809Y14904762D02*
X39233619Y14828572D01*
X39233619Y14828572D02*
X39157428Y14790477D01*
X39157428Y14790477D02*
X39005047Y14752381D01*
X39005047Y14752381D02*
X38890761Y14752381D01*
X38890761Y14752381D02*
X38738380Y14790477D01*
X38738380Y14790477D02*
X38662190Y14828572D01*
X38662190Y14828572D02*
X38586000Y14904762D01*
X38586000Y14904762D02*
X38547904Y15019048D01*
X38547904Y15019048D02*
X38547904Y15095239D01*
X38547904Y15095239D02*
X38586000Y15209524D01*
X38586000Y15209524D02*
X38624095Y15247620D01*
X38624095Y15247620D02*
X38890761Y15247620D01*
X38890761Y15247620D02*
X38890761Y15095239D01*
X38547904Y15590477D02*
X39347904Y15590477D01*
X39347904Y15590477D02*
X38547904Y16047620D01*
X38547904Y16047620D02*
X39347904Y16047620D01*
X38547904Y16428572D02*
X39347904Y16428572D01*
X39347904Y16428572D02*
X39347904Y16619048D01*
X39347904Y16619048D02*
X39309809Y16733334D01*
X39309809Y16733334D02*
X39233619Y16809524D01*
X39233619Y16809524D02*
X39157428Y16847619D01*
X39157428Y16847619D02*
X39005047Y16885715D01*
X39005047Y16885715D02*
X38890761Y16885715D01*
X38890761Y16885715D02*
X38738380Y16847619D01*
X38738380Y16847619D02*
X38662190Y16809524D01*
X38662190Y16809524D02*
X38586000Y16733334D01*
X38586000Y16733334D02*
X38547904Y16619048D01*
X38547904Y16619048D02*
X38547904Y16428572D01*
X45784809Y15134524D02*
X45822904Y15058334D01*
X45822904Y15058334D02*
X45822904Y14944048D01*
X45822904Y14944048D02*
X45784809Y14829762D01*
X45784809Y14829762D02*
X45708619Y14753572D01*
X45708619Y14753572D02*
X45632428Y14715477D01*
X45632428Y14715477D02*
X45480047Y14677381D01*
X45480047Y14677381D02*
X45365761Y14677381D01*
X45365761Y14677381D02*
X45213380Y14715477D01*
X45213380Y14715477D02*
X45137190Y14753572D01*
X45137190Y14753572D02*
X45061000Y14829762D01*
X45061000Y14829762D02*
X45022904Y14944048D01*
X45022904Y14944048D02*
X45022904Y15020239D01*
X45022904Y15020239D02*
X45061000Y15134524D01*
X45061000Y15134524D02*
X45099095Y15172620D01*
X45099095Y15172620D02*
X45365761Y15172620D01*
X45365761Y15172620D02*
X45365761Y15020239D01*
X45022904Y15515477D02*
X45822904Y15515477D01*
X45822904Y15515477D02*
X45022904Y15972620D01*
X45022904Y15972620D02*
X45822904Y15972620D01*
X45022904Y16353572D02*
X45822904Y16353572D01*
X45822904Y16353572D02*
X45822904Y16544048D01*
X45822904Y16544048D02*
X45784809Y16658334D01*
X45784809Y16658334D02*
X45708619Y16734524D01*
X45708619Y16734524D02*
X45632428Y16772619D01*
X45632428Y16772619D02*
X45480047Y16810715D01*
X45480047Y16810715D02*
X45365761Y16810715D01*
X45365761Y16810715D02*
X45213380Y16772619D01*
X45213380Y16772619D02*
X45137190Y16734524D01*
X45137190Y16734524D02*
X45061000Y16658334D01*
X45061000Y16658334D02*
X45022904Y16544048D01*
X45022904Y16544048D02*
X45022904Y16353572D01*
X2507368Y26072231D02*
X787367Y26072228D01*
X-12624Y26872228D02*
G75*
G03*
X787367Y26072228I800072J72D01*
G01*
D11*
X787367Y26072228D02*
X2507368Y26072231D01*
D10*
X2507366Y32072229D02*
X787369Y32072229D01*
X787369Y32072281D02*
G75*
G03*
X-12633Y31272229I179J-800181D01*
G01*
X47457365Y24462226D02*
X49177366Y24462229D01*
X46657381Y27192228D02*
G75*
G03*
X47457365Y26392233I800067J72D01*
G01*
X-12626Y24942233D02*
G75*
G03*
X787369Y24142226I799974J-33D01*
G01*
X3307367Y26872229D02*
X3307367Y31272231D01*
X49177366Y24462282D02*
G75*
G03*
X49977366Y25262227I82J799918D01*
G01*
X46657374Y25262230D02*
G75*
G03*
X47457365Y24462226I799674J-330D01*
G01*
X49177364Y32392229D02*
X47457362Y32392229D01*
X49177363Y26392230D02*
X47457365Y26392233D01*
X787369Y24142226D02*
X2507365Y24142228D01*
X46657366Y31592230D02*
X46657363Y27192228D01*
X3307377Y31272231D02*
G75*
G03*
X2507366Y32072229I-799929J69D01*
G01*
X-12633Y26872228D02*
X-12632Y24942233D01*
X-12633Y31272229D02*
X-12633Y26872228D01*
X49972763Y20589872D02*
G75*
G03*
X49933072Y13990228I10045J-3300002D01*
G01*
X49177363Y26392281D02*
G75*
G03*
X49977367Y27192230I85J799919D01*
G01*
X49977377Y31592231D02*
G75*
G03*
X49177364Y32392229I-799929J69D01*
G01*
X46657363Y27192228D02*
X46657368Y25262230D01*
D11*
X47457365Y26392233D02*
X49177363Y26392230D01*
D10*
X2507365Y24142281D02*
G75*
G03*
X3307367Y24942231I83J799919D01*
G01*
X47457362Y32392282D02*
G75*
G03*
X46657366Y31592230I186J-800182D01*
G01*
X2507368Y26072281D02*
G75*
G03*
X3307367Y26872229I80J799919D01*
G01*
X49977366Y25262227D02*
X49977367Y27192230D01*
X49977367Y27192230D02*
X49977366Y31592231D01*
X11315Y14053489D02*
G75*
G03*
X51023Y20632294I8523J3289471D01*
G01*
X3307367Y24942231D02*
X3307367Y26872229D01*
D11*
X21507404Y24701642D02*
X21076405Y25132640D01*
X21076405Y24701642D02*
X21507404Y25132640D01*
X21211093Y25698326D02*
X20860906Y26048512D01*
X20860906Y26048512D02*
X20833969Y25644451D01*
X20833969Y25644451D02*
X20753157Y25725263D01*
X20753157Y25725263D02*
X20672345Y25752200D01*
X20672345Y25752200D02*
X20618470Y25752200D01*
X20618470Y25752200D02*
X20537658Y25725263D01*
X20537658Y25725263D02*
X20402971Y25590576D01*
X20402971Y25590576D02*
X20376033Y25509764D01*
X20376033Y25509764D02*
X20376033Y25455889D01*
X20376033Y25455889D02*
X20402971Y25375077D01*
X20402971Y25375077D02*
X20564595Y25213452D01*
X20564595Y25213452D02*
X20645407Y25186515D01*
X20645407Y25186515D02*
X20699282Y25186515D01*
X20106659Y25779138D02*
X20052784Y25779138D01*
X20052784Y25779138D02*
X20052784Y25725263D01*
X20052784Y25725263D02*
X20106659Y25725263D01*
X20106659Y25725263D02*
X20106659Y25779138D01*
X20106659Y25779138D02*
X20052784Y25725263D01*
X20402971Y26506447D02*
X20052784Y26856634D01*
X20052784Y26856634D02*
X20025847Y26452573D01*
X20025847Y26452573D02*
X19945035Y26533385D01*
X19945035Y26533385D02*
X19864223Y26560322D01*
X19864223Y26560322D02*
X19810348Y26560322D01*
X19810348Y26560322D02*
X19729536Y26533385D01*
X19729536Y26533385D02*
X19594849Y26398698D01*
X19594849Y26398698D02*
X19567911Y26317886D01*
X19567911Y26317886D02*
X19567911Y26264011D01*
X19567911Y26264011D02*
X19594849Y26183199D01*
X19594849Y26183199D02*
X19756473Y26021574D01*
X19756473Y26021574D02*
X19837285Y25994637D01*
X19837285Y25994637D02*
X19891160Y25994637D01*
D10*
X2346894Y24649610D02*
X2346894Y25649610D01*
X2346894Y25649610D02*
X2013561Y24935325D01*
X2013561Y24935325D02*
X1680228Y25649610D01*
X1680228Y25649610D02*
X1680228Y24649610D01*
X680228Y24649610D02*
X1251656Y24649610D01*
X965942Y24649610D02*
X965942Y25649610D01*
X965942Y25649610D02*
X1061180Y25506753D01*
X1061180Y25506753D02*
X1156418Y25411515D01*
X1156418Y25411515D02*
X1251656Y25363896D01*
X49784523Y11002667D02*
X49175000Y11002667D01*
X49479761Y10697905D02*
X49479761Y11307429D01*
X48870238Y11497905D02*
X48375000Y11497905D01*
X48375000Y11497905D02*
X48641666Y11193143D01*
X48641666Y11193143D02*
X48527381Y11193143D01*
X48527381Y11193143D02*
X48451190Y11155048D01*
X48451190Y11155048D02*
X48413095Y11116953D01*
X48413095Y11116953D02*
X48375000Y11040762D01*
X48375000Y11040762D02*
X48375000Y10850286D01*
X48375000Y10850286D02*
X48413095Y10774096D01*
X48413095Y10774096D02*
X48451190Y10736000D01*
X48451190Y10736000D02*
X48527381Y10697905D01*
X48527381Y10697905D02*
X48755952Y10697905D01*
X48755952Y10697905D02*
X48832143Y10736000D01*
X48832143Y10736000D02*
X48870238Y10774096D01*
X48032142Y10774096D02*
X47994047Y10736000D01*
X47994047Y10736000D02*
X48032142Y10697905D01*
X48032142Y10697905D02*
X48070238Y10736000D01*
X48070238Y10736000D02*
X48032142Y10774096D01*
X48032142Y10774096D02*
X48032142Y10697905D01*
X47727381Y11497905D02*
X47232143Y11497905D01*
X47232143Y11497905D02*
X47498809Y11193143D01*
X47498809Y11193143D02*
X47384524Y11193143D01*
X47384524Y11193143D02*
X47308333Y11155048D01*
X47308333Y11155048D02*
X47270238Y11116953D01*
X47270238Y11116953D02*
X47232143Y11040762D01*
X47232143Y11040762D02*
X47232143Y10850286D01*
X47232143Y10850286D02*
X47270238Y10774096D01*
X47270238Y10774096D02*
X47308333Y10736000D01*
X47308333Y10736000D02*
X47384524Y10697905D01*
X47384524Y10697905D02*
X47613095Y10697905D01*
X47613095Y10697905D02*
X47689286Y10736000D01*
X47689286Y10736000D02*
X47727381Y10774096D01*
X2609523Y10822905D02*
X2609523Y11622905D01*
X2609523Y11622905D02*
X2419047Y11622905D01*
X2419047Y11622905D02*
X2304761Y11584810D01*
X2304761Y11584810D02*
X2228571Y11508620D01*
X2228571Y11508620D02*
X2190476Y11432429D01*
X2190476Y11432429D02*
X2152380Y11280048D01*
X2152380Y11280048D02*
X2152380Y11165762D01*
X2152380Y11165762D02*
X2190476Y11013381D01*
X2190476Y11013381D02*
X2228571Y10937191D01*
X2228571Y10937191D02*
X2304761Y10861000D01*
X2304761Y10861000D02*
X2419047Y10822905D01*
X2419047Y10822905D02*
X2609523Y10822905D01*
X1809523Y11127667D02*
X1200000Y11127667D01*
X438095Y11622905D02*
X819047Y11622905D01*
X819047Y11622905D02*
X857143Y11241953D01*
X857143Y11241953D02*
X819047Y11280048D01*
X819047Y11280048D02*
X742857Y11318143D01*
X742857Y11318143D02*
X552381Y11318143D01*
X552381Y11318143D02*
X476190Y11280048D01*
X476190Y11280048D02*
X438095Y11241953D01*
X438095Y11241953D02*
X400000Y11165762D01*
X400000Y11165762D02*
X400000Y10975286D01*
X400000Y10975286D02*
X438095Y10899096D01*
X438095Y10899096D02*
X476190Y10861000D01*
X476190Y10861000D02*
X552381Y10822905D01*
X552381Y10822905D02*
X742857Y10822905D01*
X742857Y10822905D02*
X819047Y10861000D01*
X819047Y10861000D02*
X857143Y10899096D01*
D11*
X31400467Y25270830D02*
X31131093Y25540204D01*
X31292718Y25055330D02*
X31669841Y25809578D01*
X31669841Y25809578D02*
X30915594Y25432454D01*
X30942532Y25836515D02*
X30511533Y26267513D01*
X30161347Y26940948D02*
X29784224Y26563825D01*
X30511534Y27021760D02*
X30242160Y26483012D01*
X30242160Y26483012D02*
X29891973Y26833199D01*
D10*
X47476978Y8088976D02*
X47557790Y8062039D01*
X47557790Y8062039D02*
X47638603Y7981226D01*
X47638603Y7981226D02*
X47692477Y7873477D01*
X47692477Y7873477D02*
X47692477Y7765727D01*
X47692477Y7765727D02*
X47665540Y7684915D01*
X47665540Y7684915D02*
X47584728Y7550228D01*
X47584728Y7550228D02*
X47503916Y7469416D01*
X47503916Y7469416D02*
X47369229Y7388604D01*
X47369229Y7388604D02*
X47288416Y7361666D01*
X47288416Y7361666D02*
X47180667Y7361666D01*
X47180667Y7361666D02*
X47072917Y7415541D01*
X47072917Y7415541D02*
X47019042Y7469416D01*
X47019042Y7469416D02*
X46965168Y7577165D01*
X46965168Y7577165D02*
X46965168Y7631040D01*
X46965168Y7631040D02*
X47153729Y7819602D01*
X47153729Y7819602D02*
X47261479Y7711852D01*
X46668856Y7819602D02*
X47234542Y8385287D01*
X47234542Y8385287D02*
X46345607Y8142851D01*
X46345607Y8142851D02*
X46911293Y8708536D01*
X46076234Y8412225D02*
X46641919Y8977910D01*
X46641919Y8977910D02*
X46507232Y9112597D01*
X46507232Y9112597D02*
X46399482Y9166472D01*
X46399482Y9166472D02*
X46291733Y9166472D01*
X46291733Y9166472D02*
X46210921Y9139535D01*
X46210921Y9139535D02*
X46076234Y9058722D01*
X46076234Y9058722D02*
X45995421Y8977910D01*
X45995421Y8977910D02*
X45914609Y8843223D01*
X45914609Y8843223D02*
X45887672Y8762411D01*
X45887672Y8762411D02*
X45887672Y8654661D01*
X45887672Y8654661D02*
X45941547Y8546912D01*
X45941547Y8546912D02*
X46076234Y8412225D01*
X49534523Y2422905D02*
X49534523Y3222905D01*
X49534523Y3222905D02*
X49344047Y3222905D01*
X49344047Y3222905D02*
X49229761Y3184810D01*
X49229761Y3184810D02*
X49153571Y3108620D01*
X49153571Y3108620D02*
X49115476Y3032429D01*
X49115476Y3032429D02*
X49077380Y2880048D01*
X49077380Y2880048D02*
X49077380Y2765762D01*
X49077380Y2765762D02*
X49115476Y2613381D01*
X49115476Y2613381D02*
X49153571Y2537191D01*
X49153571Y2537191D02*
X49229761Y2461000D01*
X49229761Y2461000D02*
X49344047Y2422905D01*
X49344047Y2422905D02*
X49534523Y2422905D01*
X48734523Y2727667D02*
X48125000Y2727667D01*
X47629762Y2880048D02*
X47705952Y2918143D01*
X47705952Y2918143D02*
X47744047Y2956239D01*
X47744047Y2956239D02*
X47782143Y3032429D01*
X47782143Y3032429D02*
X47782143Y3070524D01*
X47782143Y3070524D02*
X47744047Y3146715D01*
X47744047Y3146715D02*
X47705952Y3184810D01*
X47705952Y3184810D02*
X47629762Y3222905D01*
X47629762Y3222905D02*
X47477381Y3222905D01*
X47477381Y3222905D02*
X47401190Y3184810D01*
X47401190Y3184810D02*
X47363095Y3146715D01*
X47363095Y3146715D02*
X47325000Y3070524D01*
X47325000Y3070524D02*
X47325000Y3032429D01*
X47325000Y3032429D02*
X47363095Y2956239D01*
X47363095Y2956239D02*
X47401190Y2918143D01*
X47401190Y2918143D02*
X47477381Y2880048D01*
X47477381Y2880048D02*
X47629762Y2880048D01*
X47629762Y2880048D02*
X47705952Y2841953D01*
X47705952Y2841953D02*
X47744047Y2803858D01*
X47744047Y2803858D02*
X47782143Y2727667D01*
X47782143Y2727667D02*
X47782143Y2575286D01*
X47782143Y2575286D02*
X47744047Y2499096D01*
X47744047Y2499096D02*
X47705952Y2461000D01*
X47705952Y2461000D02*
X47629762Y2422905D01*
X47629762Y2422905D02*
X47477381Y2422905D01*
X47477381Y2422905D02*
X47401190Y2461000D01*
X47401190Y2461000D02*
X47363095Y2499096D01*
X47363095Y2499096D02*
X47325000Y2575286D01*
X47325000Y2575286D02*
X47325000Y2727667D01*
X47325000Y2727667D02*
X47363095Y2803858D01*
X47363095Y2803858D02*
X47401190Y2841953D01*
X47401190Y2841953D02*
X47477381Y2880048D01*
D11*
X33831908Y25026147D02*
X34397593Y25591832D01*
X34397593Y25591832D02*
X34262906Y25726519D01*
X34262906Y25726519D02*
X34155156Y25780394D01*
X34155156Y25780394D02*
X34047407Y25780394D01*
X34047407Y25780394D02*
X33966595Y25753456D01*
X33966595Y25753456D02*
X33831908Y25672644D01*
X33831908Y25672644D02*
X33751095Y25591832D01*
X33751095Y25591832D02*
X33670283Y25457145D01*
X33670283Y25457145D02*
X33643346Y25376333D01*
X33643346Y25376333D02*
X33643346Y25268583D01*
X33643346Y25268583D02*
X33697221Y25160834D01*
X33697221Y25160834D02*
X33831908Y25026147D01*
X33481721Y25807331D02*
X33050723Y26238330D01*
X32538912Y26319142D02*
X32431163Y26426891D01*
X32431163Y26426891D02*
X32404225Y26507704D01*
X32404225Y26507704D02*
X32404225Y26561578D01*
X32404225Y26561578D02*
X32431163Y26696265D01*
X32431163Y26696265D02*
X32511975Y26830952D01*
X32511975Y26830952D02*
X32727474Y27046452D01*
X32727474Y27046452D02*
X32808287Y27073389D01*
X32808287Y27073389D02*
X32862161Y27073389D01*
X32862161Y27073389D02*
X32942974Y27046452D01*
X32942974Y27046452D02*
X33050723Y26938702D01*
X33050723Y26938702D02*
X33077661Y26857890D01*
X33077661Y26857890D02*
X33077661Y26804015D01*
X33077661Y26804015D02*
X33050723Y26723203D01*
X33050723Y26723203D02*
X32916036Y26588516D01*
X32916036Y26588516D02*
X32835224Y26561578D01*
X32835224Y26561578D02*
X32781349Y26561578D01*
X32781349Y26561578D02*
X32700537Y26588516D01*
X32700537Y26588516D02*
X32592787Y26696265D01*
X32592787Y26696265D02*
X32565850Y26777078D01*
X32565850Y26777078D02*
X32565850Y26830952D01*
X32565850Y26830952D02*
X32592787Y26911765D01*
D10*
X49016888Y24969608D02*
X49016888Y25969608D01*
X49016888Y25969608D02*
X48683555Y25255323D01*
X48683555Y25255323D02*
X48350222Y25969608D01*
X48350222Y25969608D02*
X48350222Y24969608D01*
X47921650Y25874370D02*
X47874031Y25921989D01*
X47874031Y25921989D02*
X47778793Y25969608D01*
X47778793Y25969608D02*
X47540698Y25969608D01*
X47540698Y25969608D02*
X47445460Y25921989D01*
X47445460Y25921989D02*
X47397841Y25874370D01*
X47397841Y25874370D02*
X47350222Y25779132D01*
X47350222Y25779132D02*
X47350222Y25683894D01*
X47350222Y25683894D02*
X47397841Y25541037D01*
X47397841Y25541037D02*
X47969269Y24969608D01*
X47969269Y24969608D02*
X47350222Y24969608D01*
D11*
X18644346Y25761207D02*
X18725158Y25734270D01*
X18725158Y25734270D02*
X18805971Y25653457D01*
X18805971Y25653457D02*
X18859845Y25545708D01*
X18859845Y25545708D02*
X18859845Y25437958D01*
X18859845Y25437958D02*
X18832908Y25357146D01*
X18832908Y25357146D02*
X18752096Y25222459D01*
X18752096Y25222459D02*
X18671284Y25141647D01*
X18671284Y25141647D02*
X18536597Y25060835D01*
X18536597Y25060835D02*
X18455784Y25033897D01*
X18455784Y25033897D02*
X18348035Y25033897D01*
X18348035Y25033897D02*
X18240285Y25087772D01*
X18240285Y25087772D02*
X18186410Y25141647D01*
X18186410Y25141647D02*
X18132536Y25249396D01*
X18132536Y25249396D02*
X18132536Y25303271D01*
X18132536Y25303271D02*
X18321097Y25491833D01*
X18321097Y25491833D02*
X18428847Y25384083D01*
X17836224Y25491833D02*
X18401910Y26057518D01*
X18401910Y26057518D02*
X17512975Y25815082D01*
X17512975Y25815082D02*
X18078661Y26380767D01*
X17243602Y26084456D02*
X17809287Y26650141D01*
X17809287Y26650141D02*
X17674600Y26784828D01*
X17674600Y26784828D02*
X17566850Y26838703D01*
X17566850Y26838703D02*
X17459101Y26838703D01*
X17459101Y26838703D02*
X17378289Y26811766D01*
X17378289Y26811766D02*
X17243602Y26730953D01*
X17243602Y26730953D02*
X17162789Y26650141D01*
X17162789Y26650141D02*
X17081977Y26515454D01*
X17081977Y26515454D02*
X17055040Y26434642D01*
X17055040Y26434642D02*
X17055040Y26326892D01*
X17055040Y26326892D02*
X17108915Y26219143D01*
X17108915Y26219143D02*
X17243602Y26084456D01*
X26310470Y25150831D02*
X26041096Y25420205D01*
X26202721Y24935331D02*
X26579844Y25689579D01*
X26579844Y25689579D02*
X25825597Y25312455D01*
X25852535Y25716516D02*
X25421536Y26147514D01*
X24640352Y26497700D02*
X24963601Y26174452D01*
X24801976Y26336076D02*
X25367662Y26901761D01*
X25367662Y26901761D02*
X25340724Y26767074D01*
X25340724Y26767074D02*
X25340724Y26659325D01*
X25340724Y26659325D02*
X25367662Y26578513D01*
X28830470Y25070833D02*
X28561096Y25340207D01*
X28722721Y24855333D02*
X29099844Y25609581D01*
X29099844Y25609581D02*
X28345597Y25232457D01*
X28372535Y25636518D02*
X27941536Y26067516D01*
X28076224Y26633202D02*
X27726037Y26983388D01*
X27726037Y26983388D02*
X27699100Y26579327D01*
X27699100Y26579327D02*
X27618288Y26660139D01*
X27618288Y26660139D02*
X27537476Y26687076D01*
X27537476Y26687076D02*
X27483601Y26687076D01*
X27483601Y26687076D02*
X27402788Y26660139D01*
X27402788Y26660139D02*
X27268101Y26525452D01*
X27268101Y26525452D02*
X27241164Y26444640D01*
X27241164Y26444640D02*
X27241164Y26390765D01*
X27241164Y26390765D02*
X27268101Y26309953D01*
X27268101Y26309953D02*
X27429726Y26148328D01*
X27429726Y26148328D02*
X27510538Y26121391D01*
X27510538Y26121391D02*
X27564413Y26121391D01*
D10*
X43952603Y29660324D02*
X43476413Y29660324D01*
X44047841Y29374609D02*
X43714508Y30374609D01*
X43714508Y30374609D02*
X43381175Y29374609D01*
X42428793Y30374609D02*
X42095460Y29374609D01*
X42095460Y29374609D02*
X41762127Y30374609D01*
X41428793Y29898419D02*
X41095460Y29898419D01*
X40952603Y29374609D02*
X41428793Y29374609D01*
X41428793Y29374609D02*
X41428793Y30374609D01*
X41428793Y30374609D02*
X40952603Y30374609D01*
X39952603Y29374609D02*
X40285936Y29850800D01*
X40524031Y29374609D02*
X40524031Y30374609D01*
X40524031Y30374609D02*
X40143079Y30374609D01*
X40143079Y30374609D02*
X40047841Y30326990D01*
X40047841Y30326990D02*
X40000222Y30279371D01*
X40000222Y30279371D02*
X39952603Y30184133D01*
X39952603Y30184133D02*
X39952603Y30041276D01*
X39952603Y30041276D02*
X40000222Y29946038D01*
X40000222Y29946038D02*
X40047841Y29898419D01*
X40047841Y29898419D02*
X40143079Y29850800D01*
X40143079Y29850800D02*
X40524031Y29850800D01*
X38809745Y29422228D02*
X38666888Y29374609D01*
X38666888Y29374609D02*
X38428793Y29374609D01*
X38428793Y29374609D02*
X38333555Y29422228D01*
X38333555Y29422228D02*
X38285936Y29469848D01*
X38285936Y29469848D02*
X38238317Y29565086D01*
X38238317Y29565086D02*
X38238317Y29660324D01*
X38238317Y29660324D02*
X38285936Y29755562D01*
X38285936Y29755562D02*
X38333555Y29803181D01*
X38333555Y29803181D02*
X38428793Y29850800D01*
X38428793Y29850800D02*
X38619269Y29898419D01*
X38619269Y29898419D02*
X38714507Y29946038D01*
X38714507Y29946038D02*
X38762126Y29993657D01*
X38762126Y29993657D02*
X38809745Y30088895D01*
X38809745Y30088895D02*
X38809745Y30184133D01*
X38809745Y30184133D02*
X38762126Y30279371D01*
X38762126Y30279371D02*
X38714507Y30326990D01*
X38714507Y30326990D02*
X38619269Y30374609D01*
X38619269Y30374609D02*
X38381174Y30374609D01*
X38381174Y30374609D02*
X38238317Y30326990D01*
X37809745Y29374609D02*
X37809745Y30374609D01*
X43928794Y27754609D02*
X43928794Y28754609D01*
X43928794Y28754609D02*
X43357366Y27754609D01*
X43357366Y27754609D02*
X43357366Y28754609D01*
X42690699Y28754609D02*
X42500223Y28754609D01*
X42500223Y28754609D02*
X42404985Y28706990D01*
X42404985Y28706990D02*
X42309747Y28611752D01*
X42309747Y28611752D02*
X42262128Y28421276D01*
X42262128Y28421276D02*
X42262128Y28087943D01*
X42262128Y28087943D02*
X42309747Y27897467D01*
X42309747Y27897467D02*
X42404985Y27802228D01*
X42404985Y27802228D02*
X42500223Y27754609D01*
X42500223Y27754609D02*
X42690699Y27754609D01*
X42690699Y27754609D02*
X42785937Y27802228D01*
X42785937Y27802228D02*
X42881175Y27897467D01*
X42881175Y27897467D02*
X42928794Y28087943D01*
X42928794Y28087943D02*
X42928794Y28421276D01*
X42928794Y28421276D02*
X42881175Y28611752D01*
X42881175Y28611752D02*
X42785937Y28706990D01*
X42785937Y28706990D02*
X42690699Y28754609D01*
X41119270Y28040324D02*
X40643080Y28040324D01*
X41214508Y27754609D02*
X40881175Y28754609D01*
X40881175Y28754609D02*
X40547842Y27754609D01*
X39643080Y27754609D02*
X39976413Y28230800D01*
X40214508Y27754609D02*
X40214508Y28754609D01*
X40214508Y28754609D02*
X39833556Y28754609D01*
X39833556Y28754609D02*
X39738318Y28706990D01*
X39738318Y28706990D02*
X39690699Y28659371D01*
X39690699Y28659371D02*
X39643080Y28564133D01*
X39643080Y28564133D02*
X39643080Y28421276D01*
X39643080Y28421276D02*
X39690699Y28326038D01*
X39690699Y28326038D02*
X39738318Y28278419D01*
X39738318Y28278419D02*
X39833556Y28230800D01*
X39833556Y28230800D02*
X40214508Y28230800D01*
X39214508Y27754609D02*
X39214508Y28754609D01*
X39214508Y28754609D02*
X38976413Y28754609D01*
X38976413Y28754609D02*
X38833556Y28706990D01*
X38833556Y28706990D02*
X38738318Y28611752D01*
X38738318Y28611752D02*
X38690699Y28516514D01*
X38690699Y28516514D02*
X38643080Y28326038D01*
X38643080Y28326038D02*
X38643080Y28183181D01*
X38643080Y28183181D02*
X38690699Y27992705D01*
X38690699Y27992705D02*
X38738318Y27897467D01*
X38738318Y27897467D02*
X38833556Y27802228D01*
X38833556Y27802228D02*
X38976413Y27754609D01*
X38976413Y27754609D02*
X39214508Y27754609D01*
X38214508Y28278419D02*
X37881175Y28278419D01*
X37738318Y27754609D02*
X38214508Y27754609D01*
X38214508Y27754609D02*
X38214508Y28754609D01*
X38214508Y28754609D02*
X37738318Y28754609D01*
X5367857Y7216953D02*
X5253571Y7178858D01*
X5253571Y7178858D02*
X5215476Y7140762D01*
X5215476Y7140762D02*
X5177380Y7064572D01*
X5177380Y7064572D02*
X5177380Y6950286D01*
X5177380Y6950286D02*
X5215476Y6874096D01*
X5215476Y6874096D02*
X5253571Y6836000D01*
X5253571Y6836000D02*
X5329761Y6797905D01*
X5329761Y6797905D02*
X5634523Y6797905D01*
X5634523Y6797905D02*
X5634523Y7597905D01*
X5634523Y7597905D02*
X5367857Y7597905D01*
X5367857Y7597905D02*
X5291666Y7559810D01*
X5291666Y7559810D02*
X5253571Y7521715D01*
X5253571Y7521715D02*
X5215476Y7445524D01*
X5215476Y7445524D02*
X5215476Y7369334D01*
X5215476Y7369334D02*
X5253571Y7293143D01*
X5253571Y7293143D02*
X5291666Y7255048D01*
X5291666Y7255048D02*
X5367857Y7216953D01*
X5367857Y7216953D02*
X5634523Y7216953D01*
X4872619Y7026477D02*
X4491666Y7026477D01*
X4948809Y6797905D02*
X4682142Y7597905D01*
X4682142Y7597905D02*
X4415476Y6797905D01*
X4263095Y7597905D02*
X3805952Y7597905D01*
X4034524Y6797905D02*
X4034524Y7597905D01*
X3653571Y7597905D02*
X3196428Y7597905D01*
X3425000Y6797905D02*
X3425000Y7597905D01*
X2165476Y3284810D02*
X2241666Y3322905D01*
X2241666Y3322905D02*
X2355952Y3322905D01*
X2355952Y3322905D02*
X2470238Y3284810D01*
X2470238Y3284810D02*
X2546428Y3208620D01*
X2546428Y3208620D02*
X2584523Y3132429D01*
X2584523Y3132429D02*
X2622619Y2980048D01*
X2622619Y2980048D02*
X2622619Y2865762D01*
X2622619Y2865762D02*
X2584523Y2713381D01*
X2584523Y2713381D02*
X2546428Y2637191D01*
X2546428Y2637191D02*
X2470238Y2561000D01*
X2470238Y2561000D02*
X2355952Y2522905D01*
X2355952Y2522905D02*
X2279761Y2522905D01*
X2279761Y2522905D02*
X2165476Y2561000D01*
X2165476Y2561000D02*
X2127380Y2599096D01*
X2127380Y2599096D02*
X2127380Y2865762D01*
X2127380Y2865762D02*
X2279761Y2865762D01*
X1784523Y2522905D02*
X1784523Y3322905D01*
X1784523Y3322905D02*
X1327380Y2522905D01*
X1327380Y2522905D02*
X1327380Y3322905D01*
X946428Y2522905D02*
X946428Y3322905D01*
X946428Y3322905D02*
X755952Y3322905D01*
X755952Y3322905D02*
X641666Y3284810D01*
X641666Y3284810D02*
X565476Y3208620D01*
X565476Y3208620D02*
X527381Y3132429D01*
X527381Y3132429D02*
X489285Y2980048D01*
X489285Y2980048D02*
X489285Y2865762D01*
X489285Y2865762D02*
X527381Y2713381D01*
X527381Y2713381D02*
X565476Y2637191D01*
X565476Y2637191D02*
X641666Y2561000D01*
X641666Y2561000D02*
X755952Y2522905D01*
X755952Y2522905D02*
X946428Y2522905D01*
X12254506Y30160800D02*
X12254506Y29684609D01*
X12587839Y30684609D02*
X12254506Y30160800D01*
X12254506Y30160800D02*
X11921173Y30684609D01*
X10873553Y29732228D02*
X10730696Y29684609D01*
X10730696Y29684609D02*
X10492601Y29684609D01*
X10492601Y29684609D02*
X10397363Y29732228D01*
X10397363Y29732228D02*
X10349744Y29779848D01*
X10349744Y29779848D02*
X10302125Y29875086D01*
X10302125Y29875086D02*
X10302125Y29970324D01*
X10302125Y29970324D02*
X10349744Y30065562D01*
X10349744Y30065562D02*
X10397363Y30113181D01*
X10397363Y30113181D02*
X10492601Y30160800D01*
X10492601Y30160800D02*
X10683077Y30208419D01*
X10683077Y30208419D02*
X10778315Y30256038D01*
X10778315Y30256038D02*
X10825934Y30303657D01*
X10825934Y30303657D02*
X10873553Y30398895D01*
X10873553Y30398895D02*
X10873553Y30494133D01*
X10873553Y30494133D02*
X10825934Y30589371D01*
X10825934Y30589371D02*
X10778315Y30636990D01*
X10778315Y30636990D02*
X10683077Y30684609D01*
X10683077Y30684609D02*
X10444982Y30684609D01*
X10444982Y30684609D02*
X10302125Y30636990D01*
X9873553Y29684609D02*
X9873553Y30684609D01*
X8683077Y29970324D02*
X8206887Y29970324D01*
X8778315Y29684609D02*
X8444982Y30684609D01*
X8444982Y30684609D02*
X8111649Y29684609D01*
X7206887Y29684609D02*
X7540220Y30160800D01*
X7778315Y29684609D02*
X7778315Y30684609D01*
X7778315Y30684609D02*
X7397363Y30684609D01*
X7397363Y30684609D02*
X7302125Y30636990D01*
X7302125Y30636990D02*
X7254506Y30589371D01*
X7254506Y30589371D02*
X7206887Y30494133D01*
X7206887Y30494133D02*
X7206887Y30351276D01*
X7206887Y30351276D02*
X7254506Y30256038D01*
X7254506Y30256038D02*
X7302125Y30208419D01*
X7302125Y30208419D02*
X7397363Y30160800D01*
X7397363Y30160800D02*
X7778315Y30160800D01*
X6778315Y29684609D02*
X6778315Y30684609D01*
X6778315Y30684609D02*
X6540220Y30684609D01*
X6540220Y30684609D02*
X6397363Y30636990D01*
X6397363Y30636990D02*
X6302125Y30541752D01*
X6302125Y30541752D02*
X6254506Y30446514D01*
X6254506Y30446514D02*
X6206887Y30256038D01*
X6206887Y30256038D02*
X6206887Y30113181D01*
X6206887Y30113181D02*
X6254506Y29922705D01*
X6254506Y29922705D02*
X6302125Y29827467D01*
X6302125Y29827467D02*
X6397363Y29732228D01*
X6397363Y29732228D02*
X6540220Y29684609D01*
X6540220Y29684609D02*
X6778315Y29684609D01*
X5778315Y30208419D02*
X5444982Y30208419D01*
X5302125Y29684609D02*
X5778315Y29684609D01*
X5778315Y29684609D02*
X5778315Y30684609D01*
X5778315Y30684609D02*
X5302125Y30684609D01*
X11730697Y27969371D02*
X11825935Y28016990D01*
X11825935Y28016990D02*
X11921173Y28112228D01*
X11921173Y28112228D02*
X12064030Y28255086D01*
X12064030Y28255086D02*
X12159268Y28302705D01*
X12159268Y28302705D02*
X12254506Y28302705D01*
X12206887Y28064609D02*
X12302125Y28112228D01*
X12302125Y28112228D02*
X12397363Y28207467D01*
X12397363Y28207467D02*
X12444982Y28397943D01*
X12444982Y28397943D02*
X12444982Y28731276D01*
X12444982Y28731276D02*
X12397363Y28921752D01*
X12397363Y28921752D02*
X12302125Y29016990D01*
X12302125Y29016990D02*
X12206887Y29064609D01*
X12206887Y29064609D02*
X12016411Y29064609D01*
X12016411Y29064609D02*
X11921173Y29016990D01*
X11921173Y29016990D02*
X11825935Y28921752D01*
X11825935Y28921752D02*
X11778316Y28731276D01*
X11778316Y28731276D02*
X11778316Y28397943D01*
X11778316Y28397943D02*
X11825935Y28207467D01*
X11825935Y28207467D02*
X11921173Y28112228D01*
X11921173Y28112228D02*
X12016411Y28064609D01*
X12016411Y28064609D02*
X12206887Y28064609D01*
X11349744Y29064609D02*
X11349744Y28255086D01*
X11349744Y28255086D02*
X11302125Y28159848D01*
X11302125Y28159848D02*
X11254506Y28112228D01*
X11254506Y28112228D02*
X11159268Y28064609D01*
X11159268Y28064609D02*
X10968792Y28064609D01*
X10968792Y28064609D02*
X10873554Y28112228D01*
X10873554Y28112228D02*
X10825935Y28159848D01*
X10825935Y28159848D02*
X10778316Y28255086D01*
X10778316Y28255086D02*
X10778316Y29064609D01*
X10302125Y28588419D02*
X9968792Y28588419D01*
X9825935Y28064609D02*
X10302125Y28064609D01*
X10302125Y28064609D02*
X10302125Y29064609D01*
X10302125Y29064609D02*
X9825935Y29064609D01*
X8683077Y28350324D02*
X8206887Y28350324D01*
X8778315Y28064609D02*
X8444982Y29064609D01*
X8444982Y29064609D02*
X8111649Y28064609D01*
X7206887Y28064609D02*
X7540220Y28540800D01*
X7778315Y28064609D02*
X7778315Y29064609D01*
X7778315Y29064609D02*
X7397363Y29064609D01*
X7397363Y29064609D02*
X7302125Y29016990D01*
X7302125Y29016990D02*
X7254506Y28969371D01*
X7254506Y28969371D02*
X7206887Y28874133D01*
X7206887Y28874133D02*
X7206887Y28731276D01*
X7206887Y28731276D02*
X7254506Y28636038D01*
X7254506Y28636038D02*
X7302125Y28588419D01*
X7302125Y28588419D02*
X7397363Y28540800D01*
X7397363Y28540800D02*
X7778315Y28540800D01*
X6778315Y28064609D02*
X6778315Y29064609D01*
X6778315Y29064609D02*
X6540220Y29064609D01*
X6540220Y29064609D02*
X6397363Y29016990D01*
X6397363Y29016990D02*
X6302125Y28921752D01*
X6302125Y28921752D02*
X6254506Y28826514D01*
X6254506Y28826514D02*
X6206887Y28636038D01*
X6206887Y28636038D02*
X6206887Y28493181D01*
X6206887Y28493181D02*
X6254506Y28302705D01*
X6254506Y28302705D02*
X6302125Y28207467D01*
X6302125Y28207467D02*
X6397363Y28112228D01*
X6397363Y28112228D02*
X6540220Y28064609D01*
X6540220Y28064609D02*
X6778315Y28064609D01*
X5825934Y28350324D02*
X5349744Y28350324D01*
X5921172Y28064609D02*
X5587839Y29064609D01*
X5587839Y29064609D02*
X5254506Y28064609D01*
D11*
X23730468Y25070832D02*
X23461094Y25340206D01*
X23622719Y24855332D02*
X23999842Y25609580D01*
X23999842Y25609580D02*
X23245595Y25232456D01*
X23272533Y25636517D02*
X22841534Y26067515D01*
X22814597Y26794825D02*
X22760722Y26848700D01*
X22760722Y26848700D02*
X22679910Y26875637D01*
X22679910Y26875637D02*
X22626035Y26875637D01*
X22626035Y26875637D02*
X22545223Y26848700D01*
X22545223Y26848700D02*
X22410536Y26767888D01*
X22410536Y26767888D02*
X22275849Y26633201D01*
X22275849Y26633201D02*
X22195037Y26498514D01*
X22195037Y26498514D02*
X22168099Y26417701D01*
X22168099Y26417701D02*
X22168099Y26363827D01*
X22168099Y26363827D02*
X22195037Y26283014D01*
X22195037Y26283014D02*
X22248912Y26229140D01*
X22248912Y26229140D02*
X22329724Y26202202D01*
X22329724Y26202202D02*
X22383599Y26202202D01*
X22383599Y26202202D02*
X22464411Y26229140D01*
X22464411Y26229140D02*
X22599098Y26309952D01*
X22599098Y26309952D02*
X22733785Y26444639D01*
X22733785Y26444639D02*
X22814597Y26579326D01*
X22814597Y26579326D02*
X22841535Y26660138D01*
X22841535Y26660138D02*
X22841535Y26714013D01*
X22841535Y26714013D02*
X22814597Y26794825D01*
%TO.C,*%
G36*
X28695636Y15872444D02*
G01*
X28705586Y15868709D01*
X28714788Y15862141D01*
X28722335Y15851034D01*
X28727734Y15835561D01*
X28731004Y15815668D01*
X28732162Y15791305D01*
X28731754Y15777038D01*
X28729112Y15757614D01*
X28723958Y15742264D01*
X28716223Y15730805D01*
X28705835Y15723053D01*
X28705157Y15722719D01*
X28694054Y15719973D01*
X28683124Y15721893D01*
X28673538Y15728290D01*
X28671385Y15730702D01*
X28666423Y15738991D01*
X28662702Y15750191D01*
X28660123Y15764802D01*
X28658585Y15783325D01*
X28657990Y15806260D01*
X28657985Y15817328D01*
X28658391Y15832071D01*
X28659527Y15843179D01*
X28661640Y15851486D01*
X28664979Y15857827D01*
X28669791Y15863035D01*
X28676324Y15867945D01*
X28680534Y15870522D01*
X28687868Y15873063D01*
X28695636Y15872444D01*
G37*
G36*
X27946663Y16324667D02*
G01*
X27958913Y16321897D01*
X27968150Y16315316D01*
X27973981Y16305325D01*
X27976012Y16292325D01*
X27975638Y16286244D01*
X27973882Y16279278D01*
X27970254Y16272431D01*
X27964286Y16265149D01*
X27955507Y16256875D01*
X27943449Y16247055D01*
X27927642Y16235135D01*
X27923298Y16231811D01*
X27913639Y16223950D01*
X27902914Y16214780D01*
X27892745Y16205671D01*
X27886694Y16200259D01*
X27876652Y16191871D01*
X27867312Y16184706D01*
X27860104Y16179894D01*
X27858856Y16179194D01*
X27845524Y16173914D01*
X27833184Y16172768D01*
X27822474Y16175469D01*
X27814032Y16181734D01*
X27808499Y16191277D01*
X27806512Y16203812D01*
X27807194Y16210478D01*
X27810312Y16219543D01*
X27816310Y16229654D01*
X27825576Y16241435D01*
X27838495Y16255512D01*
X27851860Y16268695D01*
X27869397Y16284153D01*
X27886895Y16297696D01*
X27903743Y16308924D01*
X27919330Y16317439D01*
X27933047Y16322840D01*
X27944284Y16324729D01*
X27946663Y16324667D01*
G37*
G36*
X27830840Y16500448D02*
G01*
X27840707Y16493957D01*
X27847190Y16484487D01*
X27849748Y16472421D01*
X27849607Y16465226D01*
X27847953Y16457060D01*
X27844136Y16450086D01*
X27837620Y16443822D01*
X27827872Y16437787D01*
X27814357Y16431499D01*
X27796542Y16424477D01*
X27779986Y16418010D01*
X27729876Y16395025D01*
X27682511Y16367977D01*
X27638135Y16336999D01*
X27634373Y16334135D01*
X27622739Y16325598D01*
X27611717Y16317937D01*
X27602401Y16311897D01*
X27595884Y16308224D01*
X27590844Y16306006D01*
X27583586Y16303361D01*
X27578812Y16302320D01*
X27570392Y16304068D01*
X27561043Y16309434D01*
X27552834Y16317240D01*
X27547003Y16326289D01*
X27544785Y16335378D01*
X27545859Y16342050D01*
X27551026Y16353217D01*
X27560184Y16365947D01*
X27573013Y16379929D01*
X27589195Y16394854D01*
X27608413Y16410414D01*
X27630349Y16426299D01*
X27654685Y16442200D01*
X27656206Y16443138D01*
X27673374Y16452922D01*
X27692884Y16462825D01*
X27713789Y16472467D01*
X27735142Y16481465D01*
X27755999Y16489436D01*
X27775414Y16495999D01*
X27792439Y16500772D01*
X27806129Y16503372D01*
X27818133Y16503573D01*
X27830840Y16500448D01*
G37*
G36*
X28878075Y15844334D02*
G01*
X28887156Y15835522D01*
X28894368Y15822214D01*
X28899622Y15804474D01*
X28901575Y15792983D01*
X28903362Y15777553D01*
X28904854Y15759486D01*
X28906038Y15739542D01*
X28906901Y15718482D01*
X28907431Y15697066D01*
X28907615Y15676055D01*
X28907442Y15656210D01*
X28906898Y15638289D01*
X28905971Y15623056D01*
X28904649Y15611268D01*
X28902919Y15603688D01*
X28900552Y15598558D01*
X28894407Y15589412D01*
X28886998Y15581617D01*
X28879776Y15576852D01*
X28870153Y15574797D01*
X28858528Y15576386D01*
X28847831Y15581869D01*
X28839392Y15590784D01*
X28838963Y15591487D01*
X28837803Y15594147D01*
X28836846Y15597989D01*
X28836055Y15603556D01*
X28835389Y15611391D01*
X28834810Y15622037D01*
X28834277Y15636037D01*
X28833752Y15653936D01*
X28833195Y15676276D01*
X28833099Y15680308D01*
X28832543Y15701976D01*
X28831928Y15723772D01*
X28831287Y15744672D01*
X28830651Y15763656D01*
X28830055Y15779700D01*
X28829529Y15791783D01*
X28829063Y15802413D01*
X28828829Y15816202D01*
X28829441Y15826285D01*
X28831123Y15833438D01*
X28834096Y15838441D01*
X28838585Y15842071D01*
X28844811Y15845104D01*
X28854656Y15848201D01*
X28867212Y15848582D01*
X28878075Y15844334D01*
G37*
G36*
X29035734Y15857657D02*
G01*
X29044853Y15852874D01*
X29053593Y15844876D01*
X29060777Y15834587D01*
X29064836Y15826171D01*
X29071352Y15809113D01*
X29077795Y15788220D01*
X29084031Y15764200D01*
X29089929Y15737759D01*
X29095357Y15709603D01*
X29100181Y15680439D01*
X29104269Y15650974D01*
X29107488Y15621915D01*
X29109707Y15593967D01*
X29110793Y15567837D01*
X29110851Y15564775D01*
X29111026Y15552375D01*
X29110892Y15543631D01*
X29110279Y15537440D01*
X29109013Y15532700D01*
X29106923Y15528305D01*
X29103838Y15523152D01*
X29102039Y15520363D01*
X29095122Y15512260D01*
X29087636Y15507904D01*
X29086641Y15507575D01*
X29080120Y15506060D01*
X29075685Y15506035D01*
X29073582Y15506556D01*
X29067775Y15507144D01*
X29066870Y15507240D01*
X29061565Y15509427D01*
X29055523Y15513591D01*
X29051179Y15518164D01*
X29047374Y15524657D01*
X29044202Y15533495D01*
X29041480Y15545337D01*
X29039021Y15560845D01*
X29036638Y15580676D01*
X29035611Y15590027D01*
X29033225Y15610470D01*
X29030756Y15629508D01*
X29028039Y15648185D01*
X29024909Y15667548D01*
X29021200Y15688642D01*
X29016746Y15712512D01*
X29011382Y15740205D01*
X29010761Y15743378D01*
X29006300Y15766462D01*
X29002828Y15785257D01*
X29000295Y15800287D01*
X28998655Y15812072D01*
X28997859Y15821135D01*
X28997860Y15827999D01*
X28998608Y15833185D01*
X29000057Y15837216D01*
X29002158Y15840614D01*
X29005486Y15844564D01*
X29013677Y15851657D01*
X29022462Y15856692D01*
X29030188Y15858606D01*
X29035734Y15857657D01*
G37*
G36*
X25204696Y16124859D02*
G01*
X25260281Y16124780D01*
X25313018Y16124686D01*
X25363014Y16124598D01*
X25408458Y16124511D01*
X25449571Y16124419D01*
X25486574Y16124315D01*
X25519687Y16124190D01*
X25549131Y16124039D01*
X25575127Y16123854D01*
X25597894Y16123627D01*
X25617655Y16123351D01*
X25634630Y16123020D01*
X25649039Y16122626D01*
X25661103Y16122162D01*
X25671043Y16121620D01*
X25679079Y16120993D01*
X25685432Y16120275D01*
X25690323Y16119458D01*
X25693972Y16118535D01*
X25696600Y16117498D01*
X25698428Y16116341D01*
X25699677Y16115056D01*
X25700567Y16113636D01*
X25701318Y16112074D01*
X25702152Y16110362D01*
X25702252Y16110170D01*
X25703685Y16105675D01*
X25704413Y16098744D01*
X25704476Y16088538D01*
X25703916Y16074219D01*
X25700709Y16035336D01*
X25691968Y15979669D01*
X25678458Y15924352D01*
X25660303Y15869703D01*
X25637627Y15816042D01*
X25610555Y15763689D01*
X25579213Y15712961D01*
X25543724Y15664180D01*
X25541700Y15661642D01*
X25529517Y15647347D01*
X25514523Y15630984D01*
X25497575Y15613395D01*
X25479532Y15595422D01*
X25461253Y15577907D01*
X25443595Y15561692D01*
X25427417Y15547619D01*
X25413578Y15536529D01*
X25394869Y15522771D01*
X25376435Y15510046D01*
X25358218Y15498490D01*
X25339000Y15487367D01*
X25317562Y15475942D01*
X25292685Y15463476D01*
X25287748Y15461067D01*
X25262344Y15449057D01*
X25239465Y15439062D01*
X25217671Y15430548D01*
X25195518Y15422982D01*
X25171566Y15415829D01*
X25144373Y15408556D01*
X25134441Y15406052D01*
X25115060Y15401522D01*
X25098612Y15398290D01*
X25083867Y15396132D01*
X25069594Y15394821D01*
X25066335Y15394660D01*
X25057239Y15394371D01*
X25043716Y15394053D01*
X25026107Y15393709D01*
X25004758Y15393345D01*
X24980012Y15392966D01*
X24952213Y15392575D01*
X24921705Y15392179D01*
X24888832Y15391781D01*
X24853938Y15391386D01*
X24817366Y15391000D01*
X24779460Y15390626D01*
X24740565Y15390270D01*
X24711970Y15390018D01*
X24659268Y15389549D01*
X24611198Y15389108D01*
X24567526Y15388689D01*
X24528018Y15388284D01*
X24492440Y15387886D01*
X24460557Y15387486D01*
X24432136Y15387077D01*
X24406942Y15386651D01*
X24384741Y15386202D01*
X24365300Y15385720D01*
X24348383Y15385199D01*
X24333757Y15384631D01*
X24321187Y15384008D01*
X24310440Y15383323D01*
X24301282Y15382568D01*
X24293478Y15381735D01*
X24286793Y15380817D01*
X24280995Y15379807D01*
X24275848Y15378695D01*
X24271120Y15377476D01*
X24266574Y15376141D01*
X24261978Y15374683D01*
X24253674Y15371847D01*
X24219739Y15357049D01*
X24188030Y15337936D01*
X24158905Y15314782D01*
X24132717Y15287862D01*
X24109825Y15257448D01*
X24108762Y15255818D01*
X24093354Y15227527D01*
X24081765Y15196747D01*
X24074084Y15164254D01*
X24070400Y15130824D01*
X24070799Y15097232D01*
X24075372Y15064256D01*
X24084207Y15032671D01*
X24089708Y15018576D01*
X24105962Y14986234D01*
X24126074Y14956661D01*
X24149682Y14930149D01*
X24176421Y14906988D01*
X24205929Y14887471D01*
X24237841Y14871889D01*
X24271795Y14860533D01*
X24307427Y14853694D01*
X24312169Y14853409D01*
X24321839Y14853122D01*
X24336343Y14852833D01*
X24355607Y14852545D01*
X24379555Y14852257D01*
X24408111Y14851969D01*
X24441200Y14851684D01*
X24478746Y14851400D01*
X24520674Y14851118D01*
X24566909Y14850839D01*
X24617374Y14850564D01*
X24671995Y14850293D01*
X24730695Y14850026D01*
X24793400Y14849764D01*
X24860033Y14849508D01*
X24930520Y14849257D01*
X25004785Y14849013D01*
X25011574Y14848992D01*
X25069295Y14848802D01*
X25125742Y14848605D01*
X25180709Y14848402D01*
X25233990Y14848194D01*
X25285377Y14847982D01*
X25334666Y14847768D01*
X25381649Y14847552D01*
X25426122Y14847335D01*
X25467876Y14847119D01*
X25506708Y14846905D01*
X25542409Y14846694D01*
X25574775Y14846487D01*
X25603598Y14846285D01*
X25628673Y14846090D01*
X25649794Y14845902D01*
X25666754Y14845722D01*
X25679347Y14845553D01*
X25687368Y14845394D01*
X25690609Y14845247D01*
X25699681Y14843620D01*
X25701216Y14827035D01*
X25701259Y14826358D01*
X25701413Y14820904D01*
X25701576Y14810766D01*
X25701746Y14796175D01*
X25701922Y14777364D01*
X25702103Y14754567D01*
X25702288Y14728014D01*
X25702476Y14697939D01*
X25702665Y14664574D01*
X25702853Y14628151D01*
X25703041Y14588903D01*
X25703226Y14547063D01*
X25703408Y14502862D01*
X25703585Y14456534D01*
X25703756Y14408310D01*
X25703919Y14358424D01*
X25704074Y14307107D01*
X25704220Y14254592D01*
X25704273Y14234066D01*
X25704451Y14159080D01*
X25704588Y14088887D01*
X25704682Y14023332D01*
X25704732Y13962263D01*
X25704737Y13905527D01*
X25704695Y13852971D01*
X25704604Y13804442D01*
X25704463Y13759787D01*
X25704271Y13718852D01*
X25704025Y13681486D01*
X25703726Y13647535D01*
X25703370Y13616845D01*
X25702956Y13589265D01*
X25702484Y13564641D01*
X25701951Y13542819D01*
X25701356Y13523648D01*
X25700698Y13506973D01*
X25699975Y13492643D01*
X25699185Y13480503D01*
X25698327Y13470402D01*
X25697400Y13462185D01*
X25696401Y13455701D01*
X25695877Y13452849D01*
X25688040Y13414698D01*
X25679074Y13378400D01*
X25669260Y13344998D01*
X25658874Y13315531D01*
X25657053Y13310945D01*
X25648950Y13291882D01*
X25639175Y13270480D01*
X25628414Y13248139D01*
X25617355Y13226259D01*
X25606684Y13206242D01*
X25597088Y13189488D01*
X25588963Y13176449D01*
X25563193Y13139537D01*
X25533555Y13102647D01*
X25500789Y13066567D01*
X25465638Y13032083D01*
X25428842Y12999982D01*
X25391144Y12971049D01*
X25367170Y12954751D01*
X25319338Y12926614D01*
X25268388Y12901965D01*
X25214759Y12880967D01*
X25158887Y12863783D01*
X25101213Y12850575D01*
X25042175Y12841506D01*
X25039595Y12841298D01*
X25031414Y12841044D01*
X25020690Y12841031D01*
X25009061Y12841270D01*
X25002863Y12841469D01*
X24991710Y12842069D01*
X24983737Y12843456D01*
X24978362Y12846328D01*
X24975001Y12851382D01*
X24973071Y12859318D01*
X24971989Y12870833D01*
X24971172Y12886624D01*
X24971055Y12890149D01*
X24970874Y12899330D01*
X24970684Y12913097D01*
X24970485Y12931215D01*
X24970279Y12953447D01*
X24970067Y12979556D01*
X24969851Y13009307D01*
X24969631Y13042463D01*
X24969410Y13078787D01*
X24969188Y13118043D01*
X24968968Y13159995D01*
X24968749Y13204407D01*
X24968534Y13251042D01*
X24968325Y13299664D01*
X24968122Y13350036D01*
X24967926Y13401923D01*
X24967740Y13455087D01*
X24967564Y13509293D01*
X24967375Y13568345D01*
X24967144Y13635155D01*
X24966911Y13697127D01*
X24966675Y13754341D01*
X24966435Y13806875D01*
X24966191Y13854812D01*
X24965942Y13898230D01*
X24965687Y13937210D01*
X24965426Y13971831D01*
X24965158Y14002175D01*
X24964882Y14028321D01*
X24964599Y14050349D01*
X24964307Y14068340D01*
X24964005Y14082373D01*
X24963694Y14092529D01*
X24963372Y14098888D01*
X24963040Y14101530D01*
X24962405Y14102989D01*
X24961049Y14105107D01*
X24958776Y14106597D01*
X24954775Y14107630D01*
X24948232Y14108377D01*
X24938335Y14109011D01*
X24924270Y14109701D01*
X24918639Y14109896D01*
X24907643Y14110155D01*
X24892297Y14110438D01*
X24872949Y14110742D01*
X24849944Y14111063D01*
X24823627Y14111397D01*
X24794343Y14111739D01*
X24762440Y14112087D01*
X24728262Y14112435D01*
X24692154Y14112780D01*
X24654463Y14113117D01*
X24615535Y14113443D01*
X24575714Y14113754D01*
X24543041Y14114013D01*
X24503781Y14114358D01*
X24465727Y14114729D01*
X24429222Y14115121D01*
X24394610Y14115529D01*
X24362233Y14115948D01*
X24332437Y14116374D01*
X24305565Y14116801D01*
X24281959Y14117224D01*
X24261965Y14117638D01*
X24245924Y14118039D01*
X24234182Y14118422D01*
X24227081Y14118781D01*
X24205764Y14120785D01*
X24171892Y14125643D01*
X24135692Y14132814D01*
X24096218Y14142472D01*
X24094987Y14142797D01*
X24081834Y14146265D01*
X24069495Y14149502D01*
X24059304Y14152159D01*
X24052597Y14153887D01*
X24051861Y14154075D01*
X24034987Y14159038D01*
X24014687Y14166006D01*
X23991857Y14174598D01*
X23967393Y14184435D01*
X23942192Y14195137D01*
X23917149Y14206324D01*
X23893162Y14217614D01*
X23871127Y14228629D01*
X23851939Y14238988D01*
X23831082Y14251143D01*
X23771985Y14289325D01*
X23715879Y14331239D01*
X23662921Y14376658D01*
X23613268Y14425354D01*
X23567078Y14477102D01*
X23524509Y14531674D01*
X23485718Y14588844D01*
X23450863Y14648385D01*
X23420102Y14710070D01*
X23393593Y14773673D01*
X23371492Y14838966D01*
X23353957Y14905724D01*
X23341147Y14973719D01*
X23340124Y14980915D01*
X23337409Y15005246D01*
X23335215Y15033052D01*
X23333571Y15063220D01*
X23332508Y15094635D01*
X23332056Y15126186D01*
X23332247Y15156758D01*
X23333109Y15185237D01*
X23334675Y15210511D01*
X23334982Y15213958D01*
X23336784Y15230011D01*
X23339401Y15249353D01*
X23342629Y15270723D01*
X23346263Y15292867D01*
X23350100Y15314524D01*
X23353934Y15334439D01*
X23357562Y15351354D01*
X23357977Y15353122D01*
X23362071Y15368668D01*
X23367673Y15387632D01*
X23374426Y15408968D01*
X23381976Y15431630D01*
X23389967Y15454573D01*
X23398044Y15476750D01*
X23405851Y15497115D01*
X23413034Y15514621D01*
X23418104Y15526220D01*
X23448206Y15587787D01*
X23482631Y15647171D01*
X23521137Y15704132D01*
X23563484Y15758432D01*
X23609429Y15809830D01*
X23658730Y15858088D01*
X23711148Y15902966D01*
X23766439Y15944224D01*
X23824363Y15981625D01*
X23884678Y16014927D01*
X23947142Y16043893D01*
X23956844Y16047907D01*
X23993828Y16062067D01*
X24032623Y16075294D01*
X24072219Y16087312D01*
X24111603Y16097846D01*
X24149762Y16106620D01*
X24185684Y16113357D01*
X24218357Y16117783D01*
X24223061Y16118140D01*
X24233778Y16118636D01*
X24249072Y16119126D01*
X24268704Y16119606D01*
X24292436Y16120076D01*
X24320028Y16120533D01*
X24351242Y16120977D01*
X24385839Y16121405D01*
X24423581Y16121817D01*
X24464229Y16122210D01*
X24507543Y16122582D01*
X24553286Y16122933D01*
X24601218Y16123260D01*
X24651101Y16123563D01*
X24702695Y16123839D01*
X24755763Y16124086D01*
X24810066Y16124304D01*
X24865364Y16124490D01*
X24921420Y16124644D01*
X24977993Y16124762D01*
X25034847Y16124845D01*
X25091741Y16124889D01*
X25148437Y16124895D01*
X25204696Y16124859D01*
G37*
G36*
X29976083Y14588768D02*
G01*
X29975923Y14556656D01*
X29975556Y14520253D01*
X29974997Y14486481D01*
X29974222Y14454520D01*
X29973207Y14423553D01*
X29971930Y14392759D01*
X29970365Y14361320D01*
X29968490Y14328416D01*
X29966280Y14293228D01*
X29964532Y14267355D01*
X29950901Y14107417D01*
X29932513Y13948940D01*
X29909374Y13791945D01*
X29881489Y13636452D01*
X29848866Y13482482D01*
X29811511Y13330055D01*
X29769431Y13179193D01*
X29722632Y13029917D01*
X29671120Y12882247D01*
X29614902Y12736205D01*
X29553985Y12591810D01*
X29488374Y12449084D01*
X29418077Y12308048D01*
X29343099Y12168722D01*
X29263448Y12031127D01*
X29228499Y11973680D01*
X29167015Y11876629D01*
X29103934Y11782169D01*
X29038640Y11689435D01*
X28970519Y11597563D01*
X28898953Y11505688D01*
X28823328Y11412946D01*
X28815500Y11403568D01*
X28776608Y11357607D01*
X28738212Y11313342D01*
X28699681Y11270090D01*
X28660384Y11227170D01*
X28619690Y11183900D01*
X28576967Y11139598D01*
X28531585Y11093581D01*
X28482912Y11045169D01*
X28406198Y10971251D01*
X28295056Y10869962D01*
X28180225Y10771846D01*
X28061891Y10677025D01*
X27940240Y10585620D01*
X27815457Y10497753D01*
X27687729Y10413546D01*
X27557242Y10333119D01*
X27424181Y10256593D01*
X27288733Y10184092D01*
X27151083Y10115734D01*
X27011417Y10051643D01*
X26869921Y9991940D01*
X26840936Y9980351D01*
X26699796Y9927073D01*
X26556161Y9877985D01*
X26410294Y9833145D01*
X26262457Y9792615D01*
X26112912Y9756455D01*
X25961923Y9724724D01*
X25809752Y9697484D01*
X25656660Y9674793D01*
X25502912Y9656713D01*
X25348769Y9643303D01*
X25340156Y9642700D01*
X25312993Y9640944D01*
X25283875Y9639252D01*
X25253957Y9637680D01*
X25224392Y9636282D01*
X25196335Y9635114D01*
X25170939Y9634232D01*
X25149358Y9633692D01*
X25089417Y9632811D01*
X25024686Y9632324D01*
X24961059Y9632323D01*
X24899087Y9632797D01*
X24839323Y9633738D01*
X24782319Y9635138D01*
X24728626Y9636986D01*
X24678796Y9639275D01*
X24633382Y9641995D01*
X24499677Y9652707D01*
X24343391Y9669401D01*
X24189276Y9690475D01*
X24037144Y9715968D01*
X23886808Y9745921D01*
X23738079Y9780376D01*
X23590771Y9819373D01*
X23444695Y9862952D01*
X23299663Y9911156D01*
X23155489Y9964025D01*
X23060069Y10001872D01*
X22924681Y10059720D01*
X22790277Y10121993D01*
X22657265Y10188462D01*
X22526057Y10258895D01*
X22397063Y10333062D01*
X22270692Y10410734D01*
X22147354Y10491680D01*
X22027460Y10575670D01*
X21911419Y10662473D01*
X21830006Y10726739D01*
X21708157Y10828078D01*
X21590080Y10932672D01*
X21475794Y11040498D01*
X21365317Y11151534D01*
X21258666Y11265756D01*
X21155859Y11383143D01*
X21056914Y11503672D01*
X20961848Y11627320D01*
X20870680Y11754064D01*
X20783426Y11883882D01*
X20700106Y12016752D01*
X20620736Y12152650D01*
X20545334Y12291555D01*
X20473919Y12433443D01*
X20406507Y12578292D01*
X20398751Y12595739D01*
X20339288Y12736370D01*
X20284281Y12879104D01*
X20233746Y13023790D01*
X20187699Y13170279D01*
X20146158Y13318420D01*
X20109137Y13468064D01*
X20076654Y13619059D01*
X20048725Y13771257D01*
X20025366Y13924507D01*
X20006593Y14078659D01*
X19992422Y14233563D01*
X19982870Y14389068D01*
X19977954Y14545025D01*
X19977800Y14635582D01*
X20075984Y14635582D01*
X20076044Y14603311D01*
X20076224Y14571580D01*
X20076523Y14541082D01*
X20076941Y14512510D01*
X20077479Y14486557D01*
X20078136Y14463915D01*
X20078913Y14445279D01*
X20081566Y14397249D01*
X20093039Y14241487D01*
X20108794Y14088092D01*
X20128868Y13936868D01*
X20153293Y13787619D01*
X20182105Y13640148D01*
X20215337Y13494259D01*
X20253024Y13349754D01*
X20295200Y13206437D01*
X20306638Y13170161D01*
X20356914Y13020849D01*
X20411636Y12873790D01*
X20470803Y12728990D01*
X20534412Y12586450D01*
X20602462Y12446174D01*
X20674951Y12308166D01*
X20751876Y12172429D01*
X20833237Y12038966D01*
X20919031Y11907780D01*
X21009257Y11778875D01*
X21103912Y11652254D01*
X21202995Y11527921D01*
X21306503Y11405878D01*
X21320902Y11389540D01*
X21356314Y11350323D01*
X21394978Y11308768D01*
X21437033Y11264731D01*
X21482615Y11218069D01*
X21531863Y11168640D01*
X21584913Y11116300D01*
X21616990Y11085062D01*
X21646984Y11056242D01*
X21675248Y11029559D01*
X21702595Y11004275D01*
X21729840Y10979657D01*
X21757797Y10954967D01*
X21787281Y10929469D01*
X21819107Y10902429D01*
X21854088Y10873109D01*
X21968320Y10780628D01*
X22093380Y10685458D01*
X22220816Y10594667D01*
X22350648Y10508243D01*
X22482898Y10426175D01*
X22617585Y10348452D01*
X22754731Y10275062D01*
X22894354Y10205995D01*
X23036477Y10141238D01*
X23181119Y10080780D01*
X23328301Y10024610D01*
X23478043Y9972717D01*
X23539262Y9952971D01*
X23653736Y9918361D01*
X23768123Y9886855D01*
X23882928Y9858359D01*
X23998653Y9832777D01*
X24115804Y9810016D01*
X24234883Y9789979D01*
X24356395Y9772572D01*
X24480843Y9757701D01*
X24608732Y9745271D01*
X24740565Y9735186D01*
X24747588Y9734780D01*
X24762383Y9734140D01*
X24781032Y9733519D01*
X24802948Y9732923D01*
X24827541Y9732360D01*
X24854221Y9731837D01*
X24882400Y9731361D01*
X24911488Y9730938D01*
X24940895Y9730576D01*
X24970034Y9730282D01*
X24998313Y9730063D01*
X25025144Y9729925D01*
X25049938Y9729876D01*
X25072105Y9729923D01*
X25091056Y9730073D01*
X25106202Y9730332D01*
X25116954Y9730708D01*
X25118902Y9730809D01*
X25127679Y9731248D01*
X25140102Y9731856D01*
X25155169Y9732585D01*
X25171882Y9733387D01*
X25189240Y9734213D01*
X25228568Y9736291D01*
X25299188Y9740981D01*
X25372514Y9746984D01*
X25447249Y9754180D01*
X25522100Y9762450D01*
X25595770Y9771674D01*
X25681458Y9783837D01*
X25835373Y9809567D01*
X25988057Y9840096D01*
X26139413Y9875381D01*
X26289350Y9915381D01*
X26437771Y9960052D01*
X26584584Y10009351D01*
X26729694Y10063236D01*
X26873008Y10121665D01*
X27014430Y10184594D01*
X27153867Y10251981D01*
X27291225Y10323782D01*
X27426409Y10399957D01*
X27559326Y10480461D01*
X27689881Y10565253D01*
X27817980Y10654288D01*
X27943530Y10747526D01*
X28066436Y10844923D01*
X28186603Y10946436D01*
X28199827Y10958010D01*
X28216767Y10972938D01*
X28233707Y10987967D01*
X28249702Y11002254D01*
X28263812Y11014962D01*
X28275092Y11025250D01*
X28275200Y11025349D01*
X28286804Y11036217D01*
X28301432Y11050196D01*
X28318630Y11066835D01*
X28337944Y11085682D01*
X28358922Y11106285D01*
X28381109Y11128193D01*
X28404053Y11150953D01*
X28427301Y11174115D01*
X28450397Y11197226D01*
X28472891Y11219835D01*
X28494327Y11241491D01*
X28514253Y11261740D01*
X28532215Y11280132D01*
X28547760Y11296216D01*
X28560434Y11309538D01*
X28593317Y11344955D01*
X28664216Y11424292D01*
X28735048Y11507516D01*
X28805268Y11593915D01*
X28874326Y11682776D01*
X28941678Y11773388D01*
X29006776Y11865039D01*
X29069072Y11957015D01*
X29128021Y12048606D01*
X29208261Y12181350D01*
X29284381Y12316760D01*
X29356154Y12454409D01*
X29423527Y12594154D01*
X29486451Y12735850D01*
X29544875Y12879353D01*
X29598747Y13024518D01*
X29648017Y13171203D01*
X29692633Y13319261D01*
X29732544Y13468550D01*
X29767701Y13618925D01*
X29798051Y13770241D01*
X29823543Y13922355D01*
X29844128Y14075122D01*
X29852934Y14153938D01*
X29863538Y14266224D01*
X29871440Y14375615D01*
X29876646Y14482874D01*
X29879162Y14588768D01*
X29878992Y14694061D01*
X29876143Y14799518D01*
X29870619Y14905904D01*
X29862426Y15013984D01*
X29851569Y15124523D01*
X29840482Y15218921D01*
X29821123Y15357262D01*
X29798279Y15492998D01*
X29771794Y15626847D01*
X29741511Y15759526D01*
X29707274Y15891754D01*
X29668927Y16024246D01*
X29626313Y16157723D01*
X29593038Y16254157D01*
X29538211Y16400696D01*
X29479030Y16544851D01*
X29415479Y16686648D01*
X29347541Y16826116D01*
X29275200Y16963285D01*
X29198440Y17098181D01*
X29117245Y17230834D01*
X29031597Y17361272D01*
X28941481Y17489524D01*
X28846881Y17615617D01*
X28747779Y17739580D01*
X28644160Y17861442D01*
X28632402Y17874803D01*
X28613746Y17895747D01*
X28595164Y17916255D01*
X28576197Y17936812D01*
X28556384Y17957902D01*
X28535264Y17980010D01*
X28512377Y18003620D01*
X28487263Y18029216D01*
X28459460Y18057284D01*
X28428510Y18088306D01*
X28389023Y18127528D01*
X28346334Y18169277D01*
X28305619Y18208311D01*
X28266224Y18245218D01*
X28227493Y18280587D01*
X28188771Y18315008D01*
X28149404Y18349069D01*
X28108736Y18383359D01*
X28066113Y18418469D01*
X28020879Y18454987D01*
X27982181Y18485640D01*
X27857479Y18580270D01*
X27730161Y18670688D01*
X27600329Y18756851D01*
X27468081Y18838722D01*
X27333516Y18916258D01*
X27196734Y18989420D01*
X27057834Y19058167D01*
X26916915Y19122460D01*
X26774078Y19182257D01*
X26629420Y19237519D01*
X26483042Y19288204D01*
X26335042Y19334274D01*
X26185521Y19375686D01*
X26034577Y19412402D01*
X25882310Y19444381D01*
X25728819Y19471582D01*
X25574204Y19493965D01*
X25418563Y19511490D01*
X25415319Y19511803D01*
X25309900Y19520931D01*
X25207971Y19527685D01*
X25108673Y19532084D01*
X25011147Y19534146D01*
X24914536Y19533889D01*
X24817981Y19531333D01*
X24720624Y19526495D01*
X24651320Y19521805D01*
X24493901Y19507636D01*
X24337800Y19488660D01*
X24183003Y19464873D01*
X24029496Y19436272D01*
X23877265Y19402853D01*
X23726294Y19364613D01*
X23576571Y19321546D01*
X23428081Y19273650D01*
X23280809Y19220921D01*
X23134741Y19163355D01*
X22989862Y19100949D01*
X22846159Y19033698D01*
X22788913Y19005328D01*
X22658021Y18936671D01*
X22528289Y18863344D01*
X22399984Y18785524D01*
X22273377Y18703389D01*
X22148734Y18617115D01*
X22026325Y18526881D01*
X21906417Y18432864D01*
X21789280Y18335240D01*
X21783102Y18329920D01*
X21726128Y18279700D01*
X21667402Y18225966D01*
X21607621Y18169417D01*
X21547487Y18110757D01*
X21487698Y18050687D01*
X21428954Y17989908D01*
X21371956Y17929124D01*
X21317402Y17869035D01*
X21265993Y17810343D01*
X21233611Y17772254D01*
X21134212Y17650308D01*
X21038975Y17525638D01*
X20947937Y17398312D01*
X20861133Y17268402D01*
X20778600Y17135976D01*
X20700375Y17001103D01*
X20626494Y16863854D01*
X20556994Y16724297D01*
X20491911Y16582503D01*
X20431281Y16438541D01*
X20375141Y16292481D01*
X20323528Y16144391D01*
X20276478Y15994342D01*
X20234027Y15842404D01*
X20208615Y15741096D01*
X20184076Y15632725D01*
X20162072Y15523373D01*
X20142522Y15412526D01*
X20125351Y15299672D01*
X20110480Y15184298D01*
X20097831Y15065892D01*
X20087328Y14943939D01*
X20078892Y14817929D01*
X20078139Y14801725D01*
X20077481Y14780771D01*
X20076942Y14756199D01*
X20076523Y14728700D01*
X20076224Y14698969D01*
X20076044Y14667699D01*
X20075984Y14635582D01*
X19977800Y14635582D01*
X19977689Y14701284D01*
X19982091Y14857694D01*
X19991178Y15014105D01*
X20004964Y15170367D01*
X20023468Y15326331D01*
X20046704Y15481845D01*
X20074689Y15636761D01*
X20106348Y15785470D01*
X20143370Y15935818D01*
X20185160Y16084965D01*
X20231650Y16232772D01*
X20282776Y16379099D01*
X20338470Y16523810D01*
X20398667Y16666764D01*
X20463300Y16807824D01*
X20532304Y16946851D01*
X20605611Y17083706D01*
X20683157Y17218250D01*
X20764874Y17350346D01*
X20850696Y17479855D01*
X20940559Y17606638D01*
X21034394Y17730556D01*
X21132137Y17851471D01*
X21151372Y17874360D01*
X21248400Y17985581D01*
X21349296Y18094434D01*
X21453684Y18200569D01*
X21561188Y18303633D01*
X21671434Y18403276D01*
X21784046Y18499145D01*
X21898647Y18590888D01*
X22014864Y18678155D01*
X22045356Y18700131D01*
X22175354Y18790054D01*
X22307713Y18875607D01*
X22442348Y18956757D01*
X22579177Y19033472D01*
X22718114Y19105718D01*
X22859078Y19173463D01*
X23001982Y19236675D01*
X23146745Y19295320D01*
X23293282Y19349365D01*
X23441510Y19398778D01*
X23591344Y19443527D01*
X23742701Y19483577D01*
X23895497Y19518898D01*
X24049649Y19549455D01*
X24205073Y19575216D01*
X24361684Y19596149D01*
X24438193Y19604585D01*
X24597093Y19618472D01*
X24756264Y19627515D01*
X24915534Y19631725D01*
X25074727Y19631115D01*
X25233671Y19625698D01*
X25392190Y19615486D01*
X25550110Y19600492D01*
X25707257Y19580728D01*
X25863458Y19556208D01*
X26018538Y19526943D01*
X26172323Y19492946D01*
X26324638Y19454230D01*
X26427944Y19424974D01*
X26574933Y19378987D01*
X26720600Y19328276D01*
X26864778Y19272932D01*
X27007303Y19213044D01*
X27148008Y19148703D01*
X27286727Y19079997D01*
X27423293Y19007016D01*
X27557541Y18929851D01*
X27689305Y18848592D01*
X27818418Y18763327D01*
X27944714Y18674146D01*
X28068027Y18581141D01*
X28188191Y18484399D01*
X28305040Y18384011D01*
X28339853Y18352824D01*
X28454102Y18246223D01*
X28564810Y18136277D01*
X28671873Y18023111D01*
X28775188Y17906852D01*
X28874653Y17787626D01*
X28970163Y17665560D01*
X29061617Y17540780D01*
X29148910Y17413413D01*
X29231940Y17283584D01*
X29310604Y17151420D01*
X29355766Y17071060D01*
X29430336Y16930567D01*
X29500124Y16788674D01*
X29565136Y16645366D01*
X29625374Y16500627D01*
X29680845Y16354442D01*
X29731552Y16206796D01*
X29777500Y16057675D01*
X29818694Y15907062D01*
X29855138Y15754943D01*
X29886836Y15601303D01*
X29913794Y15446126D01*
X29936016Y15289398D01*
X29953505Y15131103D01*
X29966268Y14971226D01*
X29967449Y14952735D01*
X29969438Y14919962D01*
X29971115Y14889594D01*
X29972503Y14860810D01*
X29973627Y14832790D01*
X29974511Y14804712D01*
X29975179Y14775756D01*
X29975656Y14745100D01*
X29975965Y14711922D01*
X29976130Y14675402D01*
X29976176Y14634720D01*
X29976122Y14596510D01*
X29976083Y14588768D01*
G37*
G36*
X21683416Y16401974D02*
G01*
X21690355Y16401613D01*
X21696591Y16400558D01*
X21702399Y16398472D01*
X21708052Y16395015D01*
X21713823Y16389849D01*
X21719986Y16382635D01*
X21726815Y16373034D01*
X21734583Y16360707D01*
X21743564Y16345316D01*
X21754031Y16326522D01*
X21766258Y16303986D01*
X21780519Y16277369D01*
X21787160Y16264975D01*
X21800909Y16239647D01*
X21812757Y16218359D01*
X21822899Y16200802D01*
X21831527Y16186666D01*
X21838833Y16175643D01*
X21845011Y16167421D01*
X21850252Y16161693D01*
X21854750Y16158147D01*
X21857216Y16156817D01*
X21866021Y16153118D01*
X21878094Y16148913D01*
X21892300Y16144539D01*
X21907501Y16140338D01*
X21922562Y16136646D01*
X21936345Y16133804D01*
X21941969Y16132950D01*
X21949450Y16132124D01*
X21958776Y16131356D01*
X21970113Y16130645D01*
X21983625Y16129988D01*
X21999477Y16129383D01*
X22017836Y16128828D01*
X22038866Y16128322D01*
X22062732Y16127861D01*
X22089601Y16127445D01*
X22119636Y16127071D01*
X22153004Y16126736D01*
X22189870Y16126440D01*
X22230398Y16126179D01*
X22274755Y16125952D01*
X22323106Y16125757D01*
X22375615Y16125591D01*
X22432448Y16125453D01*
X22493771Y16125341D01*
X22559748Y16125252D01*
X22630546Y16125184D01*
X22676146Y16125142D01*
X22724990Y16125081D01*
X22772786Y16125005D01*
X22819252Y16124916D01*
X22864107Y16124815D01*
X22907069Y16124703D01*
X22947858Y16124581D01*
X22986193Y16124450D01*
X23021791Y16124310D01*
X23054373Y16124163D01*
X23083657Y16124011D01*
X23109361Y16123853D01*
X23131205Y16123692D01*
X23148907Y16123527D01*
X23162186Y16123361D01*
X23170760Y16123193D01*
X23186384Y16122786D01*
X23203660Y16122247D01*
X23216885Y16121431D01*
X23226593Y16120017D01*
X23233318Y16117685D01*
X23237594Y16114111D01*
X23239954Y16108976D01*
X23240932Y16101958D01*
X23241062Y16092736D01*
X23240877Y16080988D01*
X23239780Y16053937D01*
X23234501Y16006518D01*
X23225112Y15957946D01*
X23211832Y15908898D01*
X23194882Y15860053D01*
X23174481Y15812089D01*
X23150850Y15765682D01*
X23124208Y15721511D01*
X23104623Y15693257D01*
X23071563Y15651328D01*
X23035207Y15611298D01*
X22996321Y15573937D01*
X22955671Y15540016D01*
X22914024Y15510304D01*
X22912326Y15509200D01*
X22879136Y15489051D01*
X22843381Y15469815D01*
X22806077Y15451923D01*
X22768241Y15435812D01*
X22730889Y15421915D01*
X22695038Y15410666D01*
X22661704Y15402499D01*
X22657714Y15401710D01*
X22650016Y15400342D01*
X22641766Y15399108D01*
X22632668Y15397997D01*
X22622426Y15396999D01*
X22610745Y15396103D01*
X22597330Y15395301D01*
X22581885Y15394580D01*
X22564114Y15393933D01*
X22543722Y15393347D01*
X22520413Y15392813D01*
X22493892Y15392321D01*
X22463864Y15391861D01*
X22430032Y15391421D01*
X22392102Y15390994D01*
X22349778Y15390567D01*
X22302763Y15390131D01*
X22282123Y15389945D01*
X22227006Y15389446D01*
X22176568Y15388980D01*
X22130581Y15388538D01*
X22088821Y15388114D01*
X22051059Y15387700D01*
X22017070Y15387288D01*
X21986627Y15386872D01*
X21959503Y15386442D01*
X21935472Y15385993D01*
X21914308Y15385517D01*
X21895783Y15385005D01*
X21879673Y15384452D01*
X21865749Y15383848D01*
X21853785Y15383187D01*
X21843556Y15382461D01*
X21834834Y15381663D01*
X21827392Y15380785D01*
X21821006Y15379819D01*
X21815447Y15378759D01*
X21810489Y15377596D01*
X21805907Y15376324D01*
X21801472Y15374935D01*
X21796960Y15373421D01*
X21784777Y15369056D01*
X21756002Y15356664D01*
X21730580Y15342238D01*
X21707424Y15325107D01*
X21685442Y15304599D01*
X21664215Y15280308D01*
X21645418Y15252738D01*
X21630229Y15222721D01*
X21618108Y15189332D01*
X21615761Y15181351D01*
X21613979Y15174206D01*
X21612744Y15167152D01*
X21611959Y15159173D01*
X21611523Y15149255D01*
X21611338Y15136381D01*
X21611304Y15119538D01*
X21611441Y15102067D01*
X21612063Y15084601D01*
X21613388Y15069898D01*
X21615633Y15056750D01*
X21619012Y15043948D01*
X21623741Y15030282D01*
X21630037Y15014545D01*
X21634830Y15003928D01*
X21649657Y14977844D01*
X21668106Y14952619D01*
X21689387Y14929074D01*
X21712709Y14908034D01*
X21737283Y14890322D01*
X21762318Y14876761D01*
X21783949Y14867860D01*
X21807481Y14860433D01*
X21829162Y14856304D01*
X21829676Y14856256D01*
X21834928Y14856039D01*
X21844896Y14855808D01*
X21859358Y14855565D01*
X21878096Y14855311D01*
X21900888Y14855048D01*
X21927516Y14854778D01*
X21957757Y14854502D01*
X21991393Y14854222D01*
X22028204Y14853940D01*
X22067969Y14853657D01*
X22110468Y14853375D01*
X22155481Y14853096D01*
X22202788Y14852821D01*
X22252170Y14852551D01*
X22303405Y14852290D01*
X22356273Y14852037D01*
X22410556Y14851795D01*
X22466031Y14851565D01*
X22527626Y14851316D01*
X22597577Y14851024D01*
X22662833Y14850738D01*
X22723554Y14850457D01*
X22779899Y14850178D01*
X22832027Y14849899D01*
X22880099Y14849617D01*
X22924272Y14849331D01*
X22964706Y14849038D01*
X23001560Y14848737D01*
X23034994Y14848424D01*
X23065167Y14848098D01*
X23092237Y14847757D01*
X23116364Y14847397D01*
X23137708Y14847018D01*
X23156427Y14846617D01*
X23172681Y14846191D01*
X23186629Y14845739D01*
X23198430Y14845258D01*
X23208243Y14844746D01*
X23216228Y14844200D01*
X23222543Y14843619D01*
X23227349Y14843001D01*
X23230804Y14842343D01*
X23233067Y14841642D01*
X23234297Y14840898D01*
X23236692Y14836154D01*
X23238742Y14826725D01*
X23240419Y14812499D01*
X23240561Y14809775D01*
X23240763Y14801750D01*
X23240957Y14789188D01*
X23241142Y14772357D01*
X23241318Y14751526D01*
X23241485Y14726961D01*
X23241643Y14698931D01*
X23241791Y14667702D01*
X23241930Y14633543D01*
X23242059Y14596722D01*
X23242178Y14557505D01*
X23242286Y14516161D01*
X23242384Y14472957D01*
X23242472Y14428161D01*
X23242548Y14382041D01*
X23242614Y14334864D01*
X23242668Y14286897D01*
X23242711Y14238409D01*
X23242743Y14189668D01*
X23242762Y14140940D01*
X23242770Y14092494D01*
X23242765Y14044596D01*
X23242748Y13997516D01*
X23242719Y13951520D01*
X23242676Y13906876D01*
X23242621Y13863852D01*
X23242553Y13822715D01*
X23242471Y13783733D01*
X23242376Y13747174D01*
X23242267Y13713306D01*
X23242144Y13682395D01*
X23242007Y13654710D01*
X23241855Y13630518D01*
X23241689Y13610087D01*
X23241509Y13593685D01*
X23241313Y13581579D01*
X23241205Y13576560D01*
X23240683Y13556087D01*
X23240054Y13536247D01*
X23239352Y13517911D01*
X23238614Y13501949D01*
X23237876Y13489231D01*
X23237173Y13480627D01*
X23237156Y13480465D01*
X23228994Y13427190D01*
X23216096Y13373761D01*
X23198671Y13320675D01*
X23176923Y13268428D01*
X23151059Y13217517D01*
X23121287Y13168438D01*
X23087812Y13121687D01*
X23081764Y13114079D01*
X23061873Y13090921D01*
X23039048Y13066606D01*
X23014317Y13042127D01*
X22988704Y13018475D01*
X22963235Y12996645D01*
X22938936Y12977627D01*
X22929384Y12970727D01*
X22891663Y12946170D01*
X22850847Y12923397D01*
X22807786Y12902738D01*
X22763331Y12884520D01*
X22718335Y12869072D01*
X22673648Y12856721D01*
X22630121Y12847795D01*
X22588606Y12842623D01*
X22579948Y12842068D01*
X22564710Y12841619D01*
X22549723Y12841746D01*
X22536166Y12842408D01*
X22525220Y12843562D01*
X22518063Y12845165D01*
X22514103Y12848279D01*
X22511016Y12855419D01*
X22510968Y12855841D01*
X22510789Y12860456D01*
X22510596Y12869763D01*
X22510390Y12883534D01*
X22510173Y12901539D01*
X22509947Y12923552D01*
X22509712Y12949343D01*
X22509472Y12978683D01*
X22509227Y13011345D01*
X22508978Y13047100D01*
X22508729Y13085719D01*
X22508479Y13126974D01*
X22508232Y13170637D01*
X22507987Y13216478D01*
X22507748Y13264270D01*
X22507515Y13313784D01*
X22507290Y13364792D01*
X22507076Y13417065D01*
X22507035Y13427254D01*
X22506813Y13479920D01*
X22506577Y13531215D01*
X22506330Y13580913D01*
X22506072Y13628789D01*
X22505807Y13674616D01*
X22505536Y13718169D01*
X22505259Y13759222D01*
X22504981Y13797548D01*
X22504701Y13832922D01*
X22504422Y13865117D01*
X22504145Y13893909D01*
X22503873Y13919071D01*
X22503607Y13940378D01*
X22503348Y13957602D01*
X22503100Y13970519D01*
X22502862Y13978903D01*
X22502638Y13982527D01*
X22500925Y13989332D01*
X22496999Y13996542D01*
X22491695Y13999058D01*
X22491447Y13998940D01*
X22488314Y13996308D01*
X22481809Y13990309D01*
X22472058Y13981066D01*
X22459185Y13968701D01*
X22443315Y13953337D01*
X22424573Y13935096D01*
X22403083Y13914102D01*
X22378970Y13890476D01*
X22352358Y13864342D01*
X22323374Y13835821D01*
X22292140Y13805037D01*
X22258783Y13772112D01*
X22223426Y13737169D01*
X22186195Y13700330D01*
X22147214Y13661718D01*
X22106608Y13621455D01*
X22064501Y13579664D01*
X22021019Y13536468D01*
X21975328Y13491058D01*
X21926643Y13442678D01*
X21881246Y13397577D01*
X21839008Y13355629D01*
X21799797Y13316709D01*
X21763483Y13280692D01*
X21729933Y13247452D01*
X21699018Y13216863D01*
X21670606Y13188801D01*
X21644567Y13163139D01*
X21620769Y13139752D01*
X21599082Y13118514D01*
X21579375Y13099301D01*
X21561516Y13081986D01*
X21545375Y13066444D01*
X21530821Y13052549D01*
X21517724Y13040177D01*
X21505951Y13029201D01*
X21495372Y13019496D01*
X21485856Y13010936D01*
X21477273Y13003397D01*
X21469491Y12996752D01*
X21462379Y12990876D01*
X21455807Y12985644D01*
X21449643Y12980929D01*
X21443757Y12976608D01*
X21438017Y12972553D01*
X21432293Y12968639D01*
X21426454Y12964742D01*
X21420369Y12960735D01*
X21386119Y12939610D01*
X21334288Y12912314D01*
X21280484Y12889221D01*
X21225237Y12870525D01*
X21169075Y12856422D01*
X21112528Y12847106D01*
X21104441Y12846276D01*
X21087354Y12845125D01*
X21067231Y12844331D01*
X21045073Y12843889D01*
X21021881Y12843792D01*
X20998658Y12844035D01*
X20976405Y12844611D01*
X20956123Y12845513D01*
X20938813Y12846736D01*
X20925478Y12848273D01*
X20875666Y12857796D01*
X20824441Y12871299D01*
X20773707Y12888280D01*
X20724296Y12908399D01*
X20677043Y12931315D01*
X20632781Y12956688D01*
X20592343Y12984179D01*
X20581623Y12992316D01*
X20566546Y13004316D01*
X20552628Y13016016D01*
X20540602Y13026776D01*
X20531199Y13035957D01*
X20525149Y13042920D01*
X20520702Y13049590D01*
X20518084Y13055738D01*
X20517785Y13061759D01*
X20520058Y13068373D01*
X20525154Y13076297D01*
X20533327Y13086251D01*
X20544829Y13098954D01*
X20545882Y13100074D01*
X20551137Y13105516D01*
X20559709Y13114278D01*
X20571448Y13126209D01*
X20586203Y13141156D01*
X20603822Y13158968D01*
X20624154Y13179492D01*
X20647049Y13202577D01*
X20672356Y13228071D01*
X20699923Y13255822D01*
X20729599Y13285678D01*
X20761234Y13317487D01*
X20794677Y13351097D01*
X20829775Y13386355D01*
X20866380Y13423112D01*
X20904339Y13461213D01*
X20943501Y13500508D01*
X20983716Y13540844D01*
X21024832Y13582069D01*
X21066698Y13624032D01*
X21086233Y13643611D01*
X21127375Y13684865D01*
X21167537Y13725163D01*
X21206580Y13764362D01*
X21244360Y13802319D01*
X21280737Y13838891D01*
X21315570Y13873935D01*
X21348716Y13907310D01*
X21380035Y13938871D01*
X21409385Y13968477D01*
X21436625Y13995985D01*
X21461613Y14021251D01*
X21484208Y14044133D01*
X21504268Y14064489D01*
X21521653Y14082175D01*
X21536220Y14097049D01*
X21547829Y14108968D01*
X21556337Y14117790D01*
X21561604Y14123371D01*
X21563489Y14125569D01*
X21564028Y14128122D01*
X21563205Y14133538D01*
X21559420Y14139022D01*
X21552364Y14144770D01*
X21541722Y14150974D01*
X21527185Y14157828D01*
X21508441Y14165527D01*
X21485178Y14174264D01*
X21476551Y14177397D01*
X21462570Y14182416D01*
X21452166Y14185989D01*
X21444608Y14188302D01*
X21439164Y14189538D01*
X21435101Y14189883D01*
X21431689Y14189521D01*
X21428194Y14188637D01*
X21427479Y14188419D01*
X21421931Y14186113D01*
X21414694Y14182126D01*
X21405464Y14176242D01*
X21393935Y14168244D01*
X21379803Y14157914D01*
X21362762Y14145037D01*
X21342507Y14129394D01*
X21318734Y14110770D01*
X21296210Y14093066D01*
X21275942Y14077238D01*
X21258899Y14064077D01*
X21244743Y14053347D01*
X21233137Y14044814D01*
X21223742Y14038240D01*
X21216222Y14033390D01*
X21210238Y14030029D01*
X21205454Y14027920D01*
X21201531Y14026827D01*
X21198132Y14026515D01*
X21193705Y14026787D01*
X21187701Y14028051D01*
X21180849Y14030588D01*
X21172715Y14034661D01*
X21162862Y14040532D01*
X21150857Y14048465D01*
X21136264Y14058722D01*
X21118647Y14071566D01*
X21097572Y14087261D01*
X21078383Y14101737D01*
X21056419Y14118614D01*
X21038020Y14133181D01*
X21022865Y14145713D01*
X21010633Y14156484D01*
X21001003Y14165771D01*
X20993655Y14173848D01*
X20988268Y14180991D01*
X20986348Y14184282D01*
X20984782Y14188517D01*
X20984077Y14193538D01*
X20984345Y14199772D01*
X20985699Y14207644D01*
X20988249Y14217582D01*
X20992107Y14230011D01*
X20997384Y14245358D01*
X21004193Y14264049D01*
X21012644Y14286511D01*
X21022849Y14313169D01*
X21023496Y14314852D01*
X21034951Y14344916D01*
X21044557Y14370808D01*
X21052410Y14392925D01*
X21058606Y14411662D01*
X21063241Y14427416D01*
X21066411Y14440583D01*
X21068212Y14451557D01*
X21068740Y14460736D01*
X21068091Y14468515D01*
X21066361Y14475291D01*
X21063646Y14481459D01*
X21058381Y14490562D01*
X21049921Y14503351D01*
X21040044Y14516873D01*
X21029431Y14530303D01*
X21018763Y14542818D01*
X21008721Y14553593D01*
X20999986Y14561806D01*
X20993240Y14566631D01*
X20987902Y14568217D01*
X20976999Y14569308D01*
X20961266Y14569495D01*
X20940740Y14568778D01*
X20915462Y14567160D01*
X20885469Y14564641D01*
X20850801Y14561224D01*
X20844632Y14560590D01*
X20824908Y14558683D01*
X20804876Y14556906D01*
X20785850Y14555366D01*
X20769146Y14554173D01*
X20756080Y14553433D01*
X20751608Y14553238D01*
X20738985Y14552751D01*
X20730094Y14552637D01*
X20723964Y14552993D01*
X20719628Y14553918D01*
X20716116Y14555511D01*
X20712459Y14557871D01*
X20712321Y14557966D01*
X20707508Y14561775D01*
X20702872Y14566624D01*
X20698218Y14572923D01*
X20693351Y14581081D01*
X20688078Y14591509D01*
X20682204Y14604617D01*
X20675533Y14620816D01*
X20667872Y14640514D01*
X20659025Y14664122D01*
X20648799Y14692050D01*
X20645196Y14702011D01*
X20636417Y14726770D01*
X20629388Y14747518D01*
X20623994Y14764693D01*
X20620122Y14778733D01*
X20617657Y14790078D01*
X20616486Y14799166D01*
X20616495Y14806434D01*
X20617570Y14812323D01*
X20618554Y14815089D01*
X20622775Y14822633D01*
X20629748Y14831275D01*
X20639778Y14841305D01*
X20653172Y14853016D01*
X20670235Y14866699D01*
X20691272Y14882645D01*
X20695364Y14885685D01*
X20718573Y14902943D01*
X20738225Y14917604D01*
X20754714Y14929977D01*
X20768434Y14940371D01*
X20779779Y14949095D01*
X20789143Y14956459D01*
X20796921Y14962771D01*
X20803505Y14968341D01*
X20809290Y14973478D01*
X20814670Y14978491D01*
X20820039Y14983689D01*
X20826232Y14989823D01*
X20833616Y14997685D01*
X20838840Y15004679D01*
X20842188Y15011777D01*
X20843942Y15019951D01*
X20844386Y15030174D01*
X20843803Y15043416D01*
X20842477Y15060651D01*
X20840699Y15078858D01*
X20838492Y15093336D01*
X20835624Y15104396D01*
X20831821Y15112831D01*
X20826810Y15119433D01*
X20820319Y15124993D01*
X20817491Y15126904D01*
X20808743Y15132221D01*
X20795704Y15139667D01*
X20778487Y15149183D01*
X20757204Y15160706D01*
X20731967Y15174175D01*
X20702890Y15189530D01*
X20670084Y15206709D01*
X20659999Y15211977D01*
X20640145Y15222441D01*
X20624120Y15231141D01*
X20611505Y15238432D01*
X20601879Y15244668D01*
X20594822Y15250203D01*
X20589911Y15255392D01*
X20586728Y15260589D01*
X20584851Y15266148D01*
X20583860Y15272424D01*
X20583334Y15279770D01*
X20583248Y15282107D01*
X20583360Y15287697D01*
X20583951Y15294485D01*
X20585111Y15302993D01*
X20586935Y15313744D01*
X20589514Y15327261D01*
X20592939Y15344067D01*
X20597304Y15364684D01*
X20602700Y15389636D01*
X20605383Y15401916D01*
X20611623Y15430065D01*
X20617054Y15453841D01*
X20621779Y15473616D01*
X20625900Y15489764D01*
X20629520Y15502658D01*
X20632742Y15512673D01*
X20635668Y15520181D01*
X20638401Y15525556D01*
X20641044Y15529172D01*
X20644771Y15532626D01*
X20650062Y15536047D01*
X20656923Y15539043D01*
X20665781Y15541691D01*
X20677062Y15544065D01*
X20691193Y15546241D01*
X20708601Y15548292D01*
X20729711Y15550295D01*
X20754951Y15552324D01*
X20784746Y15554455D01*
X20800277Y15555530D01*
X20828459Y15557558D01*
X20852261Y15559404D01*
X20872086Y15561114D01*
X20888336Y15562732D01*
X20901412Y15564306D01*
X20911717Y15565882D01*
X20919653Y15567504D01*
X20925622Y15569220D01*
X20930026Y15571076D01*
X20931032Y15571650D01*
X20937727Y15577372D01*
X20945626Y15586632D01*
X20954086Y15598539D01*
X20962467Y15612203D01*
X20970127Y15626732D01*
X20974679Y15636596D01*
X20978113Y15645753D01*
X20979810Y15653568D01*
X20980228Y15661629D01*
X20980156Y15664177D01*
X20979638Y15669146D01*
X20978444Y15674546D01*
X20976362Y15680802D01*
X20973179Y15688339D01*
X20968684Y15697583D01*
X20962664Y15708961D01*
X20954907Y15722898D01*
X20945201Y15739820D01*
X20933333Y15760152D01*
X20919092Y15784321D01*
X20910774Y15798428D01*
X20896537Y15822766D01*
X20884665Y15843372D01*
X20874979Y15860578D01*
X20867302Y15874714D01*
X20861457Y15886110D01*
X20857266Y15895099D01*
X20854552Y15902010D01*
X20853136Y15907175D01*
X20852498Y15911613D01*
X20852585Y15918403D01*
X20854389Y15925273D01*
X20858284Y15932898D01*
X20864643Y15941955D01*
X20873841Y15953121D01*
X20886252Y15967073D01*
X20889029Y15970118D01*
X20901435Y15983495D01*
X20915300Y15998138D01*
X20930179Y16013602D01*
X20945627Y16029445D01*
X20961198Y16045224D01*
X20976449Y16060493D01*
X20990933Y16074811D01*
X21004207Y16087734D01*
X21015824Y16098818D01*
X21025341Y16107620D01*
X21032312Y16113697D01*
X21036292Y16116605D01*
X21038159Y16117481D01*
X21044445Y16119479D01*
X21051491Y16120103D01*
X21059731Y16119198D01*
X21069602Y16116608D01*
X21081538Y16112177D01*
X21095976Y16105751D01*
X21113350Y16097175D01*
X21134096Y16086291D01*
X21158650Y16072946D01*
X21184812Y16058610D01*
X21209448Y16045248D01*
X21230484Y16034033D01*
X21248293Y16024791D01*
X21263252Y16017348D01*
X21275737Y16011529D01*
X21286124Y16007160D01*
X21294787Y16004066D01*
X21302104Y16002072D01*
X21308449Y16001005D01*
X21314199Y16000688D01*
X21323659Y16002138D01*
X21335787Y16006360D01*
X21349207Y16012728D01*
X21362917Y16020617D01*
X21375916Y16029399D01*
X21387202Y16038447D01*
X21395775Y16047133D01*
X21400633Y16054831D01*
X21401209Y16056787D01*
X21402548Y16064615D01*
X21403935Y16077184D01*
X21405373Y16094534D01*
X21406864Y16116706D01*
X21408410Y16143740D01*
X21410016Y16175678D01*
X21411684Y16212561D01*
X21412455Y16229662D01*
X21413463Y16250056D01*
X21414486Y16268874D01*
X21415484Y16285434D01*
X21416414Y16299056D01*
X21417236Y16309057D01*
X21417908Y16314759D01*
X21418877Y16319358D01*
X21421540Y16326924D01*
X21425733Y16333454D01*
X21431940Y16339218D01*
X21440645Y16344484D01*
X21452331Y16349518D01*
X21467480Y16354591D01*
X21486577Y16359970D01*
X21510104Y16365922D01*
X21537301Y16372549D01*
X21565192Y16379290D01*
X21588990Y16384961D01*
X21609093Y16389648D01*
X21625899Y16393434D01*
X21639810Y16396405D01*
X21651222Y16398646D01*
X21660536Y16400241D01*
X21668151Y16401276D01*
X21674465Y16401834D01*
X21679878Y16402001D01*
X21683416Y16401974D01*
G37*
G36*
X29383923Y15369152D02*
G01*
X29383942Y15367278D01*
X29383698Y15321355D01*
X29383423Y15299121D01*
X29383023Y15274820D01*
X29382492Y15254013D01*
X29381751Y15235865D01*
X29380723Y15219544D01*
X29379328Y15204216D01*
X29377489Y15189048D01*
X29375127Y15173206D01*
X29372163Y15155857D01*
X29368520Y15136169D01*
X29364117Y15113306D01*
X29362188Y15103505D01*
X29352632Y15058547D01*
X29342655Y15017693D01*
X29332038Y14980213D01*
X29320561Y14945375D01*
X29308005Y14912452D01*
X29294151Y14880711D01*
X29288278Y14867738D01*
X29283285Y14855499D01*
X29280399Y14846227D01*
X29279455Y14839160D01*
X29280283Y14833535D01*
X29282718Y14828592D01*
X29283797Y14827347D01*
X29287347Y14824376D01*
X29293273Y14820149D01*
X29301755Y14814558D01*
X29312972Y14807496D01*
X29327103Y14798856D01*
X29344328Y14788531D01*
X29364826Y14776414D01*
X29388777Y14762397D01*
X29416360Y14746372D01*
X29447754Y14728234D01*
X29483139Y14707874D01*
X29522695Y14685186D01*
X29539466Y14675576D01*
X29571087Y14657437D01*
X29598837Y14641473D01*
X29623028Y14627489D01*
X29643972Y14615288D01*
X29661980Y14604674D01*
X29677364Y14595450D01*
X29690435Y14587422D01*
X29701505Y14580393D01*
X29710886Y14574167D01*
X29718889Y14568547D01*
X29725825Y14563339D01*
X29732006Y14558345D01*
X29737744Y14553369D01*
X29743351Y14548217D01*
X29749137Y14542691D01*
X29749514Y14542325D01*
X29761552Y14530079D01*
X29770378Y14519416D01*
X29776800Y14509036D01*
X29781627Y14497639D01*
X29785666Y14483925D01*
X29786297Y14481382D01*
X29789602Y14462570D01*
X29789769Y14453847D01*
X29789944Y14444691D01*
X29787165Y14426648D01*
X29781109Y14407342D01*
X29771619Y14385676D01*
X29769388Y14381228D01*
X29755916Y14359497D01*
X29739438Y14340872D01*
X29719356Y14324766D01*
X29695072Y14310594D01*
X29690578Y14308339D01*
X29679958Y14303206D01*
X29672084Y14299922D01*
X29665732Y14298105D01*
X29659677Y14297371D01*
X29652698Y14297338D01*
X29647951Y14297538D01*
X29643145Y14297987D01*
X29638107Y14298804D01*
X29632609Y14300108D01*
X29626426Y14302018D01*
X29619331Y14304652D01*
X29611097Y14308132D01*
X29601500Y14312575D01*
X29590312Y14318100D01*
X29577307Y14324828D01*
X29562260Y14332877D01*
X29544942Y14342366D01*
X29525130Y14353415D01*
X29502596Y14366142D01*
X29477113Y14380667D01*
X29448457Y14397110D01*
X29416399Y14415589D01*
X29380715Y14436223D01*
X29341179Y14459132D01*
X29297562Y14484435D01*
X29282839Y14492980D01*
X29258185Y14507287D01*
X29234810Y14520852D01*
X29213093Y14533454D01*
X29193412Y14544875D01*
X29176147Y14554893D01*
X29161677Y14563288D01*
X29150381Y14569842D01*
X29142638Y14574333D01*
X29138828Y14576542D01*
X29136162Y14577988D01*
X29126523Y14581562D01*
X29118484Y14581987D01*
X29113088Y14579156D01*
X29111787Y14577197D01*
X29110054Y14572864D01*
X29108564Y14566500D01*
X29107278Y14557683D01*
X29106158Y14545989D01*
X29105168Y14530999D01*
X29104269Y14512289D01*
X29103422Y14489438D01*
X29102641Y14463649D01*
X29102592Y14462023D01*
X29102550Y14460551D01*
X29101553Y14427138D01*
X29100551Y14398126D01*
X29099510Y14372954D01*
X29098392Y14351063D01*
X29097163Y14331890D01*
X29095786Y14314875D01*
X29094225Y14299458D01*
X29092446Y14285077D01*
X29090412Y14271172D01*
X29089915Y14268011D01*
X29087505Y14252710D01*
X29084695Y14234928D01*
X29081796Y14216623D01*
X29079116Y14199754D01*
X29079016Y14199130D01*
X29075904Y14181517D01*
X29071743Y14160575D01*
X29066753Y14137218D01*
X29061153Y14112361D01*
X29055162Y14086917D01*
X29049001Y14061800D01*
X29042888Y14037926D01*
X29037043Y14016207D01*
X29031686Y13997559D01*
X29027036Y13982894D01*
X29020528Y13964044D01*
X29013195Y13943184D01*
X29005567Y13921806D01*
X28997961Y13900785D01*
X28990696Y13880991D01*
X28984089Y13863297D01*
X28978458Y13848576D01*
X28974122Y13837700D01*
X28973611Y13836481D01*
X28968900Y13825850D01*
X28962339Y13811790D01*
X28954350Y13795150D01*
X28945356Y13776782D01*
X28935779Y13757534D01*
X28926043Y13738258D01*
X28916569Y13719804D01*
X28907781Y13703022D01*
X28900100Y13688763D01*
X28895088Y13679712D01*
X28850265Y13604466D01*
X28801171Y13531551D01*
X28748037Y13461191D01*
X28691096Y13393610D01*
X28630577Y13329031D01*
X28566714Y13267679D01*
X28499738Y13209777D01*
X28429880Y13155549D01*
X28357373Y13105220D01*
X28282447Y13059013D01*
X28205335Y13017152D01*
X28198142Y13013514D01*
X28170899Y12999926D01*
X28146715Y12988249D01*
X28124565Y12978034D01*
X28103426Y12968831D01*
X28082274Y12960192D01*
X28060085Y12951668D01*
X28035835Y12942809D01*
X28024578Y12938798D01*
X27984192Y12924827D01*
X27946378Y12912506D01*
X27910192Y12901600D01*
X27874690Y12891873D01*
X27838928Y12883090D01*
X27801963Y12875016D01*
X27762849Y12867415D01*
X27720644Y12860052D01*
X27674402Y12852692D01*
X27610840Y12842959D01*
X27494932Y12842790D01*
X27474549Y12842773D01*
X27439671Y12842824D01*
X27408905Y12843015D01*
X27381680Y12843377D01*
X27357426Y12843944D01*
X27335572Y12844750D01*
X27315549Y12845827D01*
X27296785Y12847208D01*
X27278712Y12848927D01*
X27260757Y12851018D01*
X27242352Y12853512D01*
X27222925Y12856444D01*
X27201907Y12859847D01*
X27185322Y12862640D01*
X27144619Y12869939D01*
X27107367Y12877370D01*
X27072457Y12885208D01*
X27038782Y12893727D01*
X27005234Y12903200D01*
X26970706Y12913902D01*
X26934088Y12926107D01*
X26878935Y12946031D01*
X26796379Y12979871D01*
X26716920Y13017513D01*
X26640339Y13059090D01*
X26566414Y13104731D01*
X26494925Y13154569D01*
X26425652Y13208732D01*
X26358373Y13267353D01*
X26348864Y13276129D01*
X26299349Y13323635D01*
X26253603Y13370838D01*
X26210773Y13418684D01*
X26170004Y13468120D01*
X26130444Y13520093D01*
X26107933Y13551790D01*
X26068613Y13611970D01*
X26031182Y13675451D01*
X25996164Y13741222D01*
X25964085Y13808278D01*
X25935468Y13875609D01*
X25910837Y13942208D01*
X25909167Y13947140D01*
X25899037Y13978348D01*
X25888971Y14011441D01*
X25879215Y14045485D01*
X25870016Y14079544D01*
X25861619Y14112686D01*
X25854269Y14143975D01*
X25848214Y14172478D01*
X25843698Y14197261D01*
X25842965Y14201792D01*
X25838432Y14230149D01*
X25834676Y14254531D01*
X25831616Y14275752D01*
X25829167Y14294625D01*
X25827248Y14311965D01*
X25825776Y14328585D01*
X25824668Y14345300D01*
X25823842Y14362923D01*
X25823216Y14382268D01*
X25822706Y14404150D01*
X25822417Y14421347D01*
X25822150Y14448211D01*
X25822038Y14476973D01*
X25822050Y14484649D01*
X26558973Y14484649D01*
X26558986Y14460049D01*
X26559318Y14436467D01*
X26559975Y14414892D01*
X26560965Y14396312D01*
X26562291Y14381717D01*
X26567866Y14342477D01*
X26581225Y14275278D01*
X26599141Y14210036D01*
X26621586Y14146820D01*
X26648531Y14085699D01*
X26679948Y14026742D01*
X26715808Y13970017D01*
X26756082Y13915593D01*
X26763869Y13906202D01*
X26777535Y13890756D01*
X26793606Y13873473D01*
X26811277Y13855159D01*
X26829743Y13836617D01*
X26848199Y13818653D01*
X26865839Y13802072D01*
X26881858Y13787677D01*
X26895452Y13776275D01*
X26926159Y13752945D01*
X26969311Y13723362D01*
X27014042Y13696052D01*
X27059117Y13671760D01*
X27103297Y13651229D01*
X27126102Y13641927D01*
X27151963Y13632117D01*
X27178411Y13622744D01*
X27204177Y13614241D01*
X27227992Y13607043D01*
X27248589Y13601582D01*
X27258448Y13599383D01*
X27275997Y13595939D01*
X27296489Y13592316D01*
X27318733Y13588698D01*
X27341542Y13585270D01*
X27363726Y13582216D01*
X27384094Y13579718D01*
X27401458Y13577962D01*
X27407660Y13577494D01*
X27423965Y13576656D01*
X27442592Y13576101D01*
X27462081Y13575843D01*
X27480973Y13575895D01*
X27497811Y13576270D01*
X27511134Y13576981D01*
X27531647Y13578795D01*
X27601034Y13587729D01*
X27667759Y13600811D01*
X27731999Y13618108D01*
X27793931Y13639688D01*
X27853733Y13665616D01*
X27911581Y13695961D01*
X27967653Y13730788D01*
X28022126Y13770166D01*
X28022321Y13770318D01*
X28036053Y13781599D01*
X28052233Y13795889D01*
X28070088Y13812419D01*
X28088840Y13830421D01*
X28107714Y13849125D01*
X28125934Y13867764D01*
X28142723Y13885567D01*
X28157306Y13901766D01*
X28168907Y13915593D01*
X28194075Y13948735D01*
X28231482Y14004597D01*
X28264557Y14062916D01*
X28293274Y14123638D01*
X28317607Y14186713D01*
X28337530Y14252088D01*
X28337747Y14252908D01*
X28341552Y14268881D01*
X28345632Y14288587D01*
X28349797Y14310868D01*
X28353857Y14334563D01*
X28357621Y14358515D01*
X28360897Y14381564D01*
X28363495Y14402551D01*
X28365225Y14420317D01*
X28365794Y14428576D01*
X28366804Y14463649D01*
X28365941Y14501935D01*
X28363328Y14542366D01*
X28359090Y14583872D01*
X28353350Y14625384D01*
X28346231Y14665833D01*
X28337858Y14704149D01*
X28328353Y14739263D01*
X28322295Y14758651D01*
X28301251Y14817617D01*
X28277148Y14873232D01*
X28249666Y14926031D01*
X28218484Y14976547D01*
X28183282Y15025314D01*
X28143738Y15072864D01*
X28099533Y15119731D01*
X28083291Y15135770D01*
X28060019Y15157765D01*
X28037882Y15177297D01*
X28015765Y15195297D01*
X27992551Y15212699D01*
X27967125Y15230435D01*
X27933332Y15252340D01*
X27877843Y15284129D01*
X27821133Y15311439D01*
X27762771Y15334431D01*
X27702324Y15353270D01*
X27639361Y15368117D01*
X27573450Y15379137D01*
X27568041Y15379791D01*
X27553061Y15381112D01*
X27534702Y15382246D01*
X27513893Y15383177D01*
X27491561Y15383888D01*
X27468634Y15384362D01*
X27446040Y15384584D01*
X27424709Y15384537D01*
X27405566Y15384204D01*
X27389542Y15383569D01*
X27377564Y15382615D01*
X27376388Y15382476D01*
X27362323Y15380574D01*
X27344938Y15377890D01*
X27325412Y15374637D01*
X27304924Y15371026D01*
X27284654Y15367272D01*
X27265781Y15363586D01*
X27249485Y15360181D01*
X27236944Y15357270D01*
X27236669Y15357201D01*
X27177822Y15339882D01*
X27119351Y15317895D01*
X27061877Y15291550D01*
X27006018Y15261157D01*
X26952395Y15227026D01*
X26901625Y15189466D01*
X26894449Y15183594D01*
X26878223Y15169509D01*
X26860166Y15152967D01*
X26841087Y15134775D01*
X26821795Y15115738D01*
X26803101Y15096661D01*
X26785815Y15078350D01*
X26770745Y15061612D01*
X26758702Y15047252D01*
X26726051Y15004076D01*
X26689629Y14949607D01*
X26657885Y14894160D01*
X26630654Y14837346D01*
X26607770Y14778773D01*
X26589067Y14718052D01*
X26574378Y14654793D01*
X26563538Y14588606D01*
X26563498Y14588299D01*
X26562001Y14573445D01*
X26560795Y14554664D01*
X26559884Y14532945D01*
X26559275Y14509277D01*
X26558973Y14484649D01*
X25822050Y14484649D01*
X25822082Y14505914D01*
X25822283Y14533312D01*
X25822642Y14557448D01*
X25822862Y14567619D01*
X25823514Y14590158D01*
X25824413Y14610783D01*
X25825648Y14630347D01*
X25827308Y14649699D01*
X25829480Y14669690D01*
X25832253Y14691171D01*
X25835716Y14714993D01*
X25839958Y14742006D01*
X25845066Y14773061D01*
X25847431Y14786333D01*
X25853595Y14816208D01*
X25861407Y14849443D01*
X25870633Y14885230D01*
X25881037Y14922762D01*
X25892385Y14961231D01*
X25904441Y14999829D01*
X25916972Y15037748D01*
X25929743Y15074182D01*
X25942518Y15108321D01*
X25946397Y15117636D01*
X25952312Y15130867D01*
X25959775Y15146963D01*
X25968397Y15165134D01*
X25977791Y15184590D01*
X25987570Y15204540D01*
X25997347Y15224195D01*
X26006734Y15242764D01*
X26015343Y15259457D01*
X26022787Y15273483D01*
X26028679Y15284052D01*
X26034267Y15293640D01*
X26052967Y15325263D01*
X26070160Y15353486D01*
X26086407Y15379139D01*
X26102268Y15403050D01*
X26118303Y15426050D01*
X26135072Y15448967D01*
X26153135Y15472632D01*
X26173052Y15497873D01*
X26223967Y15558930D01*
X26278088Y15618221D01*
X26334334Y15674178D01*
X26393410Y15727467D01*
X26456018Y15778752D01*
X26522862Y15828700D01*
X26525009Y15830228D01*
X26541256Y15841414D01*
X26560313Y15854006D01*
X26581315Y15867475D01*
X26603398Y15881291D01*
X26625698Y15894926D01*
X26647351Y15907849D01*
X26667492Y15919532D01*
X26685256Y15929445D01*
X26699780Y15937059D01*
X26707376Y15941165D01*
X26718079Y15948568D01*
X26724842Y15955757D01*
X26727199Y15962304D01*
X26727020Y15963747D01*
X26723500Y15969506D01*
X26715359Y15976486D01*
X26712104Y15978621D01*
X26704614Y15983237D01*
X26693497Y15989935D01*
X26679127Y15998496D01*
X26661874Y16008699D01*
X26642113Y16020327D01*
X26620214Y16033158D01*
X26596552Y16046973D01*
X26571497Y16061553D01*
X26545423Y16076678D01*
X26523871Y16089167D01*
X26487619Y16110211D01*
X26455240Y16129063D01*
X26426438Y16145899D01*
X26400916Y16160895D01*
X26378377Y16174230D01*
X26358525Y16186078D01*
X26341061Y16196618D01*
X26325690Y16206025D01*
X26312115Y16214476D01*
X26300039Y16222149D01*
X26289164Y16229219D01*
X26287626Y16230243D01*
X26273122Y16241314D01*
X26261083Y16253716D01*
X26250497Y16268655D01*
X26240348Y16287340D01*
X26238545Y16291069D01*
X26235682Y16297659D01*
X26233885Y16303679D01*
X26232909Y16310518D01*
X26232510Y16319565D01*
X26232469Y16327336D01*
X26309036Y16327336D01*
X26310236Y16311056D01*
X26315524Y16296217D01*
X26324942Y16283463D01*
X26326040Y16282340D01*
X26327357Y16280937D01*
X26328550Y16279644D01*
X26329750Y16278385D01*
X26331088Y16277083D01*
X26332695Y16275661D01*
X26334701Y16274043D01*
X26337236Y16272152D01*
X26340432Y16269912D01*
X26344418Y16267246D01*
X26349326Y16264078D01*
X26355286Y16260331D01*
X26362428Y16255927D01*
X26370884Y16250792D01*
X26380783Y16244848D01*
X26392257Y16238018D01*
X26405435Y16230226D01*
X26420449Y16221396D01*
X26437429Y16211451D01*
X26456506Y16200313D01*
X26477810Y16187907D01*
X26501472Y16174156D01*
X26527622Y16158984D01*
X26556391Y16142313D01*
X26587910Y16124068D01*
X26622309Y16104171D01*
X26659719Y16082546D01*
X26700271Y16059117D01*
X26744094Y16033806D01*
X26791320Y16006538D01*
X26842079Y15977235D01*
X26896501Y15945822D01*
X26954718Y15912221D01*
X27016860Y15876355D01*
X27083057Y15838150D01*
X27153441Y15797526D01*
X27165061Y15790819D01*
X27221125Y15758459D01*
X27277683Y15725813D01*
X27334469Y15693035D01*
X27391214Y15660279D01*
X27447652Y15627700D01*
X27503514Y15595452D01*
X27558535Y15563690D01*
X27612446Y15532567D01*
X27664981Y15502239D01*
X27715871Y15472858D01*
X27764849Y15444581D01*
X27811648Y15417561D01*
X27856002Y15391952D01*
X27897641Y15367909D01*
X27936300Y15345587D01*
X27971710Y15325139D01*
X28003604Y15306719D01*
X28031715Y15290483D01*
X28055776Y15276585D01*
X28056920Y15275925D01*
X28103267Y15249152D01*
X28153662Y15220045D01*
X28207842Y15188755D01*
X28265542Y15155434D01*
X28326499Y15120234D01*
X28390450Y15083308D01*
X28457130Y15044807D01*
X28526277Y15004885D01*
X28597627Y14963692D01*
X28670917Y14921382D01*
X28745881Y14878106D01*
X28822258Y14834017D01*
X28899784Y14789266D01*
X28978194Y14744007D01*
X29057226Y14698390D01*
X29136616Y14652568D01*
X29216100Y14606694D01*
X29238085Y14594005D01*
X29269538Y14575849D01*
X29300146Y14558177D01*
X29329563Y14541189D01*
X29357442Y14525087D01*
X29383434Y14510071D01*
X29407192Y14496342D01*
X29428369Y14484101D01*
X29446618Y14473549D01*
X29461591Y14464885D01*
X29472941Y14458312D01*
X29480320Y14454029D01*
X29500082Y14442542D01*
X29521848Y14429930D01*
X29540033Y14419460D01*
X29555041Y14410915D01*
X29567271Y14404079D01*
X29577127Y14398733D01*
X29585010Y14394661D01*
X29591323Y14391646D01*
X29596466Y14389471D01*
X29600842Y14387919D01*
X29604852Y14386773D01*
X29606595Y14386331D01*
X29617846Y14383929D01*
X29626743Y14383329D01*
X29635334Y14384576D01*
X29645669Y14387718D01*
X29651719Y14390229D01*
X29665754Y14399488D01*
X29677868Y14412413D01*
X29687126Y14428093D01*
X29690118Y14435409D01*
X29694798Y14453847D01*
X29694781Y14471163D01*
X29690014Y14487495D01*
X29680442Y14502982D01*
X29666011Y14517763D01*
X29646668Y14531977D01*
X29644760Y14533171D01*
X29637517Y14537550D01*
X29626549Y14544062D01*
X29612271Y14552464D01*
X29595097Y14562514D01*
X29575443Y14573971D01*
X29553723Y14586591D01*
X29530353Y14600134D01*
X29505747Y14614356D01*
X29480320Y14629017D01*
X29473843Y14632747D01*
X29453362Y14644547D01*
X29429058Y14658556D01*
X29401291Y14674566D01*
X29370423Y14692367D01*
X29336814Y14711753D01*
X29300825Y14732514D01*
X29262818Y14754443D01*
X29223154Y14777330D01*
X29182193Y14800969D01*
X29140296Y14825149D01*
X29097825Y14849664D01*
X29055141Y14874305D01*
X29012603Y14898863D01*
X28970575Y14923131D01*
X28955298Y14931953D01*
X28825975Y15006629D01*
X28700923Y15078838D01*
X28580100Y15148604D01*
X28463465Y15215951D01*
X28350977Y15280903D01*
X28242594Y15343483D01*
X28138275Y15403716D01*
X28037979Y15461625D01*
X27941663Y15517234D01*
X27849288Y15570568D01*
X27760811Y15621649D01*
X27676191Y15670503D01*
X27595387Y15717152D01*
X27518357Y15761621D01*
X27445060Y15803933D01*
X27375455Y15844112D01*
X27309500Y15882183D01*
X27247154Y15918169D01*
X27188376Y15952094D01*
X27133124Y15983982D01*
X27081357Y16013856D01*
X27033034Y16041742D01*
X26988112Y16067661D01*
X26946551Y16091639D01*
X26922437Y16105552D01*
X26882240Y16128746D01*
X26842555Y16151649D01*
X26803675Y16174092D01*
X26765891Y16195905D01*
X26729498Y16216919D01*
X26694788Y16236965D01*
X26662053Y16255874D01*
X26631587Y16273477D01*
X26603682Y16289604D01*
X26578632Y16304087D01*
X26556729Y16316755D01*
X26538266Y16327441D01*
X26523536Y16335975D01*
X26512832Y16342187D01*
X26497863Y16350877D01*
X26480723Y16360800D01*
X26465136Y16369795D01*
X26451652Y16377546D01*
X26440822Y16383735D01*
X26433197Y16388047D01*
X26429329Y16390165D01*
X26412475Y16397131D01*
X26393327Y16401418D01*
X26374966Y16401829D01*
X26358056Y16398431D01*
X26343258Y16391288D01*
X26331232Y16380465D01*
X26329548Y16378373D01*
X26318734Y16361638D01*
X26311882Y16344411D01*
X26309036Y16327336D01*
X26232469Y16327336D01*
X26232443Y16332207D01*
X26232478Y16336548D01*
X26233773Y16357186D01*
X26237291Y16375372D01*
X26243519Y16393002D01*
X26252945Y16411972D01*
X26254767Y16415146D01*
X26267883Y16433228D01*
X26284352Y16449772D01*
X26303092Y16463939D01*
X26323022Y16474893D01*
X26343062Y16481794D01*
X26355022Y16483529D01*
X26372301Y16483567D01*
X26389913Y16481351D01*
X26405649Y16477045D01*
X26407992Y16476117D01*
X26414103Y16473409D01*
X26422086Y16469544D01*
X26432162Y16464402D01*
X26444553Y16457858D01*
X26459482Y16449792D01*
X26477170Y16440080D01*
X26497839Y16428601D01*
X26521711Y16415232D01*
X26549007Y16399851D01*
X26579951Y16382336D01*
X26614763Y16362565D01*
X26653666Y16340414D01*
X26689734Y16319880D01*
X26725674Y16299476D01*
X26757663Y16281385D01*
X26785892Y16265504D01*
X26810548Y16251731D01*
X26831820Y16239963D01*
X26849895Y16230097D01*
X26864963Y16222030D01*
X26877212Y16215659D01*
X26886829Y16210883D01*
X26894003Y16207598D01*
X26898924Y16205701D01*
X26901778Y16205090D01*
X26903240Y16205221D01*
X26907107Y16206670D01*
X26911899Y16210008D01*
X26917956Y16215588D01*
X26925617Y16223764D01*
X26935222Y16234888D01*
X26947110Y16249315D01*
X26961620Y16267399D01*
X26963197Y16269375D01*
X27005012Y16318102D01*
X27050927Y16365039D01*
X27100198Y16409469D01*
X27124964Y16429139D01*
X27317964Y16429139D01*
X27320261Y16422995D01*
X27325684Y16416723D01*
X27326223Y16416243D01*
X27331808Y16412098D01*
X27341409Y16405720D01*
X27354741Y16397280D01*
X27371519Y16386949D01*
X27391458Y16374899D01*
X27414272Y16361301D01*
X27439677Y16346325D01*
X27467387Y16330144D01*
X27497117Y16312929D01*
X27528583Y16294850D01*
X27538553Y16289137D01*
X27556783Y16278674D01*
X27578373Y16266265D01*
X27602748Y16252242D01*
X27629336Y16236934D01*
X27657560Y16220673D01*
X27686849Y16203790D01*
X27716627Y16186614D01*
X27746320Y16169477D01*
X27775354Y16152709D01*
X27784537Y16147404D01*
X27807547Y16134113D01*
X27834328Y16118645D01*
X27864508Y16101216D01*
X27897711Y16082042D01*
X27933565Y16061339D01*
X27971694Y16039322D01*
X28011725Y16016209D01*
X28053283Y15992214D01*
X28095995Y15967554D01*
X28139487Y15942445D01*
X28183383Y15917103D01*
X28227311Y15891744D01*
X28270896Y15866583D01*
X28313764Y15841838D01*
X28333057Y15830701D01*
X28376329Y15805723D01*
X28420163Y15780419D01*
X28464185Y15755007D01*
X28508019Y15729703D01*
X28551289Y15704725D01*
X28593620Y15680288D01*
X28634637Y15656609D01*
X28673964Y15633905D01*
X28711227Y15612394D01*
X28746048Y15592291D01*
X28778054Y15573813D01*
X28806868Y15557177D01*
X28832116Y15542601D01*
X28853421Y15530299D01*
X28857794Y15527774D01*
X28905797Y15500065D01*
X28949694Y15474742D01*
X28989676Y15451696D01*
X29025934Y15430818D01*
X29058656Y15412000D01*
X29088034Y15395133D01*
X29114256Y15380110D01*
X29137513Y15366823D01*
X29157995Y15355161D01*
X29175892Y15345018D01*
X29191393Y15336285D01*
X29204690Y15328853D01*
X29215971Y15322614D01*
X29225426Y15317460D01*
X29233247Y15313283D01*
X29239621Y15309973D01*
X29241497Y15309019D01*
X29252185Y15303651D01*
X29261094Y15299287D01*
X29267340Y15296354D01*
X29270039Y15295279D01*
X29272484Y15295963D01*
X29277351Y15300069D01*
X29281824Y15306575D01*
X29284711Y15313964D01*
X29285061Y15315873D01*
X29285857Y15324120D01*
X29286440Y15336272D01*
X29286811Y15351544D01*
X29286970Y15369152D01*
X29286918Y15388311D01*
X29286655Y15408237D01*
X29286181Y15428145D01*
X29285498Y15447251D01*
X29284606Y15464769D01*
X29284492Y15466640D01*
X29277999Y15540625D01*
X29267736Y15611921D01*
X29253526Y15681183D01*
X29235194Y15749066D01*
X29212563Y15816226D01*
X29185457Y15883317D01*
X29153699Y15950995D01*
X29135855Y15985294D01*
X29097125Y16051872D01*
X29054517Y16115376D01*
X29008014Y16175826D01*
X28957594Y16233239D01*
X28903240Y16287635D01*
X28844930Y16339034D01*
X28782647Y16387453D01*
X28716369Y16432912D01*
X28646077Y16475430D01*
X28571753Y16515026D01*
X28549308Y16526007D01*
X28476838Y16558266D01*
X28404344Y16585610D01*
X28331606Y16608086D01*
X28258403Y16625744D01*
X28184513Y16638631D01*
X28109717Y16646795D01*
X28033792Y16650285D01*
X27956520Y16649148D01*
X27954684Y16649066D01*
X27924600Y16647568D01*
X27898325Y16645872D01*
X27874746Y16643854D01*
X27852749Y16641391D01*
X27831222Y16638359D01*
X27809051Y16634634D01*
X27785124Y16630092D01*
X27768210Y16626626D01*
X27696223Y16609357D01*
X27625163Y16588286D01*
X27555703Y16563667D01*
X27488517Y16535754D01*
X27424278Y16504803D01*
X27363661Y16471065D01*
X27361732Y16469907D01*
X27344814Y16459273D01*
X27332218Y16450221D01*
X27323703Y16442410D01*
X27319032Y16435496D01*
X27317964Y16429139D01*
X27124964Y16429139D01*
X27152079Y16450675D01*
X27159244Y16455926D01*
X27176453Y16468120D01*
X27196085Y16481592D01*
X27217065Y16495637D01*
X27238323Y16509549D01*
X27258784Y16522622D01*
X27277377Y16534150D01*
X27293028Y16543427D01*
X27323680Y16560240D01*
X27371076Y16583838D01*
X27421814Y16606590D01*
X27474927Y16628130D01*
X27529452Y16648093D01*
X27584424Y16666112D01*
X27638879Y16681821D01*
X27691851Y16694852D01*
X27761169Y16708684D01*
X27842514Y16720658D01*
X27923087Y16727814D01*
X28003141Y16730160D01*
X28082929Y16727700D01*
X28162706Y16720442D01*
X28242724Y16708391D01*
X28304192Y16695795D01*
X28382348Y16675321D01*
X28459437Y16650125D01*
X28535232Y16620329D01*
X28609506Y16586058D01*
X28682031Y16547433D01*
X28752579Y16504577D01*
X28820924Y16457615D01*
X28886836Y16406668D01*
X28950090Y16351860D01*
X29010457Y16293313D01*
X29065317Y16233541D01*
X29116309Y16170727D01*
X29163123Y16105234D01*
X29205704Y16037162D01*
X29243998Y15966614D01*
X29277948Y15893691D01*
X29307501Y15818494D01*
X29332601Y15741126D01*
X29353192Y15661687D01*
X29356315Y15647711D01*
X29363280Y15614013D01*
X29369106Y15581449D01*
X29373860Y15549257D01*
X29377611Y15516678D01*
X29380427Y15482951D01*
X29382375Y15447315D01*
X29383524Y15409011D01*
X29383923Y15369152D01*
G37*
%TD*%
%LPC*%
D12*
%TO.C,ESP32*%
X33325867Y5726728D03*
X33325867Y8266728D03*
X33325867Y10806728D03*
X33325867Y13346728D03*
X33325867Y15886728D03*
X33325867Y18426728D03*
X33325867Y20966728D03*
X33325867Y23506728D03*
X16688867Y5726728D03*
X16688867Y8266728D03*
X16688867Y10806728D03*
X16688867Y13346728D03*
X16688867Y15886728D03*
X16688867Y18426728D03*
X16688867Y20966728D03*
X16688867Y23506728D03*
%TD*%
D13*
%TO.C,J4*%
X32792367Y28332230D03*
D14*
X30252367Y28332230D03*
X27712367Y28332230D03*
X25172367Y28332230D03*
X22632367Y28332230D03*
X20092367Y28332230D03*
D15*
X17552367Y28332230D03*
%TD*%
D16*
%TO.C,M1*%
X1441366Y27567232D03*
X1441366Y30607232D03*
%TD*%
D17*
%TO.C,LED3*%
X42925000Y13500000D03*
X44195000Y13500000D03*
D18*
X45465000Y13500000D03*
D17*
X46735000Y13500000D03*
%TD*%
%TO.C,LED1*%
X36400000Y13525000D03*
X37670000Y13525000D03*
D18*
X38940000Y13525000D03*
D17*
X40210000Y13525000D03*
%TD*%
D19*
%TO.C,REF\u002A\u002A*%
X895807Y19549539D03*
X2194678Y18250668D03*
X895807Y15114917D03*
X2194678Y16413788D03*
%TD*%
D20*
%TO.C,BTN1*%
X38225000Y6850000D03*
X44725000Y6850000D03*
X38225000Y2350000D03*
X44725000Y2350000D03*
%TD*%
D21*
%TO.C,J2*%
X6175000Y21825000D03*
D22*
X11175000Y21825000D03*
%TD*%
D23*
%TO.C,PH1*%
X4975365Y25382229D03*
D24*
X7515365Y25382229D03*
X10055365Y25382229D03*
X12595365Y25382229D03*
X12595365Y33002229D03*
X10055365Y33002229D03*
X7515365Y33002229D03*
X4975365Y33002229D03*
%TD*%
D25*
%TO.C,DC-DC_3.3*%
X4560000Y17630000D03*
X13550000Y17670000D03*
X4560000Y1930000D03*
X13550000Y1960000D03*
%TD*%
D13*
%TO.C,START1*%
X48500000Y4275000D03*
D14*
X48500000Y6815000D03*
D13*
X48500000Y9355000D03*
%TD*%
D15*
%TO.C,J1*%
X1550000Y4600000D03*
D14*
X1550000Y7140000D03*
X1550000Y9680000D03*
%TD*%
D26*
%TO.C,M2*%
X48476364Y30904224D03*
X48476364Y27864224D03*
%TD*%
D19*
%TO.C,REF\u002A\u002A*%
X49082262Y15085887D03*
X47783391Y16384758D03*
X49082262Y19520509D03*
X47783391Y18221638D03*
%TD*%
D17*
%TO.C,LED2*%
X39675000Y19275000D03*
X40945000Y19275000D03*
D18*
X42215000Y19275000D03*
D17*
X43485000Y19275000D03*
%TD*%
D23*
%TO.C,PH2*%
X36922364Y25272229D03*
D24*
X39462364Y25272229D03*
X42002364Y25272229D03*
X44542364Y25272229D03*
X44542364Y32892229D03*
X42002364Y32892229D03*
X39462364Y32892229D03*
X36922364Y32892229D03*
%TD*%
G36*
X49723634Y20462779D02*
G01*
X49752677Y20459250D01*
X49802889Y20447783D01*
X49849668Y20426230D01*
X49852084Y20424797D01*
X49893402Y20394105D01*
X49927528Y20355573D01*
X49929163Y20353289D01*
X49954643Y20308550D01*
X49970377Y20259527D01*
X49976390Y20230895D01*
X49981706Y20179687D01*
X49981588Y19258435D01*
X49981461Y19250516D01*
X49981232Y19243348D01*
X49980226Y19227574D01*
X49979540Y19220407D01*
X49978659Y19212524D01*
X49974074Y19176697D01*
X49972760Y19167733D01*
X49971421Y19159625D01*
X49967826Y19141890D01*
X49965895Y19133873D01*
X49963616Y19125114D01*
X49960678Y19114609D01*
X49958766Y19108112D01*
X49956931Y19102178D01*
X49952551Y19089278D01*
X49950413Y19083504D01*
X49947980Y19077198D01*
X49941432Y19060888D01*
X49938821Y19054631D01*
X49936369Y19048974D01*
X49930627Y19036660D01*
X49927882Y19031169D01*
X49924752Y19025116D01*
X49916455Y19009596D01*
X49913169Y19003646D01*
X49910112Y18998285D01*
X49903089Y18986712D01*
X49899749Y18981531D01*
X49895984Y18975862D01*
X49886059Y18961353D01*
X49882156Y18955810D01*
X49878540Y18950821D01*
X49870268Y18940040D01*
X49866366Y18935232D01*
X49862025Y18930030D01*
X49850612Y18916724D01*
X49846092Y18911598D01*
X49841941Y18907019D01*
X49832563Y18897224D01*
X49828159Y18892868D01*
X49823268Y18888161D01*
X49810483Y18876187D01*
X49805467Y18871615D01*
X49800826Y18867500D01*
X49790417Y18858767D01*
X49785606Y18854949D01*
X49780245Y18850812D01*
X49766170Y18840253D01*
X49760683Y18836252D01*
X49755645Y18832683D01*
X49744338Y18825128D01*
X49739128Y18821849D01*
X49733344Y18818318D01*
X49718214Y18809361D01*
X49712306Y18805971D01*
X49706923Y18802980D01*
X49694905Y18796725D01*
X49689373Y18794034D01*
X49683214Y18791141D01*
X49667197Y18783884D01*
X49660960Y18781160D01*
X49655272Y18778768D01*
X49642632Y18773853D01*
X49636802Y18771767D01*
X49630393Y18769572D01*
X49605790Y18761517D01*
X49595003Y18757756D01*
X49584320Y18753568D01*
X49269637Y18623222D01*
X49234439Y18605865D01*
X49201804Y18584060D01*
X48953822Y18393783D01*
X48924312Y18367902D01*
X48898434Y18338395D01*
X48708153Y18090415D01*
X48686346Y18057778D01*
X48668989Y18022579D01*
X48549368Y17733789D01*
X48536753Y17696628D01*
X48529100Y17658151D01*
X48488296Y17348225D01*
X48485730Y17309070D01*
X48488296Y17269914D01*
X48530605Y16948556D01*
X48536023Y16921315D01*
X48547574Y16887290D01*
X48546719Y16887000D01*
X48559083Y16843441D01*
X48559258Y16842360D01*
X48562835Y16829335D01*
X48655151Y16552392D01*
X48675667Y16504937D01*
X48704032Y16461701D01*
X48893751Y16220706D01*
X48937624Y16175636D01*
X48989935Y16140703D01*
X49205450Y16027465D01*
X49227972Y16014075D01*
X49233391Y16010454D01*
X49240087Y16007153D01*
X49243885Y16005579D01*
X49249067Y16003363D01*
X49253731Y16001306D01*
X49264031Y15996479D01*
X49268681Y15994169D01*
X49273718Y15991595D01*
X49703146Y15765962D01*
X49724471Y15753366D01*
X49743132Y15741052D01*
X49781524Y15709826D01*
X49797384Y15694062D01*
X49814060Y15675751D01*
X49912069Y15556741D01*
X49952694Y15486704D01*
X49968700Y15407336D01*
X49982908Y15009493D01*
X49982979Y15007224D01*
X49983033Y15005193D01*
X49983111Y15000771D01*
X49983129Y14998730D01*
X49983139Y14996534D01*
X49983139Y14370141D01*
X49969640Y14289269D01*
X49930606Y14217165D01*
X49870270Y14161648D01*
X49795174Y14128737D01*
X49713460Y14122001D01*
X49582003Y14132956D01*
X49577815Y14133341D01*
X49574009Y14133723D01*
X49565466Y14134730D01*
X49561633Y14135249D01*
X49557494Y14135844D01*
X49189470Y14191983D01*
X49176853Y14194242D01*
X49165462Y14196585D01*
X49140697Y14203021D01*
X49129615Y14206518D01*
X49117496Y14210688D01*
X48703797Y14365057D01*
X48695288Y14368411D01*
X48687605Y14371604D01*
X48670891Y14379287D01*
X48663436Y14383053D01*
X48655338Y14387332D01*
X48228728Y14622919D01*
X48220668Y14627568D01*
X48213441Y14631919D01*
X48197862Y14642111D01*
X48190956Y14647007D01*
X48183465Y14652531D01*
X47814349Y14935524D01*
X47803109Y14944673D01*
X47793150Y14953273D01*
X47772340Y14973475D01*
X47763451Y14983172D01*
X47753969Y14994140D01*
X47477682Y15333216D01*
X47474924Y15336664D01*
X47472445Y15339819D01*
X47467141Y15346820D01*
X47464781Y15350052D01*
X47462242Y15353594D01*
X47221441Y15695788D01*
X47214657Y15705949D01*
X47208724Y15715326D01*
X47196672Y15736622D01*
X47191678Y15746556D01*
X47186455Y15757613D01*
X47019467Y16134880D01*
X47016337Y16142273D01*
X47013591Y16149060D01*
X47008036Y16164179D01*
X47005734Y16171131D01*
X47003338Y16178778D01*
X46869691Y16630627D01*
X46867069Y16640184D01*
X46864858Y16648924D01*
X46860765Y16668326D01*
X46859257Y16677211D01*
X46857793Y16687011D01*
X46807898Y17073692D01*
X46807004Y17081617D01*
X46806307Y17088833D01*
X46805281Y17104811D01*
X46805049Y17112063D01*
X46804922Y17120026D01*
X46804923Y17567356D01*
X46805273Y17580553D01*
X46805908Y17592516D01*
X46808698Y17618735D01*
X46810593Y17630555D01*
X46813025Y17643521D01*
X46919865Y18140019D01*
X46921818Y18148388D01*
X46923719Y18155944D01*
X46928492Y18172479D01*
X46930918Y18179909D01*
X46933720Y18188015D01*
X47076890Y18580172D01*
X47080844Y18590309D01*
X47084637Y18599439D01*
X47093837Y18619115D01*
X47098402Y18627862D01*
X47103657Y18637413D01*
X47313322Y18999564D01*
X47316056Y19004172D01*
X47318566Y19008300D01*
X47324300Y19017291D01*
X47327008Y19021343D01*
X47330042Y19025779D01*
X47597543Y19407925D01*
X47604836Y19417815D01*
X47611663Y19426610D01*
X47627661Y19445244D01*
X47635348Y19453352D01*
X47644024Y19462062D01*
X47917257Y19723147D01*
X47923901Y19729269D01*
X47930031Y19734715D01*
X47943974Y19746224D01*
X47950521Y19751240D01*
X47957785Y19756599D01*
X48394680Y20066858D01*
X48404965Y20073784D01*
X48414469Y20079845D01*
X48436018Y20092122D01*
X48446065Y20097201D01*
X48457274Y20102521D01*
X48906868Y20302339D01*
X48916000Y20306182D01*
X48924393Y20309519D01*
X48943129Y20316116D01*
X48951747Y20318769D01*
X48961289Y20321499D01*
X49383863Y20433358D01*
X49394287Y20435879D01*
X49403821Y20437968D01*
X49425004Y20441659D01*
X49434693Y20442919D01*
X49445366Y20444073D01*
X49672161Y20463672D01*
X49723634Y20462779D01*
G37*
G36*
X541380Y20486798D02*
G01*
X555043Y20485393D01*
X567393Y20483778D01*
X594363Y20478726D01*
X606464Y20475761D01*
X619705Y20472127D01*
X1049646Y20341277D01*
X1056355Y20339131D01*
X1062423Y20337095D01*
X1075639Y20332241D01*
X1081598Y20329859D01*
X1088084Y20327159D01*
X1511861Y20143731D01*
X1522430Y20138861D01*
X1531929Y20134211D01*
X1552310Y20123025D01*
X1561323Y20117516D01*
X1571115Y20111212D01*
X1956069Y19850438D01*
X1964647Y19844359D01*
X1972315Y19838678D01*
X1988626Y19825494D01*
X1995784Y19819192D01*
X2003527Y19812080D01*
X2301766Y19526273D01*
X2308196Y19519882D01*
X2313925Y19513977D01*
X2326080Y19500498D01*
X2331379Y19494173D01*
X2337061Y19487136D01*
X2599922Y19149166D01*
X2605897Y19141157D01*
X2611175Y19133778D01*
X2622154Y19117047D01*
X2626829Y19109257D01*
X2631810Y19100564D01*
X2892184Y18624265D01*
X2897301Y18614387D01*
X2901747Y18605313D01*
X2910615Y18584966D01*
X2914230Y18575546D01*
X2917982Y18565076D01*
X3085753Y18061774D01*
X3089797Y18048402D01*
X3093122Y18036181D01*
X3098934Y18008847D01*
X3100872Y17996309D01*
X3102617Y17982451D01*
X3152698Y17469125D01*
X3153404Y17460248D01*
X3153902Y17452159D01*
X3154360Y17434283D01*
X3154276Y17426160D01*
X3154024Y17417254D01*
X3135051Y17006209D01*
X3134573Y16998463D01*
X3134027Y16991413D01*
X3132349Y16975999D01*
X3131367Y16969009D01*
X3130167Y16961342D01*
X3067952Y16600509D01*
X3066178Y16591267D01*
X3064407Y16582898D01*
X3059828Y16564679D01*
X3057438Y16556491D01*
X3054635Y16547521D01*
X2949565Y16232303D01*
X2947252Y16225677D01*
X2945055Y16219657D01*
X2939870Y16206605D01*
X2937358Y16200767D01*
X2934478Y16194326D01*
X2769526Y15839049D01*
X2765875Y15831520D01*
X2762433Y15824715D01*
X2754360Y15810007D01*
X2750465Y15803445D01*
X2746070Y15796317D01*
X2546598Y15484638D01*
X2541793Y15477410D01*
X2537309Y15470914D01*
X2526960Y15456985D01*
X2522040Y15450824D01*
X2516522Y15444156D01*
X2213845Y15091036D01*
X2206712Y15083067D01*
X2200071Y15075961D01*
X2184836Y15061000D01*
X2177636Y15054512D01*
X2169529Y15047517D01*
X1882695Y14810578D01*
X1877736Y14806587D01*
X1873159Y14802999D01*
X1862928Y14795393D01*
X1858216Y14792074D01*
X1852964Y14788475D01*
X1629641Y14639567D01*
X1624114Y14635986D01*
X1619057Y14632804D01*
X1607783Y14626117D01*
X1602570Y14623208D01*
X1596773Y14620073D01*
X1338525Y14484799D01*
X1331011Y14481024D01*
X1324089Y14477691D01*
X1308619Y14470879D01*
X1301491Y14468025D01*
X1293628Y14465030D01*
X995667Y14357259D01*
X991760Y14355882D01*
X988171Y14354651D01*
X980462Y14352147D01*
X976918Y14351059D01*
X972946Y14349875D01*
X671210Y14262711D01*
X669585Y14262248D01*
X668047Y14261815D01*
X664347Y14260804D01*
X662728Y14260375D01*
X661095Y14259948D01*
X440493Y14203090D01*
X428407Y14200294D01*
X417400Y14198035D01*
X392940Y14194270D01*
X381746Y14193113D01*
X369384Y14192146D01*
X263764Y14186523D01*
X183724Y14195299D01*
X110670Y14229158D01*
X52241Y14284559D01*
X14545Y14355709D01*
X1526Y14435169D01*
X1523Y14763906D01*
X1533Y14766099D01*
X1551Y14768145D01*
X1630Y14772615D01*
X1684Y14774633D01*
X1754Y14776860D01*
X25454Y15440412D01*
X30210Y15480752D01*
X37357Y15516189D01*
X66055Y15591898D01*
X84187Y15623157D01*
X107365Y15656513D01*
X189818Y15756633D01*
X227953Y15793948D01*
X273163Y15822281D01*
X276983Y15824138D01*
X283100Y15827010D01*
X299102Y15834259D01*
X305304Y15836967D01*
X310993Y15839360D01*
X323645Y15844281D01*
X329466Y15846364D01*
X335895Y15848566D01*
X360491Y15856618D01*
X371301Y15860388D01*
X381943Y15864560D01*
X696655Y15994920D01*
X731848Y16012275D01*
X764483Y16034081D01*
X949295Y16175898D01*
X957854Y16182180D01*
X965766Y16187732D01*
X983679Y16199192D01*
X992033Y16204047D01*
X1001344Y16209196D01*
X1018045Y16217970D01*
X1058823Y16245203D01*
X1093033Y16280347D01*
X1291464Y16532407D01*
X1319832Y16575647D01*
X1340352Y16623113D01*
X1426707Y16882182D01*
X1435248Y16913285D01*
X1440398Y16945103D01*
X1462536Y17151719D01*
X1462699Y17153203D01*
X1462855Y17154581D01*
X1463203Y17157499D01*
X1463377Y17158889D01*
X1463579Y17160464D01*
X1477989Y17269919D01*
X1480555Y17309071D01*
X1477988Y17348221D01*
X1471879Y17394616D01*
X1471564Y17397108D01*
X1471287Y17399389D01*
X1470729Y17404405D01*
X1470499Y17406684D01*
X1470263Y17409146D01*
X1448186Y17652020D01*
X1440626Y17696960D01*
X1426342Y17740242D01*
X1317474Y18001527D01*
X1300454Y18035976D01*
X1279178Y18067961D01*
X1082726Y18325798D01*
X1075931Y18333838D01*
X1071375Y18338237D01*
X1057121Y18353190D01*
X1043168Y18369099D01*
X1032970Y18378044D01*
X984682Y18415096D01*
X981582Y18417513D01*
X978755Y18419754D01*
X972743Y18424675D01*
X970004Y18426989D01*
X967013Y18429557D01*
X784260Y18588979D01*
X741559Y18620060D01*
X694057Y18643175D01*
X390653Y18759020D01*
X378595Y18763989D01*
X367774Y18768784D01*
X344520Y18780582D01*
X334243Y18786492D01*
X323103Y18793293D01*
X199204Y18873464D01*
X172091Y18893751D01*
X149094Y18913534D01*
X104334Y18964124D01*
X87501Y18989359D01*
X70669Y19018742D01*
X32058Y19098233D01*
X20894Y19125110D01*
X12281Y19149834D01*
X-304Y19206586D01*
X-2951Y19232645D01*
X-4195Y19261719D01*
X10813Y20217176D01*
X16754Y20267471D01*
X23564Y20298003D01*
X39553Y20346044D01*
X64930Y20389857D01*
X68035Y20394144D01*
X101772Y20431938D01*
X142461Y20462121D01*
X147008Y20464824D01*
X192942Y20486140D01*
X242238Y20497721D01*
X273261Y20501742D01*
X323891Y20503111D01*
X541380Y20486798D01*
G37*
M02*
